CooperHewittInterpol3-LightItalic.ufo
<glyph name="dollar" format="1">
  <advance width="597"/>
  <unicode hex="0024"/>
  <outline>
    <contour>
      <point x="143" y="551" type="line" smooth="yes"/>
      <point x="144" y="559" type="line" smooth="yes"/>
      <point x="163" y="617" type="line" smooth="yes"/>
      <point x="203" y="657" type="line" smooth="yes"/>
      <point x="258" y="681" type="line" smooth="yes"/>
      <point x="327" y="688" type="line" smooth="yes"/>
      <point x="337" y="688" type="line" smooth="yes"/>
      <point x="350" y="688" type="line" smooth="yes"/>
      <point x="363" y="687" type="line" smooth="yes"/>
      <point x="375" y="685" type="line" smooth="yes"/>
      <point x="386" y="684" type="line" smooth="yes"/>
      <point x="288" y="420" type="line" smooth="yes"/>
      <point x="217" y="436" type="line" smooth="yes"/>
      <point x="171" y="463" type="line" smooth="yes"/>
      <point x="146" y="501" type="line" smooth="yes"/>
    </contour>
    <contour>
      <point x="313" y="379" type="line" smooth="yes"/>
      <point x="387" y="363" type="line" smooth="yes"/>
      <point x="438" y="335" type="line" smooth="yes"/>
      <point x="466" y="294" type="line" smooth="yes"/>
      <point x="470" y="238" type="line" smooth="yes"/>
      <point x="469" y="230" type="line" smooth="yes"/>
      <point x="450" y="171" type="line" smooth="yes"/>
      <point x="412" y="128" type="line" smooth="yes"/>
      <point x="356" y="101" type="line" smooth="yes"/>
      <point x="283" y="92" type="line" smooth="yes"/>
      <point x="277" y="92" type="line" smooth="yes"/>
      <point x="259" y="92" type="line" smooth="yes"/>
      <point x="241" y="94" type="line" smooth="yes"/>
      <point x="225" y="95" type="line" smooth="yes"/>
      <point x="209" y="98" type="line" smooth="yes"/>
    </contour>
    <contour>
      <point x="484" y="840" type="line" smooth="yes"/>
      <point x="444" y="840" type="line" smooth="yes"/>
      <point x="399" y="720" type="line" smooth="yes"/>
      <point x="383" y="723" type="line" smooth="yes"/>
      <point x="367" y="725" type="line" smooth="yes"/>
      <point x="350" y="726" type="line" smooth="yes"/>
      <point x="332" y="726" type="line" smooth="yes"/>
      <point x="246" y="716" type="line" smooth="yes"/>
      <point x="176" y="684" type="line" smooth="yes"/>
      <point x="127" y="632" type="line" smooth="yes"/>
      <point x="102" y="559" type="line" smooth="yes"/>
      <point x="101" y="551" type="line" smooth="yes"/>
      <point x="105" y="489" type="line" smooth="yes"/>
      <point x="134" y="441" type="line" smooth="yes"/>
      <point x="190" y="405" type="line" smooth="yes"/>
      <point x="275" y="384" type="line" smooth="yes"/>
      <point x="173" y="108" type="line" smooth="yes"/>
      <point x="134" y="130" type="line" smooth="yes"/>
      <point x="108" y="164" type="line" smooth="yes"/>
      <point x="95" y="210" type="line" smooth="yes"/>
      <point x="96" y="271" type="line" smooth="yes"/>
      <point x="56" y="271" type="line" smooth="yes"/>
      <point x="54" y="256" type="line" smooth="yes"/>
      <point x="54" y="192" type="line" smooth="yes"/>
      <point x="73" y="140" type="line" smooth="yes"/>
      <point x="108" y="100" type="line" smooth="yes"/>
      <point x="160" y="72" type="line" smooth="yes"/>
      <point x="111" y="-60" type="line" smooth="yes"/>
      <point x="151" y="-60" type="line" smooth="yes"/>
      <point x="196" y="62" type="line" smooth="yes"/>
      <point x="215" y="58" type="line" smooth="yes"/>
      <point x="236" y="56" type="line" smooth="yes"/>
      <point x="257" y="54" type="line" smooth="yes"/>
      <point x="280" y="54" type="line" smooth="yes"/>
      <point x="371" y="66" type="line" smooth="yes"/>
      <point x="441" y="101" type="line" smooth="yes"/>
      <point x="488" y="156" type="line" smooth="yes"/>
      <point x="511" y="230" type="line" smooth="yes"/>
      <point x="512" y="238" type="line" smooth="yes"/>
      <point x="508" y="304" type="line" smooth="yes"/>
      <point x="478" y="356" type="line" smooth="yes"/>
      <point x="418" y="393" type="line" smooth="yes"/>
      <point x="326" y="415" type="line" smooth="yes"/>
      <point x="422" y="674" type="line" smooth="yes"/>
      <point x="468" y="644" type="line" smooth="yes"/>
      <point x="493" y="602" type="line" smooth="yes"/>
      <point x="502" y="552" type="line" smooth="yes"/>
      <point x="499" y="498" type="line" smooth="yes"/>
      <point x="539" y="498" type="line" smooth="yes"/>
      <point x="541" y="513" type="line" smooth="yes"/>
      <point x="541" y="585" type="line" smooth="yes"/>
      <point x="522" y="642" type="line" smooth="yes"/>
      <point x="486" y="683" type="line" smooth="yes"/>
      <point x="436" y="710" type="line" smooth="yes"/>
    </contour>
  </outline>
</glyph>
<glyph name="ampersand" format="1">
  <advance width="650"/>
  <unicode hex="0026"/>
  <outline>
    <contour>
      <point x="146" y="634" type="line" smooth="yes"/>
      <point x="158" y="677" type="line" smooth="yes"/>
      <point x="185" y="715" type="line" smooth="yes"/>
      <point x="228" y="740" type="line" smooth="yes"/>
      <point x="288" y="750" type="line" smooth="yes"/>
      <point x="294" y="750" type="line" smooth="yes"/>
      <point x="350" y="741" type="line" smooth="yes"/>
      <point x="388" y="716" type="line" smooth="yes"/>
      <point x="409" y="679" type="line" smooth="yes"/>
      <point x="412" y="634" type="line" smooth="yes"/>
      <point x="411" y="626" type="line" smooth="yes"/>
      <point x="390" y="572" type="line" smooth="yes"/>
      <point x="348" y="526" type="line" smooth="yes"/>
      <point x="291" y="485" type="line" smooth="yes"/>
      <point x="227" y="445" type="line" smooth="yes"/>
      <point x="191" y="489" type="line" smooth="yes"/>
      <point x="163" y="533" type="line" smooth="yes"/>
      <point x="147" y="578" type="line" smooth="yes"/>
      <point x="145" y="626" type="line" smooth="yes"/>
    </contour>
    <contour>
      <point x="232" y="30" type="line" smooth="yes"/>
      <point x="153" y="43" type="line" smooth="yes"/>
      <point x="99" y="79" type="line" smooth="yes"/>
      <point x="71" y="133" type="line" smooth="yes"/>
      <point x="67" y="202" type="line" smooth="yes"/>
      <point x="69" y="218" type="line" smooth="yes"/>
      <point x="86" y="273" type="line" smooth="yes"/>
      <point x="118" y="319" type="line" smooth="yes"/>
      <point x="161" y="358" type="line" smooth="yes"/>
      <point x="212" y="394" type="line" smooth="yes"/>
      <point x="434" y="123" type="line" smooth="yes"/>
      <point x="388" y="79" type="line" smooth="yes"/>
      <point x="340" y="50" type="line" smooth="yes"/>
      <point x="291" y="35" type="line" smooth="yes"/>
      <point x="240" y="30" type="line" smooth="yes"/>
    </contour>
    <contour>
      <point x="236" y="-10" type="line" smooth="yes"/>
      <point x="296" y="-4" type="line" smooth="yes"/>
      <point x="353" y="15" type="line" smooth="yes"/>
      <point x="407" y="47" type="line" smooth="yes"/>
      <point x="458" y="94" type="line" smooth="yes"/>
      <point x="535" y="0" type="line" smooth="yes"/>
      <point x="591" y="0" type="line" smooth="yes"/>
      <point x="485" y="129" type="line" smooth="yes"/>
      <point x="516" y="180" type="line" smooth="yes"/>
      <point x="542" y="241" type="line" smooth="yes"/>
      <point x="563" y="312" type="line" smooth="yes"/>
      <point x="578" y="395" type="line" smooth="yes"/>
      <point x="538" y="395" type="line" smooth="yes"/>
      <point x="537" y="387" type="line" smooth="yes"/>
      <point x="525" y="316" type="line" smooth="yes"/>
      <point x="507" y="255" type="line" smooth="yes"/>
      <point x="485" y="203" type="line" smooth="yes"/>
      <point x="460" y="159" type="line" smooth="yes"/>
      <point x="249" y="417" type="line" smooth="yes"/>
      <point x="319" y="461" type="line" smooth="yes"/>
      <point x="382" y="508" type="line" smooth="yes"/>
      <point x="429" y="562" type="line" smooth="yes"/>
      <point x="453" y="626" type="line" smooth="yes"/>
      <point x="454" y="634" type="line" smooth="yes"/>
      <point x="449" y="696" type="line" smooth="yes"/>
      <point x="419" y="745" type="line" smooth="yes"/>
      <point x="366" y="778" type="line" smooth="yes"/>
      <point x="290" y="790" type="line" smooth="yes"/>
      <point x="214" y="778" type="line" smooth="yes"/>
      <point x="158" y="746" type="line" smooth="yes"/>
      <point x="122" y="696" type="line" smooth="yes"/>
      <point x="104" y="634" type="line" smooth="yes"/>
      <point x="103" y="626" type="line" smooth="yes"/>
      <point x="104" y="575" type="line" smooth="yes"/>
      <point x="120" y="525" type="line" smooth="yes"/>
      <point x="149" y="475" type="line" smooth="yes"/>
      <point x="190" y="421" type="line" smooth="yes"/>
      <point x="133" y="382" type="line" smooth="yes"/>
      <point x="84" y="338" type="line" smooth="yes"/>
      <point x="48" y="284" type="line" smooth="yes"/>
      <point x="29" y="218" type="line" smooth="yes"/>
      <point x="27" y="202" type="line" smooth="yes"/>
      <point x="33" y="112" type="line" smooth="yes"/>
      <point x="73" y="45" type="line" smooth="yes"/>
      <point x="142" y="4" type="line" smooth="yes"/>
    </contour>
  </outline>
</glyph>
<glyph name="parenright" format="1">
  <advance width="298"/>
  <unicode hex="0029"/>
  <outline>
    <contour>
      <point x="245" y="370" type="line" smooth="yes"/>
      <point x="249" y="514" type="line" smooth="yes"/>
      <point x="228" y="638" type="line" smooth="yes"/>
      <point x="192" y="745" type="line" smooth="yes"/>
      <point x="149" y="840" type="line" smooth="yes"/>
      <point x="104" y="840" type="line" smooth="yes"/>
      <point x="151" y="741" type="line" smooth="yes"/>
      <point x="188" y="634" type="line" smooth="yes"/>
      <point x="208" y="513" type="line" smooth="yes"/>
      <point x="204" y="370" type="line" smooth="yes"/>
      <point x="201" y="346" type="line" smooth="yes"/>
      <point x="168" y="195" type="line" smooth="yes"/>
      <point x="115" y="70" type="line" smooth="yes"/>
      <point x="48" y="-33" type="line" smooth="yes"/>
      <point x="-25" y="-120" type="line" smooth="yes"/>
      <point x="21" y="-120" type="line" smooth="yes"/>
      <point x="84" y="-47" type="line" smooth="yes"/>
      <point x="150" y="53" type="line" smooth="yes"/>
      <point x="206" y="184" type="line" smooth="yes"/>
      <point x="242" y="346" type="line" smooth="yes"/>
    </contour>
  </outline>
</glyph>
<glyph name="zero" format="1">
  <advance width="596"/>
  <unicode hex="0030"/>
  <outline>
    <contour>
      <point x="474" y="237" type="line" smooth="yes"/>
      <point x="454" y="145" type="line" smooth="yes"/>
      <point x="416" y="80" type="line" smooth="yes"/>
      <point x="355" y="41" type="line" smooth="yes"/>
      <point x="264" y="28" type="line" smooth="yes"/>
      <point x="258" y="28" type="line" smooth="yes"/>
      <point x="169" y="42" type="line" smooth="yes"/>
      <point x="114" y="82" type="line" smooth="yes"/>
      <point x="88" y="147" type="line" smooth="yes"/>
      <point x="89" y="235" type="line" smooth="yes"/>
      <point x="130" y="543" type="line" smooth="yes"/>
      <point x="150" y="635" type="line" smooth="yes"/>
      <point x="188" y="700" type="line" smooth="yes"/>
      <point x="249" y="739" type="line" smooth="yes"/>
      <point x="340" y="752" type="line" smooth="yes"/>
      <point x="346" y="752" type="line" smooth="yes"/>
      <point x="435" y="738" type="line" smooth="yes"/>
      <point x="490" y="698" type="line" smooth="yes"/>
      <point x="516" y="633" type="line" smooth="yes"/>
      <point x="515" y="545" type="line" smooth="yes"/>
    </contour>
    <contour>
      <point x="556" y="555" type="line" smooth="yes"/>
      <point x="555" y="650" type="line" smooth="yes"/>
      <point x="522" y="724" type="line" smooth="yes"/>
      <point x="453" y="773" type="line" smooth="yes"/>
      <point x="343" y="790" type="line" smooth="yes"/>
      <point x="234" y="775" type="line" smooth="yes"/>
      <point x="161" y="730" type="line" smooth="yes"/>
      <point x="115" y="656" type="line" smooth="yes"/>
      <point x="92" y="555" type="line" smooth="yes"/>
      <point x="48" y="225" type="line" smooth="yes"/>
      <point x="49" y="130" type="line" smooth="yes"/>
      <point x="82" y="56" type="line" smooth="yes"/>
      <point x="151" y="7" type="line" smooth="yes"/>
      <point x="261" y="-10" type="line" smooth="yes"/>
      <point x="370" y="5" type="line" smooth="yes"/>
      <point x="444" y="51" type="line" smooth="yes"/>
      <point x="489" y="124" type="line" smooth="yes"/>
      <point x="512" y="225" type="line" smooth="yes"/>
    </contour>
  </outline>
</glyph>
<glyph name="two" format="1">
  <advance width="598"/>
  <unicode hex="0032"/>
  <outline>
    <contour>
      <point x="163" y="40" type="line" smooth="yes"/>
      <point x="87" y="39" type="line" smooth="yes"/>
      <point x="450" y="375" type="line" smooth="yes"/>
      <point x="502" y="427" type="line" smooth="yes"/>
      <point x="535" y="471" type="line" smooth="yes"/>
      <point x="555" y="517" type="line" smooth="yes"/>
      <point x="566" y="573" type="line" smooth="yes"/>
      <point x="567" y="581" type="line" smooth="yes"/>
      <point x="559" y="669" type="line" smooth="yes"/>
      <point x="516" y="734" type="line" smooth="yes"/>
      <point x="441" y="776" type="line" smooth="yes"/>
      <point x="342" y="790" type="line" smooth="yes"/>
      <point x="234" y="773" type="line" smooth="yes"/>
      <point x="157" y="724" type="line" smooth="yes"/>
      <point x="108" y="647" type="line" smooth="yes"/>
      <point x="82" y="543" type="line" smooth="yes"/>
      <point x="79" y="520" type="line" smooth="yes"/>
      <point x="119" y="520" type="line" smooth="yes"/>
      <point x="144" y="625" type="line" smooth="yes"/>
      <point x="187" y="698" type="line" smooth="yes"/>
      <point x="252" y="739" type="line" smooth="yes"/>
      <point x="339" y="752" type="line" smooth="yes"/>
      <point x="345" y="752" type="line" smooth="yes"/>
      <point x="424" y="739" type="line" smooth="yes"/>
      <point x="484" y="704" type="line" smooth="yes"/>
      <point x="519" y="649" type="line" smooth="yes"/>
      <point x="525" y="577" type="line" smooth="yes"/>
      <point x="524" y="569" type="line" smooth="yes"/>
      <point x="514" y="522" type="line" smooth="yes"/>
      <point x="495" y="483" type="line" smooth="yes"/>
      <point x="462" y="442" type="line" smooth="yes"/>
      <point x="412" y="393" type="line" smooth="yes"/>
      <point x="14" y="25" type="line" smooth="yes"/>
      <point x="11" y="0" type="line" smooth="yes"/>
      <point x="491" y="0" type="line" smooth="yes"/>
      <point x="496" y="40" type="line" smooth="yes"/>
    </contour>
  </outline>
</glyph>
<glyph name="three" format="1">
  <advance width="598"/>
  <unicode hex="0033"/>
  <outline>
    <contour>
      <point x="78" y="250" type="line" smooth="yes"/>
      <point x="38" y="250" type="line" smooth="yes"/>
      <point x="37" y="242" type="line" smooth="yes"/>
      <point x="40" y="139" type="line" smooth="yes"/>
      <point x="77" y="59" type="line" smooth="yes"/>
      <point x="152" y="8" type="line" smooth="yes"/>
      <point x="265" y="-10" type="line" smooth="yes"/>
      <point x="355" y="4" type="line" smooth="yes"/>
      <point x="433" y="45" type="line" smooth="yes"/>
      <point x="491" y="111" type="line" smooth="yes"/>
      <point x="521" y="200" type="line" smooth="yes"/>
      <point x="522" y="208" type="line" smooth="yes"/>
      <point x="520" y="278" type="line" smooth="yes"/>
      <point x="498" y="333" type="line" smooth="yes"/>
      <point x="458" y="373" type="line" smooth="yes"/>
      <point x="402" y="397" type="line" smooth="yes"/>
      <point x="461" y="419" type="line" smooth="yes"/>
      <point x="511" y="456" type="line" smooth="yes"/>
      <point x="547" y="508" type="line" smooth="yes"/>
      <point x="566" y="574" type="line" smooth="yes"/>
      <point x="567" y="582" type="line" smooth="yes"/>
      <point x="559" y="670" type="line" smooth="yes"/>
      <point x="516" y="735" type="line" smooth="yes"/>
      <point x="441" y="776" type="line" smooth="yes"/>
      <point x="342" y="790" type="line" smooth="yes"/>
      <point x="234" y="773" type="line" smooth="yes"/>
      <point x="157" y="724" type="line" smooth="yes"/>
      <point x="108" y="647" type="line" smooth="yes"/>
      <point x="82" y="543" type="line" smooth="yes"/>
      <point x="79" y="520" type="line" smooth="yes"/>
      <point x="119" y="520" type="line" smooth="yes"/>
      <point x="144" y="625" type="line" smooth="yes"/>
      <point x="187" y="698" type="line" smooth="yes"/>
      <point x="252" y="739" type="line" smooth="yes"/>
      <point x="339" y="752" type="line" smooth="yes"/>
      <point x="345" y="752" type="line" smooth="yes"/>
      <point x="424" y="740" type="line" smooth="yes"/>
      <point x="484" y="706" type="line" smooth="yes"/>
      <point x="519" y="652" type="line" smooth="yes"/>
      <point x="525" y="581" type="line" smooth="yes"/>
      <point x="524" y="573" type="line" smooth="yes"/>
      <point x="501" y="503" type="line" smooth="yes"/>
      <point x="455" y="454" type="line" smooth="yes"/>
      <point x="393" y="426" type="line" smooth="yes"/>
      <point x="317" y="417" type="line" smooth="yes"/>
      <point x="205" y="417" type="line" smooth="yes"/>
      <point x="200" y="379" type="line" smooth="yes"/>
      <point x="317" y="379" type="line" smooth="yes"/>
      <point x="390" y="368" type="line" smooth="yes"/>
      <point x="445" y="336" type="line" smooth="yes"/>
      <point x="476" y="282" type="line" smooth="yes"/>
      <point x="480" y="207" type="line" smooth="yes"/>
      <point x="479" y="199" type="line" smooth="yes"/>
      <point x="454" y="124" type="line" smooth="yes"/>
      <point x="405" y="70" type="line" smooth="yes"/>
      <point x="340" y="39" type="line" smooth="yes"/>
      <point x="265" y="28" type="line" smooth="yes"/>
      <point x="259" y="28" type="line" smooth="yes"/>
      <point x="172" y="41" type="line" smooth="yes"/>
      <point x="112" y="82" type="line" smooth="yes"/>
      <point x="80" y="152" type="line" smooth="yes"/>
    </contour>
  </outline>
</glyph>
<glyph name="five" format="1">
  <advance width="600"/>
  <unicode hex="0035"/>
  <outline>
    <contour>
      <point x="38" y="250" type="line" smooth="yes"/>
      <point x="37" y="242" type="line" smooth="yes"/>
      <point x="40" y="139" type="line" smooth="yes"/>
      <point x="77" y="59" type="line" smooth="yes"/>
      <point x="152" y="8" type="line" smooth="yes"/>
      <point x="265" y="-10" type="line" smooth="yes"/>
      <point x="358" y="5" type="line" smooth="yes"/>
      <point x="438" y="50" type="line" smooth="yes"/>
      <point x="496" y="125" type="line" smooth="yes"/>
      <point x="527" y="232" type="line" smooth="yes"/>
      <point x="528" y="240" type="line" smooth="yes"/>
      <point x="521" y="348" type="line" smooth="yes"/>
      <point x="475" y="426" type="line" smooth="yes"/>
      <point x="400" y="474" type="line" smooth="yes"/>
      <point x="303" y="490" type="line" smooth="yes"/>
      <point x="242" y="484" type="line" smooth="yes"/>
      <point x="187" y="469" type="line" smooth="yes"/>
      <point x="142" y="444" type="line" smooth="yes"/>
      <point x="109" y="414" type="line" smooth="yes"/>
      <point x="166" y="740" type="line" smooth="yes"/>
      <point x="583" y="740" type="line" smooth="yes"/>
      <point x="588" y="780" type="line" smooth="yes"/>
      <point x="133" y="780" type="line" smooth="yes"/>
      <point x="57" y="345" type="line" smooth="yes"/>
      <point x="89" y="336" type="line" smooth="yes"/>
      <point x="128" y="389" type="line" smooth="yes"/>
      <point x="177" y="425" type="line" smooth="yes"/>
      <point x="235" y="445" type="line" smooth="yes"/>
      <point x="298" y="452" type="line" smooth="yes"/>
      <point x="308" y="452" type="line" smooth="yes"/>
      <point x="385" y="439" type="line" smooth="yes"/>
      <point x="445" y="398" type="line" smooth="yes"/>
      <point x="481" y="332" type="line" smooth="yes"/>
      <point x="486" y="239" type="line" smooth="yes"/>
      <point x="485" y="231" type="line" smooth="yes"/>
      <point x="458" y="140" type="line" smooth="yes"/>
      <point x="409" y="77" type="line" smooth="yes"/>
      <point x="343" y="40" type="line" smooth="yes"/>
      <point x="265" y="28" type="line" smooth="yes"/>
      <point x="259" y="28" type="line" smooth="yes"/>
      <point x="172" y="41" type="line" smooth="yes"/>
      <point x="112" y="82" type="line" smooth="yes"/>
      <point x="80" y="152" type="line" smooth="yes"/>
      <point x="78" y="250" type="line" smooth="yes"/>
    </contour>
  </outline>
</glyph>
<glyph name="six" format="1">
  <advance width="600"/>
  <unicode hex="0036"/>
  <outline>
    <contour>
      <point x="316" y="450" type="line" smooth="yes"/>
      <point x="396" y="435" type="line" smooth="yes"/>
      <point x="454" y="394" type="line" smooth="yes"/>
      <point x="486" y="328" type="line" smooth="yes"/>
      <point x="490" y="240" type="line" smooth="yes"/>
      <point x="489" y="232" type="line" smooth="yes"/>
      <point x="466" y="146" type="line" smooth="yes"/>
      <point x="421" y="82" type="line" smooth="yes"/>
      <point x="356" y="43" type="line" smooth="yes"/>
      <point x="272" y="30" type="line" smooth="yes"/>
      <point x="266" y="30" type="line" smooth="yes"/>
      <point x="189" y="42" type="line" smooth="yes"/>
      <point x="128" y="82" type="line" smooth="yes"/>
      <point x="92" y="153" type="line" smooth="yes"/>
      <point x="85" y="260" type="line" smooth="yes"/>
      <point x="88" y="284" type="line" smooth="yes"/>
      <point x="91" y="304" type="line" smooth="yes"/>
      <point x="94" y="318" type="line" smooth="yes"/>
      <point x="95" y="323" type="line" smooth="yes"/>
      <point x="136" y="375" type="line" smooth="yes"/>
      <point x="185" y="415" type="line" smooth="yes"/>
      <point x="244" y="441" type="line" smooth="yes"/>
      <point x="310" y="450" type="line" smooth="yes"/>
    </contour>
    <contour>
      <point x="570" y="790" type="line" smooth="yes"/>
      <point x="483" y="781" type="line" smooth="yes"/>
      <point x="389" y="753" type="line" smooth="yes"/>
      <point x="293" y="704" type="line" smooth="yes"/>
      <point x="204" y="629" type="line" smooth="yes"/>
      <point x="138" y="546" type="line" smooth="yes"/>
      <point x="92" y="458" type="line" smooth="yes"/>
      <point x="63" y="367" type="line" smooth="yes"/>
      <point x="46" y="275" type="line" smooth="yes"/>
      <point x="45" y="267" type="line" smooth="yes"/>
      <point x="49" y="148" type="line" smooth="yes"/>
      <point x="93" y="61" type="line" smooth="yes"/>
      <point x="168" y="8" type="line" smooth="yes"/>
      <point x="269" y="-10" type="line" smooth="yes"/>
      <point x="364" y="4" type="line" smooth="yes"/>
      <point x="443" y="49" type="line" smooth="yes"/>
      <point x="500" y="124" type="line" smooth="yes"/>
      <point x="531" y="233" type="line" smooth="yes"/>
      <point x="532" y="241" type="line" smooth="yes"/>
      <point x="526" y="351" type="line" smooth="yes"/>
      <point x="483" y="429" type="line" smooth="yes"/>
      <point x="410" y="475" type="line" smooth="yes"/>
      <point x="313" y="490" type="line" smooth="yes"/>
      <point x="253" y="483" type="line" smooth="yes"/>
      <point x="197" y="463" type="line" smooth="yes"/>
      <point x="148" y="433" type="line" smooth="yes"/>
      <point x="112" y="396" type="line" smooth="yes"/>
      <point x="133" y="449" type="line" smooth="yes"/>
      <point x="160" y="502" type="line" smooth="yes"/>
      <point x="193" y="554" type="line" smooth="yes"/>
      <point x="234" y="603" type="line" smooth="yes"/>
      <point x="318" y="673" type="line" smooth="yes"/>
      <point x="407" y="718" type="line" smooth="yes"/>
      <point x="491" y="743" type="line" smooth="yes"/>
      <point x="564" y="750" type="line" smooth="yes"/>
    </contour>
  </outline>
</glyph>
<glyph name="eight" format="1">
  <advance width="598"/>
  <unicode hex="0038"/>
  <outline>
    <contour>
      <point x="345" y="752" type="line" smooth="yes"/>
      <point x="424" y="740" type="line" smooth="yes"/>
      <point x="484" y="706" type="line" smooth="yes"/>
      <point x="519" y="652" type="line" smooth="yes"/>
      <point x="525" y="581" type="line" smooth="yes"/>
      <point x="524" y="573" type="line" smooth="yes"/>
      <point x="500" y="503" type="line" smooth="yes"/>
      <point x="454" y="454" type="line" smooth="yes"/>
      <point x="391" y="426" type="line" smooth="yes"/>
      <point x="317" y="417" type="line" smooth="yes"/>
      <point x="293" y="417" type="line" smooth="yes"/>
      <point x="222" y="427" type="line" smooth="yes"/>
      <point x="167" y="456" type="line" smooth="yes"/>
      <point x="134" y="506" type="line" smooth="yes"/>
      <point x="129" y="577" type="line" smooth="yes"/>
      <point x="130" y="585" type="line" smooth="yes"/>
      <point x="152" y="655" type="line" smooth="yes"/>
      <point x="196" y="708" type="line" smooth="yes"/>
      <point x="259" y="741" type="line" smooth="yes"/>
      <point x="339" y="752" type="line" smooth="yes"/>
    </contour>
    <contour>
      <point x="310" y="379" type="line" smooth="yes"/>
      <point x="385" y="368" type="line" smooth="yes"/>
      <point x="441" y="336" type="line" smooth="yes"/>
      <point x="475" y="282" type="line" smooth="yes"/>
      <point x="480" y="207" type="line" smooth="yes"/>
      <point x="479" y="199" type="line" smooth="yes"/>
      <point x="455" y="124" type="line" smooth="yes"/>
      <point x="407" y="71" type="line" smooth="yes"/>
      <point x="342" y="39" type="line" smooth="yes"/>
      <point x="268" y="28" type="line" smooth="yes"/>
      <point x="258" y="28" type="line" smooth="yes"/>
      <point x="181" y="38" type="line" smooth="yes"/>
      <point x="120" y="69" type="line" smooth="yes"/>
      <point x="82" y="122" type="line" smooth="yes"/>
      <point x="75" y="199" type="line" smooth="yes"/>
      <point x="76" y="207" type="line" smooth="yes"/>
      <point x="99" y="281" type="line" smooth="yes"/>
      <point x="146" y="335" type="line" smooth="yes"/>
      <point x="211" y="368" type="line" smooth="yes"/>
      <point x="290" y="379" type="line" smooth="yes"/>
    </contour>
    <contour>
      <point x="258" y="-10" type="line" smooth="yes"/>
      <point x="353" y="4" type="line" smooth="yes"/>
      <point x="433" y="45" type="line" smooth="yes"/>
      <point x="491" y="111" type="line" smooth="yes"/>
      <point x="521" y="200" type="line" smooth="yes"/>
      <point x="522" y="208" type="line" smooth="yes"/>
      <point x="521" y="277" type="line" smooth="yes"/>
      <point x="499" y="333" type="line" smooth="yes"/>
      <point x="458" y="373" type="line" smooth="yes"/>
      <point x="402" y="397" type="line" smooth="yes"/>
      <point x="461" y="419" type="line" smooth="yes"/>
      <point x="511" y="456" type="line" smooth="yes"/>
      <point x="547" y="508" type="line" smooth="yes"/>
      <point x="566" y="574" type="line" smooth="yes"/>
      <point x="567" y="582" type="line" smooth="yes"/>
      <point x="559" y="669" type="line" smooth="yes"/>
      <point x="516" y="735" type="line" smooth="yes"/>
      <point x="441" y="776" type="line" smooth="yes"/>
      <point x="342" y="790" type="line" smooth="yes"/>
      <point x="243" y="776" type="line" smooth="yes"/>
      <point x="166" y="736" type="line" smooth="yes"/>
      <point x="114" y="671" type="line" smooth="yes"/>
      <point x="88" y="584" type="line" smooth="yes"/>
      <point x="87" y="576" type="line" smooth="yes"/>
      <point x="90" y="509" type="line" smooth="yes"/>
      <point x="115" y="456" type="line" smooth="yes"/>
      <point x="155" y="418" type="line" smooth="yes"/>
      <point x="204" y="399" type="line" smooth="yes"/>
      <point x="146" y="377" type="line" smooth="yes"/>
      <point x="95" y="340" type="line" smooth="yes"/>
      <point x="56" y="285" type="line" smooth="yes"/>
      <point x="34" y="206" type="line" smooth="yes"/>
      <point x="33" y="198" type="line" smooth="yes"/>
      <point x="41" y="109" type="line" smooth="yes"/>
      <point x="87" y="44" type="line" smooth="yes"/>
      <point x="162" y="4" type="line" smooth="yes"/>
    </contour>
  </outline>
</glyph>
<glyph name="nine" format="1">
  <advance width="596"/>
  <unicode hex="0039"/>
  <outline>
    <contour>
      <point x="287" y="330" type="line" smooth="yes"/>
      <point x="207" y="345" type="line" smooth="yes"/>
      <point x="149" y="386" type="line" smooth="yes"/>
      <point x="117" y="452" type="line" smooth="yes"/>
      <point x="113" y="540" type="line" smooth="yes"/>
      <point x="114" y="548" type="line" smooth="yes"/>
      <point x="137" y="634" type="line" smooth="yes"/>
      <point x="182" y="698" type="line" smooth="yes"/>
      <point x="247" y="737" type="line" smooth="yes"/>
      <point x="331" y="750" type="line" smooth="yes"/>
      <point x="337" y="750" type="line" smooth="yes"/>
      <point x="415" y="738" type="line" smooth="yes"/>
      <point x="475" y="698" type="line" smooth="yes"/>
      <point x="511" y="627" type="line" smooth="yes"/>
      <point x="518" y="520" type="line" smooth="yes"/>
      <point x="515" y="496" type="line" smooth="yes"/>
      <point x="512" y="476" type="line" smooth="yes"/>
      <point x="509" y="462" type="line" smooth="yes"/>
      <point x="508" y="457" type="line" smooth="yes"/>
      <point x="467" y="405" type="line" smooth="yes"/>
      <point x="418" y="365" type="line" smooth="yes"/>
      <point x="360" y="339" type="line" smooth="yes"/>
      <point x="293" y="330" type="line" smooth="yes"/>
    </contour>
    <contour>
      <point x="33" y="-10" type="line" smooth="yes"/>
      <point x="120" y="-1" type="line" smooth="yes"/>
      <point x="215" y="27" type="line" smooth="yes"/>
      <point x="310" y="76" type="line" smooth="yes"/>
      <point x="399" y="151" type="line" smooth="yes"/>
      <point x="465" y="234" type="line" smooth="yes"/>
      <point x="511" y="322" type="line" smooth="yes"/>
      <point x="540" y="413" type="line" smooth="yes"/>
      <point x="557" y="505" type="line" smooth="yes"/>
      <point x="558" y="513" type="line" smooth="yes"/>
      <point x="554" y="632" type="line" smooth="yes"/>
      <point x="510" y="719" type="line" smooth="yes"/>
      <point x="435" y="772" type="line" smooth="yes"/>
      <point x="334" y="790" type="line" smooth="yes"/>
      <point x="239" y="776" type="line" smooth="yes"/>
      <point x="160" y="732" type="line" smooth="yes"/>
      <point x="103" y="656" type="line" smooth="yes"/>
      <point x="72" y="547" type="line" smooth="yes"/>
      <point x="71" y="539" type="line" smooth="yes"/>
      <point x="77" y="429" type="line" smooth="yes"/>
      <point x="120" y="352" type="line" smooth="yes"/>
      <point x="193" y="305" type="line" smooth="yes"/>
      <point x="290" y="290" type="line" smooth="yes"/>
      <point x="350" y="297" type="line" smooth="yes"/>
      <point x="406" y="318" type="line" smooth="yes"/>
      <point x="455" y="347" type="line" smooth="yes"/>
      <point x="491" y="384" type="line" smooth="yes"/>
      <point x="470" y="331" type="line" smooth="yes"/>
      <point x="443" y="278" type="line" smooth="yes"/>
      <point x="410" y="226" type="line" smooth="yes"/>
      <point x="369" y="177" type="line" smooth="yes"/>
      <point x="285" y="107" type="line" smooth="yes"/>
      <point x="197" y="62" type="line" smooth="yes"/>
      <point x="112" y="37" type="line" smooth="yes"/>
      <point x="39" y="30" type="line" smooth="yes"/>
    </contour>
  </outline>
</glyph>
<glyph name="semicolon" format="1">
  <advance width="200"/>
  <unicode hex="003B"/>
  <outline>
    <contour>
      <point x="136" y="420" type="line" smooth="yes"/>
      <point x="76" y="420" type="line" smooth="yes"/>
      <point x="68" y="360" type="line" smooth="yes"/>
      <point x="128" y="360" type="line" smooth="yes"/>
    </contour>
    <contour>
      <point x="88" y="60" type="line" smooth="yes"/>
      <point x="28" y="60" type="line" smooth="yes"/>
      <point x="21" y="0" type="line" smooth="yes"/>
      <point x="51" y="0" type="line" smooth="yes"/>
      <point x="41" y="-39" type="line" smooth="yes"/>
      <point x="26" y="-63" type="line" smooth="yes"/>
      <point x="6" y="-76" type="line" smooth="yes"/>
      <point x="-20" y="-80" type="line" smooth="yes"/>
      <point x="-24" y="-110" type="line" smooth="yes"/>
      <point x="16" y="-102" type="line" smooth="yes"/>
      <point x="47" y="-80" type="line" smooth="yes"/>
      <point x="69" y="-42" type="line" smooth="yes"/>
      <point x="82" y="12" type="line" smooth="yes"/>
    </contour>
  </outline>
</glyph>
<glyph name="question" format="1">
  <advance width="440"/>
  <unicode hex="003F"/>
  <outline>
    <contour>
      <point x="208" y="60" type="line" smooth="yes"/>
      <point x="148" y="60" type="line" smooth="yes"/>
      <point x="141" y="0" type="line" smooth="yes"/>
      <point x="201" y="0" type="line" smooth="yes"/>
    </contour>
    <contour>
      <point x="267" y="752" type="line" smooth="yes"/>
      <point x="326" y="744" type="line" smooth="yes"/>
      <point x="366" y="719" type="line" smooth="yes"/>
      <point x="389" y="677" type="line" smooth="yes"/>
      <point x="396" y="620" type="line" smooth="yes"/>
      <point x="365" y="493" type="line" smooth="yes"/>
      <point x="297" y="401" type="line" smooth="yes"/>
      <point x="224" y="308" type="line" smooth="yes"/>
      <point x="182" y="175" type="line" smooth="yes"/>
      <point x="206" y="175" type="line" smooth="yes"/>
      <point x="257" y="305" type="line" smooth="yes"/>
      <point x="335" y="394" type="line" smooth="yes"/>
      <point x="407" y="487" type="line" smooth="yes"/>
      <point x="438" y="630" type="line" smooth="yes"/>
      <point x="428" y="697" type="line" smooth="yes"/>
      <point x="397" y="747" type="line" smooth="yes"/>
      <point x="344" y="779" type="line" smooth="yes"/>
      <point x="267" y="790" type="line" smooth="yes"/>
      <point x="172" y="770" type="line" smooth="yes"/>
      <point x="110" y="715" type="line" smooth="yes"/>
      <point x="70" y="627" type="line" smooth="yes"/>
      <point x="46" y="513" type="line" smooth="yes"/>
      <point x="44" y="500" type="line" smooth="yes"/>
      <point x="84" y="500" type="line" smooth="yes"/>
      <point x="104" y="603" type="line" smooth="yes"/>
      <point x="137" y="683" type="line" smooth="yes"/>
      <point x="189" y="734" type="line" smooth="yes"/>
    </contour>
  </outline>
</glyph>
<glyph name="at" format="1">
  <advance width="945"/>
  <unicode hex="0040"/>
  <outline>
    <contour>
      <point x="614" y="410" type="line" smooth="yes"/>
      <point x="584" y="180" type="line" smooth="yes"/>
      <point x="557" y="149" type="line" smooth="yes"/>
      <point x="520" y="119" type="line" smooth="yes"/>
      <point x="475" y="97" type="line" smooth="yes"/>
      <point x="422" y="88" type="line" smooth="yes"/>
      <point x="351" y="103" type="line" smooth="yes"/>
      <point x="305" y="145" type="line" smooth="yes"/>
      <point x="283" y="207" type="line" smooth="yes"/>
      <point x="285" y="285" type="line" smooth="yes"/>
      <point x="288" y="305" type="line" smooth="yes"/>
      <point x="309" y="383" type="line" smooth="yes"/>
      <point x="347" y="445" type="line" smooth="yes"/>
      <point x="402" y="487" type="line" smooth="yes"/>
      <point x="477" y="502" type="line" smooth="yes"/>
      <point x="527" y="493" type="line" smooth="yes"/>
      <point x="567" y="471" type="line" smooth="yes"/>
      <point x="595" y="441" type="line" smooth="yes"/>
    </contour>
    <contour>
      <point x="425" y="-172" type="line" smooth="yes"/>
      <point x="259" y="-143" type="line" smooth="yes"/>
      <point x="137" y="-58" type="line" smooth="yes"/>
      <point x="68" y="81" type="line" smooth="yes"/>
      <point x="61" y="270" type="line" smooth="yes"/>
      <point x="66" y="310" type="line" smooth="yes"/>
      <point x="120" y="495" type="line" smooth="yes"/>
      <point x="223" y="634" type="line" smooth="yes"/>
      <point x="367" y="722" type="line" smooth="yes"/>
      <point x="540" y="752" type="line" smooth="yes"/>
      <point x="546" y="752" type="line" smooth="yes"/>
      <point x="685" y="731" type="line" smooth="yes"/>
      <point x="797" y="664" type="line" smooth="yes"/>
      <point x="865" y="550" type="line" smooth="yes"/>
      <point x="874" y="385" type="line" smooth="yes"/>
      <point x="870" y="355" type="line" smooth="yes"/>
      <point x="835" y="220" type="line" smooth="yes"/>
      <point x="778" y="143" type="line" smooth="yes"/>
      <point x="703" y="107" type="line" smooth="yes"/>
      <point x="613" y="97" type="line" smooth="yes"/>
      <point x="651" y="380" type="line" smooth="yes"/>
      <point x="675" y="530" type="line" smooth="yes"/>
      <point x="645" y="530" type="line" smooth="yes"/>
      <point x="625" y="453" type="line" smooth="yes"/>
      <point x="604" y="486" type="line" smooth="yes"/>
      <point x="573" y="514" type="line" smooth="yes"/>
      <point x="530" y="533" type="line" smooth="yes"/>
      <point x="475" y="540" type="line" smooth="yes"/>
      <point x="381" y="520" type="line" smooth="yes"/>
      <point x="313" y="467" type="line" smooth="yes"/>
      <point x="269" y="392" type="line" smooth="yes"/>
      <point x="246" y="305" type="line" smooth="yes"/>
      <point x="243" y="285" type="line" smooth="yes"/>
      <point x="242" y="199" type="line" smooth="yes"/>
      <point x="267" y="123" type="line" smooth="yes"/>
      <point x="324" y="70" type="line" smooth="yes"/>
      <point x="414" y="50" type="line" smooth="yes"/>
      <point x="470" y="57" type="line" smooth="yes"/>
      <point x="517" y="76" type="line" smooth="yes"/>
      <point x="554" y="104" type="line" smooth="yes"/>
      <point x="583" y="136" type="line" smooth="yes"/>
      <point x="583" y="60" type="line" smooth="yes"/>
      <point x="608" y="60" type="line" smooth="yes"/>
      <point x="716" y="72" type="line" smooth="yes"/>
      <point x="806" y="118" type="line" smooth="yes"/>
      <point x="873" y="208" type="line" smooth="yes"/>
      <point x="912" y="355" type="line" smooth="yes"/>
      <point x="916" y="385" type="line" smooth="yes"/>
      <point x="905" y="562" type="line" smooth="yes"/>
      <point x="828" y="689" type="line" smooth="yes"/>
      <point x="701" y="765" type="line" smooth="yes"/>
      <point x="540" y="790" type="line" smooth="yes"/>
      <point x="349" y="757" type="line" smooth="yes"/>
      <point x="194" y="663" type="line" smooth="yes"/>
      <point x="84" y="512" type="line" smooth="yes"/>
      <point x="26" y="310" type="line" smooth="yes"/>
      <point x="21" y="270" type="line" smooth="yes"/>
      <point x="28" y="68" type="line" smooth="yes"/>
      <point x="103" y="-83" type="line" smooth="yes"/>
      <point x="238" y="-177" type="line" smooth="yes"/>
      <point x="428" y="-210" type="line" smooth="yes"/>
      <point x="518" y="-205" type="line" smooth="yes"/>
      <point x="610" y="-188" type="line" smooth="yes"/>
      <point x="702" y="-154" type="line" smooth="yes"/>
      <point x="791" y="-100" type="line" smooth="yes"/>
      <point x="772" y="-68" type="line" smooth="yes"/>
      <point x="692" y="-115" type="line" smooth="yes"/>
      <point x="608" y="-148" type="line" smooth="yes"/>
      <point x="521" y="-166" type="line" smooth="yes"/>
      <point x="431" y="-172" type="line" smooth="yes"/>
    </contour>
  </outline>
</glyph>
<glyph name="B" format="1">
  <advance width="567"/>
  <unicode hex="0042"/>
  <outline>
    <contour>
      <point x="320" y="742" type="line" smooth="yes"/>
      <point x="390" y="733" type="line" smooth="yes"/>
      <point x="442" y="706" type="line" smooth="yes"/>
      <point x="472" y="658" type="line" smooth="yes"/>
      <point x="476" y="588" type="line" smooth="yes"/>
      <point x="473" y="564" type="line" smooth="yes"/>
      <point x="450" y="496" type="line" smooth="yes"/>
      <point x="405" y="451" type="line" smooth="yes"/>
      <point x="347" y="427" type="line" smooth="yes"/>
      <point x="280" y="420" type="line" smooth="yes"/>
      <point x="126" y="420" type="line" smooth="yes"/>
      <point x="168" y="742" type="line" smooth="yes"/>
    </contour>
    <contour>
      <point x="298" y="382" type="line" smooth="yes"/>
      <point x="362" y="371" type="line" smooth="yes"/>
      <point x="412" y="339" type="line" smooth="yes"/>
      <point x="443" y="286" type="line" smooth="yes"/>
      <point x="447" y="211" type="line" smooth="yes"/>
      <point x="444" y="187" type="line" smooth="yes"/>
      <point x="420" y="116" type="line" smooth="yes"/>
      <point x="374" y="70" type="line" smooth="yes"/>
      <point x="312" y="45" type="line" smooth="yes"/>
      <point x="238" y="38" type="line" smooth="yes"/>
      <point x="76" y="38" type="line" smooth="yes"/>
      <point x="121" y="382" type="line" smooth="yes"/>
    </contour>
    <contour>
      <point x="133" y="780" type="line" smooth="yes"/>
      <point x="31" y="0" type="line" smooth="yes"/>
      <point x="235" y="0" type="line" smooth="yes"/>
      <point x="328" y="11" type="line" smooth="yes"/>
      <point x="404" y="44" type="line" smooth="yes"/>
      <point x="458" y="102" type="line" smooth="yes"/>
      <point x="486" y="187" type="line" smooth="yes"/>
      <point x="489" y="211" type="line" smooth="yes"/>
      <point x="486" y="282" type="line" smooth="yes"/>
      <point x="461" y="340" type="line" smooth="yes"/>
      <point x="417" y="381" type="line" smooth="yes"/>
      <point x="360" y="401" type="line" smooth="yes"/>
      <point x="415" y="419" type="line" smooth="yes"/>
      <point x="462" y="453" type="line" smooth="yes"/>
      <point x="496" y="501" type="line" smooth="yes"/>
      <point x="515" y="564" type="line" smooth="yes"/>
      <point x="518" y="588" type="line" smooth="yes"/>
      <point x="513" y="672" type="line" smooth="yes"/>
      <point x="475" y="732" type="line" smooth="yes"/>
      <point x="409" y="768" type="line" smooth="yes"/>
      <point x="320" y="780" type="line" smooth="yes"/>
    </contour>
  </outline>
</glyph>
<glyph name="D" format="1">
  <advance width="623"/>
  <unicode hex="0044"/>
  <outline>
    <contour>
      <point x="76" y="38" type="line" smooth="yes"/>
      <point x="168" y="742" type="line" smooth="yes"/>
      <point x="317" y="742" type="line" smooth="yes"/>
      <point x="420" y="723" type="line" smooth="yes"/>
      <point x="492" y="664" type="line" smooth="yes"/>
      <point x="530" y="558" type="line" smooth="yes"/>
      <point x="528" y="402" type="line" smooth="yes"/>
      <point x="525" y="378" type="line" smooth="yes"/>
      <point x="486" y="222" type="line" smooth="yes"/>
      <point x="420" y="116" type="line" smooth="yes"/>
      <point x="330" y="57" type="line" smooth="yes"/>
      <point x="221" y="38" type="line" smooth="yes"/>
    </contour>
    <contour>
      <point x="570" y="402" type="line" smooth="yes"/>
      <point x="570" y="575" type="line" smooth="yes"/>
      <point x="523" y="692" type="line" smooth="yes"/>
      <point x="438" y="759" type="line" smooth="yes"/>
      <point x="320" y="780" type="line" smooth="yes"/>
      <point x="133" y="780" type="line" smooth="yes"/>
      <point x="31" y="0" type="line" smooth="yes"/>
      <point x="221" y="0" type="line" smooth="yes"/>
      <point x="344" y="21" type="line" smooth="yes"/>
      <point x="447" y="88" type="line" smooth="yes"/>
      <point x="523" y="205" type="line" smooth="yes"/>
      <point x="567" y="378" type="line" smooth="yes"/>
    </contour>
  </outline>
</glyph>
<glyph name="F" format="1">
  <advance width="500"/>
  <unicode hex="0046"/>
  <outline>
    <contour>
      <point x="133" y="780" type="line" smooth="yes"/>
      <point x="31" y="0" type="line" smooth="yes"/>
      <point x="71" y="0" type="line" smooth="yes"/>
      <point x="120" y="379" type="line" smooth="yes"/>
      <point x="430" y="379" type="line" smooth="yes"/>
      <point x="435" y="417" type="line" smooth="yes"/>
      <point x="125" y="417" type="line" smooth="yes"/>
      <point x="168" y="742" type="line" smooth="yes"/>
      <point x="528" y="742" type="line" smooth="yes"/>
      <point x="533" y="780" type="line" smooth="yes"/>
    </contour>
  </outline>
</glyph>
<glyph name="K" format="1">
  <advance width="540"/>
  <unicode hex="004B"/>
  <outline>
    <contour>
      <point x="173" y="780" type="line" smooth="yes"/>
      <point x="133" y="780" type="line" smooth="yes"/>
      <point x="31" y="0" type="line" smooth="yes"/>
      <point x="71" y="0" type="line" smooth="yes"/>
      <point x="103" y="246" type="line" smooth="yes"/>
      <point x="243" y="412" type="line" smooth="yes"/>
      <point x="407" y="0" type="line" smooth="yes"/>
      <point x="451" y="0" type="line" smooth="yes"/>
      <point x="271" y="445" type="line" smooth="yes"/>
      <point x="553" y="780" type="line" smooth="yes"/>
      <point x="503" y="780" type="line" smooth="yes"/>
      <point x="112" y="315" type="line" smooth="yes"/>
    </contour>
  </outline>
</glyph>
<glyph name="M" format="1">
  <advance width="780"/>
  <unicode hex="004D"/>
  <outline>
    <contour>
      <point x="707" y="710" type="line" smooth="yes"/>
      <point x="680" y="530" type="line" smooth="yes"/>
      <point x="611" y="0" type="line" smooth="yes"/>
      <point x="651" y="0" type="line" smooth="yes"/>
      <point x="753" y="780" type="line" smooth="yes"/>
      <point x="700" y="780" type="line" smooth="yes"/>
      <point x="348" y="68" type="line" smooth="yes"/>
      <point x="184" y="780" type="line" smooth="yes"/>
      <point x="133" y="780" type="line" smooth="yes"/>
      <point x="31" y="0" type="line" smooth="yes"/>
      <point x="71" y="0" type="line" smooth="yes"/>
      <point x="140" y="530" type="line" smooth="yes"/>
      <point x="161" y="710" type="line" smooth="yes"/>
      <point x="326" y="0" type="line" smooth="yes"/>
      <point x="356" y="0" type="line" smooth="yes"/>
    </contour>
  </outline>
</glyph>
<glyph name="Q" format="1">
  <advance width="637"/>
  <unicode hex="0051"/>
  <outline>
    <contour>
      <point x="280" y="213" type="line" smooth="yes"/>
      <point x="325" y="32" type="line" smooth="yes"/>
      <point x="313" y="30" type="line" smooth="yes"/>
      <point x="302" y="29" type="line" smooth="yes"/>
      <point x="291" y="28" type="line" smooth="yes"/>
      <point x="279" y="28" type="line" smooth="yes"/>
      <point x="273" y="28" type="line" smooth="yes"/>
      <point x="182" y="47" type="line" smooth="yes"/>
      <point x="124" y="108" type="line" smooth="yes"/>
      <point x="98" y="217" type="line" smooth="yes"/>
      <point x="105" y="378" type="line" smooth="yes"/>
      <point x="108" y="402" type="line" smooth="yes"/>
      <point x="141" y="561" type="line" smooth="yes"/>
      <point x="194" y="670" type="line" smooth="yes"/>
      <point x="268" y="732" type="line" smooth="yes"/>
      <point x="364" y="752" type="line" smooth="yes"/>
      <point x="370" y="752" type="line" smooth="yes"/>
      <point x="461" y="733" type="line" smooth="yes"/>
      <point x="519" y="672" type="line" smooth="yes"/>
      <point x="545" y="563" type="line" smooth="yes"/>
      <point x="538" y="402" type="line" smooth="yes"/>
      <point x="535" y="378" type="line" smooth="yes"/>
      <point x="510" y="249" type="line" smooth="yes"/>
      <point x="474" y="151" type="line" smooth="yes"/>
      <point x="425" y="83" type="line" smooth="yes"/>
      <point x="363" y="43" type="line" smooth="yes"/>
      <point x="320" y="213" type="line" smooth="yes"/>
    </contour>
    <contour>
      <point x="580" y="402" type="line" smooth="yes"/>
      <point x="586" y="580" type="line" smooth="yes"/>
      <point x="551" y="701" type="line" smooth="yes"/>
      <point x="478" y="769" type="line" smooth="yes"/>
      <point x="367" y="790" type="line" smooth="yes"/>
      <point x="253" y="768" type="line" smooth="yes"/>
      <point x="166" y="698" type="line" smooth="yes"/>
      <point x="103" y="577" type="line" smooth="yes"/>
      <point x="66" y="402" type="line" smooth="yes"/>
      <point x="63" y="378" type="line" smooth="yes"/>
      <point x="57" y="200" type="line" smooth="yes"/>
      <point x="92" y="79" type="line" smooth="yes"/>
      <point x="165" y="11" type="line" smooth="yes"/>
      <point x="276" y="-10" type="line" smooth="yes"/>
      <point x="292" y="-10" type="line" smooth="yes"/>
      <point x="308" y="-9" type="line" smooth="yes"/>
      <point x="322" y="-7" type="line" smooth="yes"/>
      <point x="334" y="-5" type="line" smooth="yes"/>
      <point x="357" y="-100" type="line" smooth="yes"/>
      <point x="399" y="-100" type="line" smooth="yes"/>
      <point x="372" y="5" type="line" smooth="yes"/>
      <point x="447" y="49" type="line" smooth="yes"/>
      <point x="506" y="125" type="line" smooth="yes"/>
      <point x="549" y="234" type="line" smooth="yes"/>
      <point x="577" y="378" type="line" smooth="yes"/>
    </contour>
  </outline>
</glyph>
<glyph name="b" format="1">
  <advance width="522"/>
  <unicode hex="0062"/>
  <outline>
    <contour>
      <point x="77" y="126" type="line" smooth="yes"/>
      <point x="115" y="416" type="line" smooth="yes"/>
      <point x="144" y="449" type="line" smooth="yes"/>
      <point x="180" y="477" type="line" smooth="yes"/>
      <point x="222" y="495" type="line" smooth="yes"/>
      <point x="274" y="502" type="line" smooth="yes"/>
      <point x="346" y="486" type="line" smooth="yes"/>
      <point x="394" y="439" type="line" smooth="yes"/>
      <point x="416" y="365" type="line" smooth="yes"/>
      <point x="415" y="268" type="line" smooth="yes"/>
      <point x="413" y="252" type="line" smooth="yes"/>
      <point x="391" y="159" type="line" smooth="yes"/>
      <point x="352" y="88" type="line" smooth="yes"/>
      <point x="294" y="44" type="line" smooth="yes"/>
      <point x="218" y="28" type="line" smooth="yes"/>
      <point x="166" y="37" type="line" smooth="yes"/>
      <point x="125" y="61" type="line" smooth="yes"/>
      <point x="96" y="92" type="line" smooth="yes"/>
    </contour>
    <contour>
      <point x="166" y="800" type="line" smooth="yes"/>
      <point x="126" y="800" type="line" smooth="yes"/>
      <point x="40" y="150" type="line" smooth="yes"/>
      <point x="16" y="0" type="line" smooth="yes"/>
      <point x="46" y="0" type="line" smooth="yes"/>
      <point x="65" y="81" type="line" smooth="yes"/>
      <point x="84" y="51" type="line" smooth="yes"/>
      <point x="117" y="21" type="line" smooth="yes"/>
      <point x="162" y="-1" type="line" smooth="yes"/>
      <point x="218" y="-10" type="line" smooth="yes"/>
      <point x="314" y="10" type="line" smooth="yes"/>
      <point x="384" y="64" type="line" smooth="yes"/>
      <point x="430" y="148" type="line" smooth="yes"/>
      <point x="455" y="255" type="line" smooth="yes"/>
      <point x="457" y="271" type="line" smooth="yes"/>
      <point x="458" y="376" type="line" smooth="yes"/>
      <point x="429" y="461" type="line" smooth="yes"/>
      <point x="369" y="519" type="line" smooth="yes"/>
      <point x="274" y="540" type="line" smooth="yes"/>
      <point x="227" y="535" type="line" smooth="yes"/>
      <point x="185" y="520" type="line" smooth="yes"/>
      <point x="150" y="497" type="line" smooth="yes"/>
      <point x="123" y="470" type="line" smooth="yes"/>
    </contour>
  </outline>
</glyph>
<glyph name="f" format="1">
  <advance width="370"/>
  <unicode hex="0066"/>
  <outline>
    <contour>
      <point x="198" y="667" type="line" smooth="yes"/>
      <point x="212" y="718" type="line" smooth="yes"/>
      <point x="237" y="750" type="line" smooth="yes"/>
      <point x="273" y="767" type="line" smooth="yes"/>
      <point x="318" y="772" type="line" smooth="yes"/>
      <point x="337" y="771" type="line" smooth="yes"/>
      <point x="355" y="769" type="line" smooth="yes"/>
      <point x="371" y="766" type="line" smooth="yes"/>
      <point x="381" y="763" type="line" smooth="yes"/>
      <point x="386" y="799" type="line" smooth="yes"/>
      <point x="377" y="802" type="line" smooth="yes"/>
      <point x="362" y="806" type="line" smooth="yes"/>
      <point x="342" y="809" type="line" smooth="yes"/>
      <point x="318" y="810" type="line" smooth="yes"/>
      <point x="259" y="803" type="line" smooth="yes"/>
      <point x="212" y="780" type="line" smooth="yes"/>
      <point x="178" y="739" type="line" smooth="yes"/>
      <point x="160" y="679" type="line" smooth="yes"/>
      <point x="140" y="530" type="line" smooth="yes"/>
      <point x="55" y="530" type="line" smooth="yes"/>
      <point x="50" y="492" type="line" smooth="yes"/>
      <point x="135" y="492" type="line" smooth="yes"/>
      <point x="71" y="0" type="line" smooth="yes"/>
      <point x="111" y="0" type="line" smooth="yes"/>
      <point x="175" y="492" type="line" smooth="yes"/>
      <point x="335" y="492" type="line" smooth="yes"/>
      <point x="340" y="530" type="line" smooth="yes"/>
      <point x="180" y="530" type="line" smooth="yes"/>
    </contour>
  </outline>
</glyph>
<glyph name="g" format="1">
  <advance width="525"/>
  <unicode hex="0067"/>
  <outline>
    <contour>
      <point x="386" y="154" type="line" smooth="yes"/>
      <point x="357" y="121" type="line" smooth="yes"/>
      <point x="322" y="93" type="line" smooth="yes"/>
      <point x="279" y="75" type="line" smooth="yes"/>
      <point x="227" y="68" type="line" smooth="yes"/>
      <point x="153" y="83" type="line" smooth="yes"/>
      <point x="106" y="126" type="line" smooth="yes"/>
      <point x="83" y="193" type="line" smooth="yes"/>
      <point x="84" y="282" type="line" smooth="yes"/>
      <point x="86" y="298" type="line" smooth="yes"/>
      <point x="107" y="385" type="line" smooth="yes"/>
      <point x="146" y="449" type="line" smooth="yes"/>
      <point x="203" y="489" type="line" smooth="yes"/>
      <point x="278" y="502" type="line" smooth="yes"/>
      <point x="330" y="493" type="line" smooth="yes"/>
      <point x="371" y="470" type="line" smooth="yes"/>
      <point x="400" y="438" type="line" smooth="yes"/>
      <point x="419" y="404" type="line" smooth="yes"/>
    </contour>
    <contour>
      <point x="365" y="-5" type="line" smooth="yes"/>
      <point x="350" y="-75" type="line" smooth="yes"/>
      <point x="319" y="-128" type="line" smooth="yes"/>
      <point x="269" y="-161" type="line" smooth="yes"/>
      <point x="192" y="-172" type="line" smooth="yes"/>
      <point x="124" y="-162" type="line" smooth="yes"/>
      <point x="78" y="-130" type="line" smooth="yes"/>
      <point x="53" y="-76" type="line" smooth="yes"/>
      <point x="53" y="0" type="line" smooth="yes"/>
      <point x="16" y="0" type="line" smooth="yes"/>
      <point x="14" y="-15" type="line" smooth="yes"/>
      <point x="15" y="-92" type="line" smooth="yes"/>
      <point x="43" y="-154" type="line" smooth="yes"/>
      <point x="101" y="-195" type="line" smooth="yes"/>
      <point x="192" y="-210" type="line" smooth="yes"/>
      <point x="284" y="-194" type="line" smooth="yes"/>
      <point x="347" y="-151" type="line" smooth="yes"/>
      <point x="385" y="-88" type="line" smooth="yes"/>
      <point x="404" y="-10" type="line" smooth="yes"/>
      <point x="456" y="380" type="line" smooth="yes"/>
      <point x="480" y="530" type="line" smooth="yes"/>
      <point x="450" y="530" type="line" smooth="yes"/>
      <point x="431" y="449" type="line" smooth="yes"/>
      <point x="412" y="479" type="line" smooth="yes"/>
      <point x="379" y="509" type="line" smooth="yes"/>
      <point x="334" y="531" type="line" smooth="yes"/>
      <point x="278" y="540" type="line" smooth="yes"/>
      <point x="183" y="522" type="line" smooth="yes"/>
      <point x="113" y="472" type="line" smooth="yes"/>
      <point x="68" y="394" type="line" smooth="yes"/>
      <point x="44" y="295" type="line" smooth="yes"/>
      <point x="42" y="279" type="line" smooth="yes"/>
      <point x="42" y="184" type="line" smooth="yes"/>
      <point x="70" y="104" type="line" smooth="yes"/>
      <point x="130" y="50" type="line" smooth="yes"/>
      <point x="227" y="30" type="line" smooth="yes"/>
      <point x="274" y="35" type="line" smooth="yes"/>
      <point x="316" y="50" type="line" smooth="yes"/>
      <point x="351" y="73" type="line" smooth="yes"/>
      <point x="378" y="100" type="line" smooth="yes"/>
    </contour>
  </outline>
</glyph>
<glyph name="m" format="1">
  <advance width="783"/>
  <unicode hex="006D"/>
  <outline>
    <contour>
      <point x="671" y="0" type="line" smooth="yes"/>
      <point x="722" y="390" type="line" smooth="yes"/>
      <point x="718" y="456" type="line" smooth="yes"/>
      <point x="691" y="503" type="line" smooth="yes"/>
      <point x="645" y="531" type="line" smooth="yes"/>
      <point x="583" y="540" type="line" smooth="yes"/>
      <point x="531" y="533" type="line" smooth="yes"/>
      <point x="485" y="514" type="line" smooth="yes"/>
      <point x="446" y="485" type="line" smooth="yes"/>
      <point x="415" y="451" type="line" smooth="yes"/>
      <point x="400" y="487" type="line" smooth="yes"/>
      <point x="373" y="515" type="line" smooth="yes"/>
      <point x="332" y="534" type="line" smooth="yes"/>
      <point x="278" y="540" type="line" smooth="yes"/>
      <point x="226" y="532" type="line" smooth="yes"/>
      <point x="180" y="513" type="line" smooth="yes"/>
      <point x="142" y="484" type="line" smooth="yes"/>
      <point x="114" y="452" type="line" smooth="yes"/>
      <point x="115" y="530" type="line" smooth="yes"/>
      <point x="85" y="530" type="line" smooth="yes"/>
      <point x="71" y="380" type="line" smooth="yes"/>
      <point x="21" y="0" type="line" smooth="yes"/>
      <point x="61" y="0" type="line" smooth="yes"/>
      <point x="114" y="410" type="line" smooth="yes"/>
      <point x="140" y="441" type="line" smooth="yes"/>
      <point x="177" y="471" type="line" smooth="yes"/>
      <point x="221" y="493" type="line" smooth="yes"/>
      <point x="273" y="502" type="line" smooth="yes"/>
      <point x="320" y="496" type="line" smooth="yes"/>
      <point x="355" y="477" type="line" smooth="yes"/>
      <point x="375" y="441" type="line" smooth="yes"/>
      <point x="376" y="385" type="line" smooth="yes"/>
      <point x="326" y="0" type="line" smooth="yes"/>
      <point x="366" y="0" type="line" smooth="yes"/>
      <point x="419" y="410" type="line" smooth="yes"/>
      <point x="445" y="441" type="line" smooth="yes"/>
      <point x="482" y="471" type="line" smooth="yes"/>
      <point x="526" y="493" type="line" smooth="yes"/>
      <point x="578" y="502" type="line" smooth="yes"/>
      <point x="623" y="496" type="line" smooth="yes"/>
      <point x="658" y="477" type="line" smooth="yes"/>
      <point x="679" y="441" type="line" smooth="yes"/>
      <point x="681" y="385" type="line" smooth="yes"/>
      <point x="631" y="0" type="line" smooth="yes"/>
    </contour>
  </outline>
</glyph>
<glyph name="n" format="1">
  <advance width="508"/>
  <unicode hex="006E"/>
  <outline>
    <contour>
      <point x="396" y="0" type="line" smooth="yes"/>
      <point x="445" y="375" type="line" smooth="yes"/>
      <point x="442" y="444" type="line" smooth="yes"/>
      <point x="415" y="496" type="line" smooth="yes"/>
      <point x="364" y="529" type="line" smooth="yes"/>
      <point x="290" y="540" type="line" smooth="yes"/>
      <point x="236" y="533" type="line" smooth="yes"/>
      <point x="187" y="515" type="line" smooth="yes"/>
      <point x="146" y="487" type="line" smooth="yes"/>
      <point x="114" y="452" type="line" smooth="yes"/>
      <point x="115" y="530" type="line" smooth="yes"/>
      <point x="85" y="530" type="line" smooth="yes"/>
      <point x="71" y="380" type="line" smooth="yes"/>
      <point x="21" y="0" type="line" smooth="yes"/>
      <point x="61" y="0" type="line" smooth="yes"/>
      <point x="114" y="410" type="line" smooth="yes"/>
      <point x="140" y="441" type="line" smooth="yes"/>
      <point x="177" y="471" type="line" smooth="yes"/>
      <point x="225" y="493" type="line" smooth="yes"/>
      <point x="285" y="502" type="line" smooth="yes"/>
      <point x="340" y="495" type="line" smooth="yes"/>
      <point x="380" y="472" type="line" smooth="yes"/>
      <point x="402" y="431" type="line" smooth="yes"/>
      <point x="404" y="370" type="line" smooth="yes"/>
      <point x="356" y="0" type="line" smooth="yes"/>
    </contour>
  </outline>
</glyph>
<glyph name="o" format="1">
  <advance width="536"/>
  <unicode hex="006F"/>
  <outline>
    <contour>
      <point x="229" y="-10" type="line" smooth="yes"/>
      <point x="325" y="10" type="line" smooth="yes"/>
      <point x="397" y="64" type="line" smooth="yes"/>
      <point x="446" y="148" type="line" smooth="yes"/>
      <point x="471" y="255" type="line" smooth="yes"/>
      <point x="473" y="271" type="line" smooth="yes"/>
      <point x="473" y="376" type="line" smooth="yes"/>
      <point x="443" y="461" type="line" smooth="yes"/>
      <point x="381" y="519" type="line" smooth="yes"/>
      <point x="283" y="540" type="line" smooth="yes"/>
      <point x="187" y="520" type="line" smooth="yes"/>
      <point x="115" y="466" type="line" smooth="yes"/>
      <point x="66" y="382" type="line" smooth="yes"/>
      <point x="41" y="275" type="line" smooth="yes"/>
      <point x="39" y="259" type="line" smooth="yes"/>
      <point x="39" y="154" type="line" smooth="yes"/>
      <point x="69" y="69" type="line" smooth="yes"/>
      <point x="131" y="11" type="line" smooth="yes"/>
    </contour>
    <contour>
      <point x="229" y="28" type="line" smooth="yes"/>
      <point x="153" y="45" type="line" smooth="yes"/>
      <point x="104" y="92" type="line" smooth="yes"/>
      <point x="80" y="166" type="line" smooth="yes"/>
      <point x="81" y="262" type="line" smooth="yes"/>
      <point x="83" y="278" type="line" smooth="yes"/>
      <point x="106" y="371" type="line" smooth="yes"/>
      <point x="147" y="442" type="line" smooth="yes"/>
      <point x="206" y="486" type="line" smooth="yes"/>
      <point x="283" y="502" type="line" smooth="yes"/>
      <point x="359" y="485" type="line" smooth="yes"/>
      <point x="408" y="438" type="line" smooth="yes"/>
      <point x="432" y="364" type="line" smooth="yes"/>
      <point x="431" y="268" type="line" smooth="yes"/>
      <point x="429" y="252" type="line" smooth="yes"/>
      <point x="406" y="159" type="line" smooth="yes"/>
      <point x="365" y="88" type="line" smooth="yes"/>
      <point x="306" y="44" type="line" smooth="yes"/>
    </contour>
  </outline>
</glyph>
<glyph name="p" format="1">
  <advance width="522"/>
  <unicode hex="0070"/>
  <outline>
    <contour>
      <point x="218" y="28" type="line" smooth="yes"/>
      <point x="166" y="37" type="line" smooth="yes"/>
      <point x="125" y="61" type="line" smooth="yes"/>
      <point x="96" y="92" type="line" smooth="yes"/>
      <point x="77" y="126" type="line" smooth="yes"/>
      <point x="115" y="416" type="line" smooth="yes"/>
      <point x="142" y="446" type="line" smooth="yes"/>
      <point x="178" y="474" type="line" smooth="yes"/>
      <point x="222" y="494" type="line" smooth="yes"/>
      <point x="274" y="502" type="line" smooth="yes"/>
      <point x="346" y="486" type="line" smooth="yes"/>
      <point x="394" y="439" type="line" smooth="yes"/>
      <point x="416" y="365" type="line" smooth="yes"/>
      <point x="415" y="268" type="line" smooth="yes"/>
      <point x="413" y="252" type="line" smooth="yes"/>
      <point x="391" y="159" type="line" smooth="yes"/>
      <point x="352" y="88" type="line" smooth="yes"/>
      <point x="294" y="44" type="line" smooth="yes"/>
    </contour>
    <contour>
      <point x="274" y="540" type="line" smooth="yes"/>
      <point x="226" y="534" type="line" smooth="yes"/>
      <point x="182" y="518" type="line" smooth="yes"/>
      <point x="145" y="493" type="line" smooth="yes"/>
      <point x="116" y="461" type="line" smooth="yes"/>
      <point x="115" y="530" type="line" smooth="yes"/>
      <point x="85" y="530" type="line" smooth="yes"/>
      <point x="71" y="380" type="line" smooth="yes"/>
      <point x="-6" y="-200" type="line" smooth="yes"/>
      <point x="34" y="-200" type="line" smooth="yes"/>
      <point x="70" y="71" type="line" smooth="yes"/>
      <point x="89" y="45" type="line" smooth="yes"/>
      <point x="120" y="19" type="line" smooth="yes"/>
      <point x="163" y="-2" type="line" smooth="yes"/>
      <point x="218" y="-10" type="line" smooth="yes"/>
      <point x="314" y="10" type="line" smooth="yes"/>
      <point x="384" y="64" type="line" smooth="yes"/>
      <point x="430" y="148" type="line" smooth="yes"/>
      <point x="455" y="255" type="line" smooth="yes"/>
      <point x="457" y="271" type="line" smooth="yes"/>
      <point x="458" y="376" type="line" smooth="yes"/>
      <point x="429" y="461" type="line" smooth="yes"/>
      <point x="369" y="519" type="line" smooth="yes"/>
    </contour>
  </outline>
</glyph>
<glyph name="q" format="1">
  <advance width="525"/>
  <unicode hex="0071"/>
  <outline>
    <contour>
      <point x="381" y="114" type="line" smooth="yes"/>
      <point x="352" y="81" type="line" smooth="yes"/>
      <point x="317" y="53" type="line" smooth="yes"/>
      <point x="274" y="35" type="line" smooth="yes"/>
      <point x="222" y="28" type="line" smooth="yes"/>
      <point x="150" y="44" type="line" smooth="yes"/>
      <point x="102" y="91" type="line" smooth="yes"/>
      <point x="80" y="165" type="line" smooth="yes"/>
      <point x="81" y="262" type="line" smooth="yes"/>
      <point x="83" y="278" type="line" smooth="yes"/>
      <point x="105" y="371" type="line" smooth="yes"/>
      <point x="145" y="442" type="line" smooth="yes"/>
      <point x="202" y="486" type="line" smooth="yes"/>
      <point x="278" y="502" type="line" smooth="yes"/>
      <point x="330" y="493" type="line" smooth="yes"/>
      <point x="371" y="470" type="line" smooth="yes"/>
      <point x="400" y="438" type="line" smooth="yes"/>
      <point x="419" y="404" type="line" smooth="yes"/>
    </contour>
    <contour>
      <point x="339" y="-200" type="line" smooth="yes"/>
      <point x="379" y="-200" type="line" smooth="yes"/>
      <point x="456" y="380" type="line" smooth="yes"/>
      <point x="480" y="530" type="line" smooth="yes"/>
      <point x="450" y="530" type="line" smooth="yes"/>
      <point x="431" y="449" type="line" smooth="yes"/>
      <point x="412" y="479" type="line" smooth="yes"/>
      <point x="379" y="509" type="line" smooth="yes"/>
      <point x="334" y="531" type="line" smooth="yes"/>
      <point x="278" y="540" type="line" smooth="yes"/>
      <point x="182" y="520" type="line" smooth="yes"/>
      <point x="112" y="466" type="line" smooth="yes"/>
      <point x="66" y="382" type="line" smooth="yes"/>
      <point x="41" y="275" type="line" smooth="yes"/>
      <point x="39" y="259" type="line" smooth="yes"/>
      <point x="38" y="154" type="line" smooth="yes"/>
      <point x="67" y="69" type="line" smooth="yes"/>
      <point x="127" y="11" type="line" smooth="yes"/>
      <point x="222" y="-10" type="line" smooth="yes"/>
      <point x="269" y="-5" type="line" smooth="yes"/>
      <point x="311" y="10" type="line" smooth="yes"/>
      <point x="346" y="33" type="line" smooth="yes"/>
      <point x="373" y="60" type="line" smooth="yes"/>
    </contour>
  </outline>
</glyph>
<glyph name="s" format="1">
  <advance width="517"/>
  <unicode hex="0073"/>
  <outline>
    <contour>
      <point x="220" y="28" type="line" smooth="yes"/>
      <point x="144" y="38" type="line" smooth="yes"/>
      <point x="98" y="66" type="line" smooth="yes"/>
      <point x="77" y="107" type="line" smooth="yes"/>
      <point x="77" y="160" type="line" smooth="yes"/>
      <point x="38" y="160" type="line" smooth="yes"/>
      <point x="37" y="152" type="line" smooth="yes"/>
      <point x="39" y="91" type="line" smooth="yes"/>
      <point x="66" y="40" type="line" smooth="yes"/>
      <point x="124" y="4" type="line" smooth="yes"/>
      <point x="220" y="-10" type="line" smooth="yes"/>
      <point x="300" y="0" type="line" smooth="yes"/>
      <point x="361" y="29" type="line" smooth="yes"/>
      <point x="403" y="74" type="line" smooth="yes"/>
      <point x="422" y="131" type="line" smooth="yes"/>
      <point x="423" y="139" type="line" smooth="yes"/>
      <point x="420" y="197" type="line" smooth="yes"/>
      <point x="393" y="240" type="line" smooth="yes"/>
      <point x="341" y="270" type="line" smooth="yes"/>
      <point x="265" y="288" type="line" smooth="yes"/>
      <point x="187" y="304" type="line" smooth="yes"/>
      <point x="140" y="328" type="line" smooth="yes"/>
      <point x="118" y="360" type="line" smooth="yes"/>
      <point x="116" y="402" type="line" smooth="yes"/>
      <point x="131" y="447" type="line" smooth="yes"/>
      <point x="163" y="478" type="line" smooth="yes"/>
      <point x="209" y="496" type="line" smooth="yes"/>
      <point x="270" y="502" type="line" smooth="yes"/>
      <point x="344" y="492" type="line" smooth="yes"/>
      <point x="389" y="464" type="line" smooth="yes"/>
      <point x="408" y="419" type="line" smooth="yes"/>
      <point x="408" y="360" type="line" smooth="yes"/>
      <point x="447" y="360" type="line" smooth="yes"/>
      <point x="448" y="368" type="line" smooth="yes"/>
      <point x="446" y="437" type="line" smooth="yes"/>
      <point x="419" y="492" type="line" smooth="yes"/>
      <point x="362" y="527" type="line" smooth="yes"/>
      <point x="270" y="540" type="line" smooth="yes"/>
      <point x="192" y="530" type="line" smooth="yes"/>
      <point x="132" y="503" type="line" smooth="yes"/>
      <point x="93" y="461" type="line" smooth="yes"/>
      <point x="74" y="406" type="line" smooth="yes"/>
      <point x="73" y="398" type="line" smooth="yes"/>
      <point x="76" y="349" type="line" smooth="yes"/>
      <point x="102" y="308" type="line" smooth="yes"/>
      <point x="154" y="277" type="line" smooth="yes"/>
      <point x="235" y="256" type="line" smooth="yes"/>
      <point x="308" y="241" type="line" smooth="yes"/>
      <point x="355" y="219" type="line" smooth="yes"/>
      <point x="379" y="186" type="line" smooth="yes"/>
      <point x="380" y="135" type="line" smooth="yes"/>
      <point x="365" y="89" type="line" smooth="yes"/>
      <point x="333" y="56" type="line" smooth="yes"/>
      <point x="285" y="35" type="line" smooth="yes"/>
    </contour>
  </outline>
</glyph>
<glyph name="braceleft" format="1">
  <advance width="300"/>
  <unicode hex="007B"/>
  <outline>
    <contour>
      <point x="316" y="840" type="line" smooth="yes"/>
      <point x="301" y="840" type="line" smooth="yes"/>
      <point x="258" y="835" type="line" smooth="yes"/>
      <point x="215" y="816" type="line" smooth="yes"/>
      <point x="180" y="778" type="line" smooth="yes"/>
      <point x="160" y="715" type="line" smooth="yes"/>
      <point x="127" y="470" type="line" smooth="yes"/>
      <point x="115" y="423" type="line" smooth="yes"/>
      <point x="95" y="396" type="line" smooth="yes"/>
      <point x="66" y="383" type="line" smooth="yes"/>
      <point x="26" y="380" type="line" smooth="yes"/>
      <point x="20" y="340" type="line" smooth="yes"/>
      <point x="59" y="337" type="line" smooth="yes"/>
      <point x="86" y="324" type="line" smooth="yes"/>
      <point x="99" y="297" type="line" smooth="yes"/>
      <point x="98" y="250" type="line" smooth="yes"/>
      <point x="66" y="5" type="line" smooth="yes"/>
      <point x="70" y="-57" type="line" smooth="yes"/>
      <point x="94" y="-95" type="line" smooth="yes"/>
      <point x="132" y="-115" type="line" smooth="yes"/>
      <point x="175" y="-120" type="line" smooth="yes"/>
      <point x="190" y="-120" type="line" smooth="yes"/>
      <point x="195" y="-80" type="line" smooth="yes"/>
      <point x="149" y="-76" type="line" smooth="yes"/>
      <point x="119" y="-61" type="line" smooth="yes"/>
      <point x="107" y="-28" type="line" smooth="yes"/>
      <point x="109" y="30" type="line" smooth="yes"/>
      <point x="140" y="262" type="line" smooth="yes"/>
      <point x="141" y="298" type="line" smooth="yes"/>
      <point x="133" y="326" type="line" smooth="yes"/>
      <point x="119" y="346" type="line" smooth="yes"/>
      <point x="100" y="360" type="line" smooth="yes"/>
      <point x="123" y="373" type="line" smooth="yes"/>
      <point x="142" y="394" type="line" smooth="yes"/>
      <point x="157" y="421" type="line" smooth="yes"/>
      <point x="166" y="458" type="line" smooth="yes"/>
      <point x="196" y="690" type="line" smooth="yes"/>
      <point x="209" y="746" type="line" smooth="yes"/>
      <point x="232" y="780" type="line" smooth="yes"/>
      <point x="265" y="796" type="line" smooth="yes"/>
      <point x="311" y="800" type="line" smooth="yes"/>
    </contour>
  </outline>
</glyph>
<glyph name="asciitilde" format="1">
  <advance width="600"/>
  <unicode hex="007E"/>
  <outline>
    <contour>
      <point x="180" y="440" type="line" smooth="yes"/>
      <point x="132" y="433" type="line" smooth="yes"/>
      <point x="93" y="415" type="line" smooth="yes"/>
      <point x="62" y="393" type="line" smooth="yes"/>
      <point x="39" y="371" type="line" smooth="yes"/>
      <point x="67" y="343" type="line" smooth="yes"/>
      <point x="87" y="362" type="line" smooth="yes"/>
      <point x="113" y="382" type="line" smooth="yes"/>
      <point x="143" y="396" type="line" smooth="yes"/>
      <point x="176" y="402" type="line" smooth="yes"/>
      <point x="239" y="391" type="line" smooth="yes"/>
      <point x="294" y="366" type="line" smooth="yes"/>
      <point x="351" y="340" type="line" smooth="yes"/>
      <point x="422" y="329" type="line" smooth="yes"/>
      <point x="470" y="336" type="line" smooth="yes"/>
      <point x="509" y="354" type="line" smooth="yes"/>
      <point x="540" y="376" type="line" smooth="yes"/>
      <point x="563" y="398" type="line" smooth="yes"/>
      <point x="536" y="426" type="line" smooth="yes"/>
      <point x="515" y="407" type="line" smooth="yes"/>
      <point x="489" y="388" type="line" smooth="yes"/>
      <point x="459" y="373" type="line" smooth="yes"/>
      <point x="426" y="367" type="line" smooth="yes"/>
      <point x="363" y="378" type="line" smooth="yes"/>
      <point x="308" y="404" type="line" smooth="yes"/>
      <point x="251" y="429" type="line" smooth="yes"/>
    </contour>
  </outline>
</glyph>
<glyph name="cent" format="1">
  <advance width="598"/>
  <unicode hex="00A2"/>
  <outline>
    <contour>
      <point x="115" y="400" type="line" smooth="yes"/>
      <point x="144" y="525" type="line" smooth="yes"/>
      <point x="193" y="614" type="line" smooth="yes"/>
      <point x="262" y="668" type="line" smooth="yes"/>
      <point x="350" y="686" type="line" smooth="yes"/>
      <point x="356" y="686" type="line" smooth="yes"/>
      <point x="364" y="686" type="line" smooth="yes"/>
      <point x="372" y="685" type="line" smooth="yes"/>
      <point x="380" y="685" type="line" smooth="yes"/>
      <point x="387" y="684" type="line" smooth="yes"/>
      <point x="178" y="122" type="line" smooth="yes"/>
      <point x="140" y="161" type="line" smooth="yes"/>
      <point x="117" y="219" type="line" smooth="yes"/>
      <point x="108" y="293" type="line" smooth="yes"/>
      <point x="113" y="384" type="line" smooth="yes"/>
    </contour>
    <contour>
      <point x="484" y="840" type="line" smooth="yes"/>
      <point x="444" y="840" type="line" smooth="yes"/>
      <point x="401" y="723" type="line" smooth="yes"/>
      <point x="392" y="724" type="line" smooth="yes"/>
      <point x="381" y="725" type="line" smooth="yes"/>
      <point x="368" y="726" type="line" smooth="yes"/>
      <point x="353" y="726" type="line" smooth="yes"/>
      <point x="248" y="704" type="line" smooth="yes"/>
      <point x="165" y="640" type="line" smooth="yes"/>
      <point x="106" y="536" type="line" smooth="yes"/>
      <point x="73" y="397" type="line" smooth="yes"/>
      <point x="71" y="381" type="line" smooth="yes"/>
      <point x="66" y="276" type="line" smooth="yes"/>
      <point x="79" y="190" type="line" smooth="yes"/>
      <point x="111" y="124" type="line" smooth="yes"/>
      <point x="162" y="80" type="line" smooth="yes"/>
      <point x="111" y="-60" type="line" smooth="yes"/>
      <point x="151" y="-60" type="line" smooth="yes"/>
      <point x="197" y="66" type="line" smooth="yes"/>
      <point x="216" y="61" type="line" smooth="yes"/>
      <point x="237" y="58" type="line" smooth="yes"/>
      <point x="260" y="57" type="line" smooth="yes"/>
      <point x="282" y="56" type="line" smooth="yes"/>
      <point x="376" y="72" type="line" smooth="yes"/>
      <point x="445" y="117" type="line" smooth="yes"/>
      <point x="491" y="183" type="line" smooth="yes"/>
      <point x="515" y="264" type="line" smooth="yes"/>
      <point x="517" y="278" type="line" smooth="yes"/>
      <point x="476" y="278" type="line" smooth="yes"/>
      <point x="458" y="204" type="line" smooth="yes"/>
      <point x="421" y="147" type="line" smooth="yes"/>
      <point x="364" y="109" type="line" smooth="yes"/>
      <point x="284" y="96" type="line" smooth="yes"/>
      <point x="280" y="96" type="line" smooth="yes"/>
      <point x="262" y="97" type="line" smooth="yes"/>
      <point x="244" y="98" type="line" smooth="yes"/>
      <point x="227" y="101" type="line" smooth="yes"/>
      <point x="211" y="105" type="line" smooth="yes"/>
      <point x="424" y="677" type="line" smooth="yes"/>
      <point x="468" y="652" type="line" smooth="yes"/>
      <point x="495" y="611" type="line" smooth="yes"/>
      <point x="506" y="554" type="line" smooth="yes"/>
      <point x="503" y="481" type="line" smooth="yes"/>
      <point x="544" y="481" type="line" smooth="yes"/>
      <point x="546" y="496" type="line" smooth="yes"/>
      <point x="548" y="570" type="line" smooth="yes"/>
      <point x="532" y="634" type="line" smooth="yes"/>
      <point x="496" y="683" type="line" smooth="yes"/>
      <point x="438" y="715" type="line" smooth="yes"/>
    </contour>
  </outline>
</glyph>
<glyph name="sterling" format="1">
  <advance width="597"/>
  <unicode hex="00A3"/>
  <outline>
    <contour>
      <point x="370" y="752" type="line" smooth="yes"/>
      <point x="451" y="734" type="line" smooth="yes"/>
      <point x="503" y="683" type="line" smooth="yes"/>
      <point x="526" y="604" type="line" smooth="yes"/>
      <point x="521" y="500" type="line" smooth="yes"/>
      <point x="561" y="500" type="line" smooth="yes"/>
      <point x="564" y="519" type="line" smooth="yes"/>
      <point x="567" y="625" type="line" smooth="yes"/>
      <point x="538" y="711" type="line" smooth="yes"/>
      <point x="474" y="769" type="line" smooth="yes"/>
      <point x="370" y="790" type="line" smooth="yes"/>
      <point x="271" y="772" type="line" smooth="yes"/>
      <point x="201" y="717" type="line" smooth="yes"/>
      <point x="159" y="627" type="line" smooth="yes"/>
      <point x="145" y="503" type="line" smooth="yes"/>
      <point x="145" y="475" type="line" smooth="yes"/>
      <point x="146" y="450" type="line" smooth="yes"/>
      <point x="148" y="429" type="line" smooth="yes"/>
      <point x="149" y="410" type="line" smooth="yes"/>
      <point x="64" y="410" type="line" smooth="yes"/>
      <point x="59" y="370" type="line" smooth="yes"/>
      <point x="154" y="370" type="line" smooth="yes"/>
      <point x="166" y="290" type="line" smooth="yes"/>
      <point x="177" y="210" type="line" smooth="yes"/>
      <point x="185" y="127" type="line" smooth="yes"/>
      <point x="185" y="40" type="line" smooth="yes"/>
      <point x="16" y="40" type="line" smooth="yes"/>
      <point x="11" y="0" type="line" smooth="yes"/>
      <point x="491" y="0" type="line" smooth="yes"/>
      <point x="496" y="40" type="line" smooth="yes"/>
      <point x="222" y="40" type="line" smooth="yes"/>
      <point x="225" y="124" type="line" smooth="yes"/>
      <point x="220" y="208" type="line" smooth="yes"/>
      <point x="211" y="291" type="line" smooth="yes"/>
      <point x="200" y="370" type="line" smooth="yes"/>
      <point x="399" y="370" type="line" smooth="yes"/>
      <point x="404" y="410" type="line" smooth="yes"/>
      <point x="195" y="410" type="line" smooth="yes"/>
      <point x="192" y="435" type="line" smooth="yes"/>
      <point x="191" y="460" type="line" smooth="yes"/>
      <point x="189" y="483" type="line" smooth="yes"/>
      <point x="189" y="503" type="line" smooth="yes"/>
      <point x="199" y="606" type="line" smooth="yes"/>
      <point x="230" y="684" type="line" smooth="yes"/>
      <point x="286" y="734" type="line" smooth="yes"/>
    </contour>
  </outline>
</glyph>
<glyph name="yen" format="1">
  <advance width="600"/>
  <unicode hex="00A5"/>
  <outline>
    <contour>
      <point x="53" y="440" type="line" smooth="yes"/>
      <point x="195" y="440" type="line" smooth="yes"/>
      <point x="252" y="280" type="line" smooth="yes"/>
      <point x="32" y="280" type="line" smooth="yes"/>
      <point x="27" y="240" type="line" smooth="yes"/>
      <point x="262" y="240" type="line" smooth="yes"/>
      <point x="231" y="0" type="line" smooth="yes"/>
      <point x="271" y="0" type="line" smooth="yes"/>
      <point x="302" y="240" type="line" smooth="yes"/>
      <point x="537" y="240" type="line" smooth="yes"/>
      <point x="542" y="280" type="line" smooth="yes"/>
      <point x="321" y="280" type="line" smooth="yes"/>
      <point x="421" y="440" type="line" smooth="yes"/>
      <point x="563" y="440" type="line" smooth="yes"/>
      <point x="569" y="480" type="line" smooth="yes"/>
      <point x="446" y="480" type="line" smooth="yes"/>
      <point x="633" y="780" type="line" smooth="yes"/>
      <point x="586" y="780" type="line" smooth="yes"/>
      <point x="288" y="299" type="line" smooth="yes"/>
      <point x="116" y="780" type="line" smooth="yes"/>
      <point x="73" y="780" type="line" smooth="yes"/>
      <point x="181" y="480" type="line" smooth="yes"/>
      <point x="59" y="480" type="line" smooth="yes"/>
    </contour>
  </outline>
</glyph>
<glyph name="section" format="1">
  <advance width="498"/>
  <unicode hex="00A7"/>
  <outline>
    <contour>
      <point x="210" y="244" type="line" smooth="yes"/>
      <point x="282" y="235" type="line" smooth="yes"/>
      <point x="327" y="219" type="line" smooth="yes"/>
      <point x="350" y="194" type="line" smooth="yes"/>
      <point x="357" y="155" type="line" smooth="yes"/>
      <point x="347" y="101" type="line" smooth="yes"/>
      <point x="317" y="61" type="line" smooth="yes"/>
      <point x="268" y="36" type="line" smooth="yes"/>
      <point x="201" y="28" type="line" smooth="yes"/>
      <point x="129" y="38" type="line" smooth="yes"/>
      <point x="84" y="66" type="line" smooth="yes"/>
      <point x="64" y="111" type="line" smooth="yes"/>
      <point x="63" y="170" type="line" smooth="yes"/>
      <point x="23" y="170" type="line" smooth="yes"/>
      <point x="22" y="159" type="line" smooth="yes"/>
      <point x="26" y="90" type="line" smooth="yes"/>
      <point x="53" y="37" type="line" smooth="yes"/>
      <point x="110" y="2" type="line" smooth="yes"/>
      <point x="201" y="-10" type="line" smooth="yes"/>
      <point x="283" y="1" type="line" smooth="yes"/>
      <point x="343" y="30" type="line" smooth="yes"/>
      <point x="380" y="74" type="line" smooth="yes"/>
      <point x="397" y="129" type="line" smooth="yes"/>
      <point x="398" y="137" type="line" smooth="yes"/>
      <point x="399" y="176" type="line" smooth="yes"/>
      <point x="390" y="211" type="line" smooth="yes"/>
      <point x="369" y="238" type="line" smooth="yes"/>
      <point x="334" y="257" type="line" smooth="yes"/>
      <point x="383" y="277" type="line" smooth="yes"/>
      <point x="420" y="305" type="line" smooth="yes"/>
      <point x="444" y="341" type="line" smooth="yes"/>
      <point x="456" y="384" type="line" smooth="yes"/>
      <point x="457" y="392" type="line" smooth="yes"/>
      <point x="454" y="447" type="line" smooth="yes"/>
      <point x="429" y="491" type="line" smooth="yes"/>
      <point x="377" y="521" type="line" smooth="yes"/>
      <point x="294" y="536" type="line" smooth="yes"/>
      <point x="222" y="545" type="line" smooth="yes"/>
      <point x="177" y="561" type="line" smooth="yes"/>
      <point x="154" y="586" type="line" smooth="yes"/>
      <point x="147" y="625" type="line" smooth="yes"/>
      <point x="157" y="679" type="line" smooth="yes"/>
      <point x="188" y="719" type="line" smooth="yes"/>
      <point x="236" y="744" type="line" smooth="yes"/>
      <point x="303" y="752" type="line" smooth="yes"/>
      <point x="375" y="742" type="line" smooth="yes"/>
      <point x="420" y="714" type="line" smooth="yes"/>
      <point x="440" y="669" type="line" smooth="yes"/>
      <point x="441" y="610" type="line" smooth="yes"/>
      <point x="481" y="610" type="line" smooth="yes"/>
      <point x="482" y="621" type="line" smooth="yes"/>
      <point x="478" y="690" type="line" smooth="yes"/>
      <point x="451" y="743" type="line" smooth="yes"/>
      <point x="394" y="778" type="line" smooth="yes"/>
      <point x="303" y="790" type="line" smooth="yes"/>
      <point x="221" y="779" type="line" smooth="yes"/>
      <point x="162" y="750" type="line" smooth="yes"/>
      <point x="124" y="706" type="line" smooth="yes"/>
      <point x="107" y="651" type="line" smooth="yes"/>
      <point x="106" y="643" type="line" smooth="yes"/>
      <point x="105" y="604" type="line" smooth="yes"/>
      <point x="114" y="569" type="line" smooth="yes"/>
      <point x="135" y="542" type="line" smooth="yes"/>
      <point x="170" y="523" type="line" smooth="yes"/>
      <point x="121" y="503" type="line" smooth="yes"/>
      <point x="84" y="475" type="line" smooth="yes"/>
      <point x="60" y="439" type="line" smooth="yes"/>
      <point x="48" y="396" type="line" smooth="yes"/>
      <point x="47" y="388" type="line" smooth="yes"/>
      <point x="50" y="333" type="line" smooth="yes"/>
      <point x="75" y="289" type="line" smooth="yes"/>
      <point x="127" y="259" type="line" smooth="yes"/>
    </contour>
    <contour>
      <point x="236" y="279" type="line" smooth="yes"/>
      <point x="175" y="284" type="line" smooth="yes"/>
      <point x="128" y="299" type="line" smooth="yes"/>
      <point x="98" y="327" type="line" smooth="yes"/>
      <point x="87" y="369" type="line" smooth="yes"/>
      <point x="98" y="423" type="line" smooth="yes"/>
      <point x="131" y="465" type="line" smooth="yes"/>
      <point x="183" y="491" type="line" smooth="yes"/>
      <point x="255" y="501" type="line" smooth="yes"/>
      <point x="268" y="501" type="line" smooth="yes"/>
      <point x="329" y="496" type="line" smooth="yes"/>
      <point x="376" y="481" type="line" smooth="yes"/>
      <point x="406" y="453" type="line" smooth="yes"/>
      <point x="417" y="411" type="line" smooth="yes"/>
      <point x="406" y="357" type="line" smooth="yes"/>
      <point x="374" y="315" type="line" smooth="yes"/>
      <point x="321" y="289" type="line" smooth="yes"/>
      <point x="249" y="279" type="line" smooth="yes"/>
    </contour>
  </outline>
</glyph>
<glyph name="copyright" format="1">
  <advance width="920"/>
  <unicode hex="00A9"/>
  <outline>
    <contour>
      <point x="100" y="390" type="line" smooth="yes"/>
      <point x="128" y="530" type="line" smooth="yes"/>
      <point x="205" y="645" type="line" smooth="yes"/>
      <point x="320" y="722" type="line" smooth="yes"/>
      <point x="460" y="750" type="line" smooth="yes"/>
      <point x="600" y="722" type="line" smooth="yes"/>
      <point x="715" y="645" type="line" smooth="yes"/>
      <point x="792" y="530" type="line" smooth="yes"/>
      <point x="820" y="390" type="line" smooth="yes"/>
      <point x="792" y="250" type="line" smooth="yes"/>
      <point x="715" y="135" type="line" smooth="yes"/>
      <point x="600" y="58" type="line" smooth="yes"/>
      <point x="460" y="30" type="line" smooth="yes"/>
      <point x="320" y="58" type="line" smooth="yes"/>
      <point x="205" y="135" type="line" smooth="yes"/>
      <point x="128" y="250" type="line" smooth="yes"/>
    </contour>
    <contour>
      <point x="60" y="390" type="line" smooth="yes"/>
      <point x="91" y="234" type="line" smooth="yes"/>
      <point x="177" y="107" type="line" smooth="yes"/>
      <point x="304" y="21" type="line" smooth="yes"/>
      <point x="460" y="-10" type="line" smooth="yes"/>
      <point x="616" y="21" type="line" smooth="yes"/>
      <point x="743" y="107" type="line" smooth="yes"/>
      <point x="829" y="234" type="line" smooth="yes"/>
      <point x="860" y="390" type="line" smooth="yes"/>
      <point x="829" y="546" type="line" smooth="yes"/>
      <point x="743" y="673" type="line" smooth="yes"/>
      <point x="616" y="759" type="line" smooth="yes"/>
      <point x="460" y="790" type="line" smooth="yes"/>
      <point x="304" y="759" type="line" smooth="yes"/>
      <point x="177" y="673" type="line" smooth="yes"/>
      <point x="91" y="546" type="line" smooth="yes"/>
    </contour>
    <contour>
      <point x="460" y="185" type="line" smooth="yes"/>
      <point x="384" y="202" type="line" smooth="yes"/>
      <point x="334" y="248" type="line" smooth="yes"/>
      <point x="306" y="310" type="line" smooth="yes"/>
      <point x="297" y="380" type="line" smooth="yes"/>
      <point x="297" y="400" type="line" smooth="yes"/>
      <point x="306" y="470" type="line" smooth="yes"/>
      <point x="334" y="532" type="line" smooth="yes"/>
      <point x="384" y="578" type="line" smooth="yes"/>
      <point x="460" y="595" type="line" smooth="yes"/>
      <point x="530" y="583" type="line" smooth="yes"/>
      <point x="575" y="553" type="line" smooth="yes"/>
      <point x="598" y="511" type="line" smooth="yes"/>
      <point x="605" y="465" type="line" smooth="yes"/>
      <point x="645" y="465" type="line" smooth="yes"/>
      <point x="645" y="480" type="line" smooth="yes"/>
      <point x="636" y="525" type="line" smooth="yes"/>
      <point x="607" y="576" type="line" smooth="yes"/>
      <point x="550" y="618" type="line" smooth="yes"/>
      <point x="460" y="635" type="line" smooth="yes"/>
      <point x="364" y="613" type="line" smooth="yes"/>
      <point x="301" y="556" type="line" smooth="yes"/>
      <point x="266" y="480" type="line" smooth="yes"/>
      <point x="255" y="400" type="line" smooth="yes"/>
      <point x="255" y="380" type="line" smooth="yes"/>
      <point x="266" y="300" type="line" smooth="yes"/>
      <point x="301" y="224" type="line" smooth="yes"/>
      <point x="364" y="167" type="line" smooth="yes"/>
      <point x="460" y="145" type="line" smooth="yes"/>
      <point x="550" y="161" type="line" smooth="yes"/>
      <point x="607" y="201" type="line" smooth="yes"/>
      <point x="636" y="250" type="line" smooth="yes"/>
      <point x="645" y="295" type="line" smooth="yes"/>
      <point x="645" y="305" type="line" smooth="yes"/>
      <point x="605" y="305" type="line" smooth="yes"/>
      <point x="599" y="266" type="line" smooth="yes"/>
      <point x="576" y="227" type="line" smooth="yes"/>
      <point x="532" y="197" type="line" smooth="yes"/>
    </contour>
  </outline>
</glyph>
<glyph name="ordfeminine" format="1">
  <advance width="375"/>
  <unicode hex="00AA"/>
  <outline>
    <contour>
      <point x="30" y="223" type="line" smooth="yes"/>
      <point x="315" y="223" type="line" smooth="yes"/>
      <point x="319" y="258" type="line" smooth="yes"/>
      <point x="34" y="258" type="line" smooth="yes"/>
    </contour>
    <contour>
      <point x="165" y="414" type="line" smooth="yes"/>
      <point x="131" y="421" type="line" smooth="yes"/>
      <point x="108" y="438" type="line" smooth="yes"/>
      <point x="96" y="462" type="line" smooth="yes"/>
      <point x="95" y="490" type="line" smooth="yes"/>
      <point x="96" y="498" type="line" smooth="yes"/>
      <point x="106" y="530" type="line" smooth="yes"/>
      <point x="125" y="554" type="line" smooth="yes"/>
      <point x="155" y="570" type="line" smooth="yes"/>
      <point x="196" y="580" type="line" smooth="yes"/>
      <point x="322" y="600" type="line" smooth="yes"/>
      <point x="307" y="483" type="line" smooth="yes"/>
      <point x="288" y="462" type="line" smooth="yes"/>
      <point x="259" y="440" type="line" smooth="yes"/>
      <point x="218" y="421" type="line" smooth="yes"/>
    </contour>
    <contour>
      <point x="308" y="388" type="line" smooth="yes"/>
      <point x="337" y="388" type="line" smooth="yes"/>
      <point x="347" y="499" type="line" smooth="yes"/>
      <point x="366" y="645" type="line" smooth="yes"/>
      <point x="367" y="703" type="line" smooth="yes"/>
      <point x="351" y="749" type="line" smooth="yes"/>
      <point x="311" y="779" type="line" smooth="yes"/>
      <point x="242" y="790" type="line" smooth="yes"/>
      <point x="176" y="778" type="line" smooth="yes"/>
      <point x="132" y="748" type="line" smooth="yes"/>
      <point x="106" y="706" type="line" smooth="yes"/>
      <point x="94" y="659" type="line" smooth="yes"/>
      <point x="93" y="652" type="line" smooth="yes"/>
      <point x="130" y="652" type="line" smooth="yes"/>
      <point x="140" y="694" type="line" smooth="yes"/>
      <point x="161" y="727" type="line" smooth="yes"/>
      <point x="194" y="748" type="line" smooth="yes"/>
      <point x="240" y="756" type="line" smooth="yes"/>
      <point x="290" y="749" type="line" smooth="yes"/>
      <point x="319" y="727" type="line" smooth="yes"/>
      <point x="330" y="692" type="line" smooth="yes"/>
      <point x="328" y="645" type="line" smooth="yes"/>
      <point x="326" y="631" type="line" smooth="yes"/>
      <point x="200" y="612" type="line" smooth="yes"/>
      <point x="153" y="602" type="line" smooth="yes"/>
      <point x="109" y="584" type="line" smooth="yes"/>
      <point x="75" y="551" type="line" smooth="yes"/>
      <point x="57" y="498" type="line" smooth="yes"/>
      <point x="56" y="490" type="line" smooth="yes"/>
      <point x="59" y="446" type="line" smooth="yes"/>
      <point x="79" y="411" type="line" smooth="yes"/>
      <point x="115" y="388" type="line" smooth="yes"/>
      <point x="165" y="380" type="line" smooth="yes"/>
      <point x="210" y="385" type="line" smooth="yes"/>
      <point x="249" y="400" type="line" smooth="yes"/>
      <point x="281" y="421" type="line" smooth="yes"/>
      <point x="307" y="445" type="line" smooth="yes"/>
    </contour>
  </outline>
</glyph>
<glyph name="uni00AD" format="1">
  <advance width="320"/>
  <unicode hex="00AD"/>
  <outline>
    <contour>
      <point x="34" y="331" type="line" smooth="yes"/>
      <point x="274" y="331" type="line" smooth="yes"/>
      <point x="279" y="369" type="line" smooth="yes"/>
      <point x="39" y="369" type="line" smooth="yes"/>
    </contour>
  </outline>
</glyph>
<glyph name="macron" format="1">
  <advance width="500"/>
  <unicode hex="00AF"/>
  <outline>
    <contour>
      <point x="185" y="680" type="line" smooth="yes"/>
      <point x="395" y="680" type="line" smooth="yes"/>
      <point x="400" y="720" type="line" smooth="yes"/>
      <point x="190" y="720" type="line" smooth="yes"/>
    </contour>
  </outline>
</glyph>
<glyph name="degree" format="1">
  <advance width="398"/>
  <unicode hex="00B0"/>
  <outline>
    <contour>
      <point x="248" y="790" type="line" smooth="yes"/>
      <point x="187" y="781" type="line" smooth="yes"/>
      <point x="138" y="753" type="line" smooth="yes"/>
      <point x="103" y="707" type="line" smooth="yes"/>
      <point x="85" y="644" type="line" smooth="yes"/>
      <point x="84" y="636" type="line" smooth="yes"/>
      <point x="87" y="574" type="line" smooth="yes"/>
      <point x="114" y="528" type="line" smooth="yes"/>
      <point x="159" y="500" type="line" smooth="yes"/>
      <point x="221" y="490" type="line" smooth="yes"/>
      <point x="282" y="499" type="line" smooth="yes"/>
      <point x="331" y="527" type="line" smooth="yes"/>
      <point x="366" y="573" type="line" smooth="yes"/>
      <point x="384" y="636" type="line" smooth="yes"/>
      <point x="385" y="644" type="line" smooth="yes"/>
      <point x="382" y="706" type="line" smooth="yes"/>
      <point x="356" y="752" type="line" smooth="yes"/>
      <point x="310" y="780" type="line" smooth="yes"/>
    </contour>
    <contour>
      <point x="218" y="528" type="line" smooth="yes"/>
      <point x="173" y="536" type="line" smooth="yes"/>
      <point x="141" y="558" type="line" smooth="yes"/>
      <point x="124" y="593" type="line" smooth="yes"/>
      <point x="122" y="636" type="line" smooth="yes"/>
      <point x="123" y="644" type="line" smooth="yes"/>
      <point x="137" y="692" type="line" smooth="yes"/>
      <point x="164" y="726" type="line" smooth="yes"/>
      <point x="201" y="746" type="line" smooth="yes"/>
      <point x="245" y="752" type="line" smooth="yes"/>
      <point x="251" y="752" type="line" smooth="yes"/>
      <point x="296" y="744" type="line" smooth="yes"/>
      <point x="328" y="722" type="line" smooth="yes"/>
      <point x="345" y="687" type="line" smooth="yes"/>
      <point x="347" y="644" type="line" smooth="yes"/>
      <point x="346" y="636" type="line" smooth="yes"/>
      <point x="332" y="588" type="line" smooth="yes"/>
      <point x="305" y="554" type="line" smooth="yes"/>
      <point x="268" y="534" type="line" smooth="yes"/>
      <point x="224" y="528" type="line" smooth="yes"/>
    </contour>
  </outline>
</glyph>
<glyph name="twosuperior" format="1">
  <advance width="299"/>
  <unicode hex="00B2"/>
  <outline>
    <contour>
      <point x="278" y="422" type="line" smooth="yes"/>
      <point x="88" y="422" type="line" smooth="yes"/>
      <point x="252" y="575" type="line" smooth="yes"/>
      <point x="274" y="596" type="line" smooth="yes"/>
      <point x="292" y="618" type="line" smooth="yes"/>
      <point x="304" y="641" type="line" smooth="yes"/>
      <point x="311" y="670" type="line" smooth="yes"/>
      <point x="312" y="678" type="line" smooth="yes"/>
      <point x="310" y="721" type="line" smooth="yes"/>
      <point x="290" y="755" type="line" smooth="yes"/>
      <point x="254" y="777" type="line" smooth="yes"/>
      <point x="199" y="785" type="line" smooth="yes"/>
      <point x="146" y="777" type="line" smooth="yes"/>
      <point x="107" y="754" type="line" smooth="yes"/>
      <point x="80" y="717" type="line" smooth="yes"/>
      <point x="66" y="665" type="line" smooth="yes"/>
      <point x="64" y="650" type="line" smooth="yes"/>
      <point x="99" y="650" type="line" smooth="yes"/>
      <point x="111" y="697" type="line" smooth="yes"/>
      <point x="131" y="729" type="line" smooth="yes"/>
      <point x="159" y="747" type="line" smooth="yes"/>
      <point x="197" y="753" type="line" smooth="yes"/>
      <point x="201" y="753" type="line" smooth="yes"/>
      <point x="235" y="748" type="line" smooth="yes"/>
      <point x="260" y="734" type="line" smooth="yes"/>
      <point x="274" y="710" type="line" smooth="yes"/>
      <point x="276" y="678" type="line" smooth="yes"/>
      <point x="275" y="670" type="line" smooth="yes"/>
      <point x="269" y="648" type="line" smooth="yes"/>
      <point x="259" y="628" type="line" smooth="yes"/>
      <point x="244" y="610" type="line" smooth="yes"/>
      <point x="224" y="591" type="line" smooth="yes"/>
      <point x="33" y="412" type="line" smooth="yes"/>
      <point x="30" y="390" type="line" smooth="yes"/>
      <point x="274" y="390" type="line" smooth="yes"/>
    </contour>
  </outline>
</glyph>
<glyph name="threesuperior" format="1">
  <advance width="299"/>
  <unicode hex="00B3"/>
  <outline>
    <contour>
      <point x="79" y="515" type="line" smooth="yes"/>
      <point x="43" y="515" type="line" smooth="yes"/>
      <point x="42" y="507" type="line" smooth="yes"/>
      <point x="44" y="455" type="line" smooth="yes"/>
      <point x="65" y="417" type="line" smooth="yes"/>
      <point x="103" y="392" type="line" smooth="yes"/>
      <point x="159" y="384" type="line" smooth="yes"/>
      <point x="209" y="391" type="line" smooth="yes"/>
      <point x="248" y="412" type="line" smooth="yes"/>
      <point x="275" y="444" type="line" smooth="yes"/>
      <point x="288" y="486" type="line" smooth="yes"/>
      <point x="289" y="494" type="line" smooth="yes"/>
      <point x="288" y="528" type="line" smooth="yes"/>
      <point x="279" y="556" type="line" smooth="yes"/>
      <point x="262" y="577" type="line" smooth="yes"/>
      <point x="238" y="589" type="line" smooth="yes"/>
      <point x="265" y="599" type="line" smooth="yes"/>
      <point x="287" y="616" type="line" smooth="yes"/>
      <point x="303" y="639" type="line" smooth="yes"/>
      <point x="311" y="670" type="line" smooth="yes"/>
      <point x="312" y="678" type="line" smooth="yes"/>
      <point x="310" y="721" type="line" smooth="yes"/>
      <point x="290" y="755" type="line" smooth="yes"/>
      <point x="253" y="777" type="line" smooth="yes"/>
      <point x="199" y="785" type="line" smooth="yes"/>
      <point x="146" y="777" type="line" smooth="yes"/>
      <point x="106" y="754" type="line" smooth="yes"/>
      <point x="80" y="717" type="line" smooth="yes"/>
      <point x="66" y="665" type="line" smooth="yes"/>
      <point x="64" y="650" type="line" smooth="yes"/>
      <point x="99" y="650" type="line" smooth="yes"/>
      <point x="111" y="697" type="line" smooth="yes"/>
      <point x="131" y="729" type="line" smooth="yes"/>
      <point x="159" y="747" type="line" smooth="yes"/>
      <point x="197" y="753" type="line" smooth="yes"/>
      <point x="201" y="753" type="line" smooth="yes"/>
      <point x="235" y="748" type="line" smooth="yes"/>
      <point x="260" y="734" type="line" smooth="yes"/>
      <point x="274" y="710" type="line" smooth="yes"/>
      <point x="276" y="678" type="line" smooth="yes"/>
      <point x="275" y="670" type="line" smooth="yes"/>
      <point x="265" y="640" type="line" smooth="yes"/>
      <point x="245" y="620" type="line" smooth="yes"/>
      <point x="217" y="609" type="line" smooth="yes"/>
      <point x="185" y="605" type="line" smooth="yes"/>
      <point x="130" y="605" type="line" smooth="yes"/>
      <point x="126" y="573" type="line" smooth="yes"/>
      <point x="183" y="573" type="line" smooth="yes"/>
      <point x="214" y="568" type="line" smooth="yes"/>
      <point x="238" y="552" type="line" smooth="yes"/>
      <point x="251" y="527" type="line" smooth="yes"/>
      <point x="253" y="494" type="line" smooth="yes"/>
      <point x="252" y="486" type="line" smooth="yes"/>
      <point x="242" y="454" type="line" smooth="yes"/>
      <point x="222" y="432" type="line" smooth="yes"/>
      <point x="194" y="420" type="line" smooth="yes"/>
      <point x="162" y="416" type="line" smooth="yes"/>
      <point x="156" y="416" type="line" smooth="yes"/>
      <point x="120" y="422" type="line" smooth="yes"/>
      <point x="94" y="440" type="line" smooth="yes"/>
      <point x="80" y="471" type="line" smooth="yes"/>
    </contour>
  </outline>
</glyph>
<glyph name="paragraph" format="1">
  <advance width="500"/>
  <unicode hex="00B6"/>
  <outline>
    <contour>
      <point x="368" y="742" type="line" smooth="yes"/>
      <point x="438" y="742" type="line" smooth="yes"/>
      <point x="341" y="0" type="line" smooth="yes"/>
      <point x="381" y="0" type="line" smooth="yes"/>
      <point x="483" y="780" type="line" smooth="yes"/>
      <point x="316" y="780" type="line" smooth="yes"/>
      <point x="234" y="770" type="line" smooth="yes"/>
      <point x="158" y="737" type="line" smooth="yes"/>
      <point x="98" y="673" type="line" smooth="yes"/>
      <point x="66" y="573" type="line" smooth="yes"/>
      <point x="63" y="549" type="line" smooth="yes"/>
      <point x="71" y="443" type="line" smooth="yes"/>
      <point x="117" y="376" type="line" smooth="yes"/>
      <point x="187" y="340" type="line" smooth="yes"/>
      <point x="267" y="330" type="line" smooth="yes"/>
      <point x="274" y="330" type="line" smooth="yes"/>
      <point x="231" y="0" type="line" smooth="yes"/>
      <point x="271" y="0" type="line" smooth="yes"/>
    </contour>
    <contour>
      <point x="270" y="368" type="line" smooth="yes"/>
      <point x="209" y="375" type="line" smooth="yes"/>
      <point x="152" y="402" type="line" smooth="yes"/>
      <point x="112" y="457" type="line" smooth="yes"/>
      <point x="105" y="549" type="line" smooth="yes"/>
      <point x="108" y="573" type="line" smooth="yes"/>
      <point x="137" y="661" type="line" smooth="yes"/>
      <point x="189" y="712" type="line" smooth="yes"/>
      <point x="251" y="736" type="line" smooth="yes"/>
      <point x="311" y="742" type="line" smooth="yes"/>
      <point x="328" y="742" type="line" smooth="yes"/>
      <point x="279" y="368" type="line" smooth="yes"/>
    </contour>
  </outline>
</glyph>
<glyph name="cedilla" format="1">
  <advance width="602"/>
  <unicode hex="00B8"/>
  <outline>
    <contour>
      <point x="90" y="-183" type="line" smooth="yes"/>
      <point x="107" y="-193" type="line" smooth="yes"/>
      <point x="128" y="-202" type="line" smooth="yes"/>
      <point x="152" y="-208" type="line" smooth="yes"/>
      <point x="177" y="-210" type="line" smooth="yes"/>
      <point x="216" y="-206" type="line" smooth="yes"/>
      <point x="248" y="-192" type="line" smooth="yes"/>
      <point x="270" y="-167" type="line" smooth="yes"/>
      <point x="278" y="-130" type="line" smooth="yes"/>
      <point x="270" y="-98" type="line" smooth="yes"/>
      <point x="250" y="-78" type="line" smooth="yes"/>
      <point x="223" y="-67" type="line" smooth="yes"/>
      <point x="193" y="-64" type="line" smooth="yes"/>
      <point x="188" y="-64" type="line" smooth="yes"/>
      <point x="221" y="0" type="line" smooth="yes"/>
      <point x="185" y="0" type="line" smooth="yes"/>
      <point x="143" y="-83" type="line" smooth="yes"/>
      <point x="157" y="-99" type="line" smooth="yes"/>
      <point x="159" y="-99" type="line" smooth="yes"/>
      <point x="165" y="-98" type="line" smooth="yes"/>
      <point x="174" y="-97" type="line" smooth="yes"/>
      <point x="185" y="-97" type="line" smooth="yes"/>
      <point x="207" y="-99" type="line" smooth="yes"/>
      <point x="226" y="-104" type="line" smooth="yes"/>
      <point x="239" y="-116" type="line" smooth="yes"/>
      <point x="244" y="-134" type="line" smooth="yes"/>
      <point x="239" y="-153" type="line" smooth="yes"/>
      <point x="226" y="-167" type="line" smooth="yes"/>
      <point x="205" y="-175" type="line" smooth="yes"/>
      <point x="177" y="-177" type="line" smooth="yes"/>
      <point x="155" y="-175" type="line" smooth="yes"/>
      <point x="135" y="-170" type="line" smooth="yes"/>
      <point x="118" y="-163" type="line" smooth="yes"/>
      <point x="105" y="-155" type="line" smooth="yes"/>
    </contour>
  </outline>
</glyph>
<glyph name="ordmasculine" format="1">
  <advance width="408"/>
  <unicode hex="00BA"/>
  <outline>
    <contour>
      <point x="30" y="223" type="line" smooth="yes"/>
      <point x="340" y="223" type="line" smooth="yes"/>
      <point x="344" y="258" type="line" smooth="yes"/>
      <point x="34" y="258" type="line" smooth="yes"/>
    </contour>
    <contour>
      <point x="110" y="593" type="line" smooth="yes"/>
      <point x="126" y="658" type="line" smooth="yes"/>
      <point x="155" y="709" type="line" smooth="yes"/>
      <point x="197" y="743" type="line" smooth="yes"/>
      <point x="254" y="755" type="line" smooth="yes"/>
      <point x="308" y="743" type="line" smooth="yes"/>
      <point x="342" y="710" type="line" smooth="yes"/>
      <point x="359" y="659" type="line" smooth="yes"/>
      <point x="358" y="593" type="line" smooth="yes"/>
      <point x="356" y="577" type="line" smooth="yes"/>
      <point x="340" y="512" type="line" smooth="yes"/>
      <point x="311" y="461" type="line" smooth="yes"/>
      <point x="269" y="427" type="line" smooth="yes"/>
      <point x="212" y="415" type="line" smooth="yes"/>
      <point x="158" y="427" type="line" smooth="yes"/>
      <point x="124" y="460" type="line" smooth="yes"/>
      <point x="107" y="511" type="line" smooth="yes"/>
      <point x="108" y="577" type="line" smooth="yes"/>
    </contour>
    <contour>
      <point x="396" y="593" type="line" smooth="yes"/>
      <point x="397" y="670" type="line" smooth="yes"/>
      <point x="376" y="732" type="line" smooth="yes"/>
      <point x="329" y="775" type="line" smooth="yes"/>
      <point x="254" y="790" type="line" smooth="yes"/>
      <point x="183" y="776" type="line" smooth="yes"/>
      <point x="129" y="737" type="line" smooth="yes"/>
      <point x="92" y="674" type="line" smooth="yes"/>
      <point x="72" y="593" type="line" smooth="yes"/>
      <point x="70" y="577" type="line" smooth="yes"/>
      <point x="69" y="500" type="line" smooth="yes"/>
      <point x="90" y="438" type="line" smooth="yes"/>
      <point x="137" y="395" type="line" smooth="yes"/>
      <point x="212" y="380" type="line" smooth="yes"/>
      <point x="283" y="394" type="line" smooth="yes"/>
      <point x="337" y="434" type="line" smooth="yes"/>
      <point x="374" y="496" type="line" smooth="yes"/>
      <point x="394" y="577" type="line" smooth="yes"/>
    </contour>
  </outline>
</glyph>
<glyph name="onehalf" format="1">
  <advance width="800"/>
  <unicode hex="00BD"/>
  <outline>
    <contour>
      <point x="727" y="32" type="line" smooth="yes"/>
      <point x="537" y="32" type="line" smooth="yes"/>
      <point x="701" y="185" type="line" smooth="yes"/>
      <point x="723" y="206" type="line" smooth="yes"/>
      <point x="741" y="228" type="line" smooth="yes"/>
      <point x="753" y="251" type="line" smooth="yes"/>
      <point x="760" y="280" type="line" smooth="yes"/>
      <point x="761" y="288" type="line" smooth="yes"/>
      <point x="759" y="331" type="line" smooth="yes"/>
      <point x="739" y="365" type="line" smooth="yes"/>
      <point x="703" y="387" type="line" smooth="yes"/>
      <point x="648" y="395" type="line" smooth="yes"/>
      <point x="595" y="387" type="line" smooth="yes"/>
      <point x="556" y="364" type="line" smooth="yes"/>
      <point x="529" y="327" type="line" smooth="yes"/>
      <point x="515" y="275" type="line" smooth="yes"/>
      <point x="513" y="260" type="line" smooth="yes"/>
      <point x="548" y="260" type="line" smooth="yes"/>
      <point x="560" y="307" type="line" smooth="yes"/>
      <point x="580" y="339" type="line" smooth="yes"/>
      <point x="608" y="357" type="line" smooth="yes"/>
      <point x="646" y="363" type="line" smooth="yes"/>
      <point x="650" y="363" type="line" smooth="yes"/>
      <point x="684" y="358" type="line" smooth="yes"/>
      <point x="709" y="344" type="line" smooth="yes"/>
      <point x="723" y="320" type="line" smooth="yes"/>
      <point x="725" y="288" type="line" smooth="yes"/>
      <point x="724" y="280" type="line" smooth="yes"/>
      <point x="718" y="258" type="line" smooth="yes"/>
      <point x="708" y="238" type="line" smooth="yes"/>
      <point x="693" y="220" type="line" smooth="yes"/>
      <point x="673" y="201" type="line" smooth="yes"/>
      <point x="482" y="22" type="line" smooth="yes"/>
      <point x="479" y="0" type="line" smooth="yes"/>
      <point x="723" y="0" type="line" smooth="yes"/>
    </contour>
    <contour>
      <point x="86" y="0" type="line" smooth="yes"/>
      <point x="764" y="780" type="line" smooth="yes"/>
      <point x="718" y="780" type="line" smooth="yes"/>
      <point x="40" y="0" type="line" smooth="yes"/>
    </contour>
    <contour>
      <point x="276" y="390" type="line" smooth="yes"/>
      <point x="280" y="422" type="line" smooth="yes"/>
      <point x="179" y="422" type="line" smooth="yes"/>
      <point x="226" y="782" type="line" smooth="yes"/>
      <point x="203" y="782" type="line" smooth="yes"/>
      <point x="70" y="699" type="line" smooth="yes"/>
      <point x="84" y="671" type="line" smooth="yes"/>
      <point x="184" y="733" type="line" smooth="yes"/>
      <point x="143" y="422" type="line" smooth="yes"/>
      <point x="41" y="422" type="line" smooth="yes"/>
      <point x="37" y="390" type="line" smooth="yes"/>
    </contour>
  </outline>
</glyph>
<glyph name="questiondown" format="1">
  <advance width="440"/>
  <unicode hex="00BF"/>
  <outline>
    <contour>
      <point x="270" y="530" type="line" smooth="yes"/>
      <point x="210" y="530" type="line" smooth="yes"/>
      <point x="203" y="470" type="line" smooth="yes"/>
      <point x="263" y="470" type="line" smooth="yes"/>
    </contour>
    <contour>
      <point x="142" y="-172" type="line" smooth="yes"/>
      <point x="84" y="-164" type="line" smooth="yes"/>
      <point x="46" y="-140" type="line" smooth="yes"/>
      <point x="24" y="-102" type="line" smooth="yes"/>
      <point x="18" y="-50" type="line" smooth="yes"/>
      <point x="48" y="62" type="line" smooth="yes"/>
      <point x="116" y="141" type="line" smooth="yes"/>
      <point x="188" y="226" type="line" smooth="yes"/>
      <point x="229" y="355" type="line" smooth="yes"/>
      <point x="205" y="355" type="line" smooth="yes"/>
      <point x="155" y="230" type="line" smooth="yes"/>
      <point x="78" y="153" type="line" smooth="yes"/>
      <point x="7" y="73" type="line" smooth="yes"/>
      <point x="-24" y="-60" type="line" smooth="yes"/>
      <point x="-15" y="-121" type="line" smooth="yes"/>
      <point x="15" y="-168" type="line" smooth="yes"/>
      <point x="66" y="-199" type="line" smooth="yes"/>
      <point x="142" y="-210" type="line" smooth="yes"/>
      <point x="233" y="-193" type="line" smooth="yes"/>
      <point x="298" y="-145" type="line" smooth="yes"/>
      <point x="342" y="-64" type="line" smooth="yes"/>
      <point x="368" y="47" type="line" smooth="yes"/>
      <point x="370" y="60" type="line" smooth="yes"/>
      <point x="330" y="60" type="line" smooth="yes"/>
      <point x="308" y="-40" type="line" smooth="yes"/>
      <point x="271" y="-113" type="line" smooth="yes"/>
      <point x="216" y="-157" type="line" smooth="yes"/>
    </contour>
  </outline>
</glyph>
<glyph name="Aacute" format="1">
  <advance width="600"/>
  <unicode hex="00C1"/>
  <outline>
    <contour>
      <point x="351" y="750" type="line" smooth="yes"/>
      <point x="433" y="249" type="line" smooth="yes"/>
      <point x="136" y="249" type="line" smooth="yes"/>
    </contour>
    <contour>
      <point x="325" y="790" type="line" smooth="yes"/>
      <point x="-15" y="0" type="line" smooth="yes"/>
      <point x="31" y="0" type="line" smooth="yes"/>
      <point x="120" y="211" type="line" smooth="yes"/>
      <point x="439" y="211" type="line" smooth="yes"/>
      <point x="475" y="0" type="line" smooth="yes"/>
      <point x="517" y="0" type="line" smooth="yes"/>
      <point x="385" y="790" type="line" smooth="yes"/>
    </contour>
    <contour>
      <point x="417" y="950" type="line" smooth="yes"/>
      <point x="340" y="840" type="line" smooth="yes"/>
      <point x="382" y="840" type="line" smooth="yes"/>
      <point x="459" y="950" type="line" smooth="yes"/>
    </contour>
  </outline>
</glyph>
<glyph name="Aring" format="1">
  <advance width="600"/>
  <unicode hex="00C5"/>
  <outline>
    <contour>
      <point x="307" y="860" type="line" smooth="yes"/>
      <point x="313" y="890" type="line" smooth="yes"/>
      <point x="327" y="911" type="line" smooth="yes"/>
      <point x="348" y="924" type="line" smooth="yes"/>
      <point x="372" y="928" type="line" smooth="yes"/>
      <point x="393" y="924" type="line" smooth="yes"/>
      <point x="409" y="914" type="line" smooth="yes"/>
      <point x="419" y="898" type="line" smooth="yes"/>
      <point x="423" y="880" type="line" smooth="yes"/>
      <point x="417" y="850" type="line" smooth="yes"/>
      <point x="403" y="829" type="line" smooth="yes"/>
      <point x="382" y="816" type="line" smooth="yes"/>
      <point x="358" y="812" type="line" smooth="yes"/>
      <point x="337" y="816" type="line" smooth="yes"/>
      <point x="321" y="826" type="line" smooth="yes"/>
      <point x="311" y="842" type="line" smooth="yes"/>
    </contour>
    <contour>
      <point x="351" y="750" type="line" smooth="yes"/>
      <point x="433" y="249" type="line" smooth="yes"/>
      <point x="136" y="249" type="line" smooth="yes"/>
    </contour>
    <contour>
      <point x="456" y="880" type="line" smooth="yes"/>
      <point x="450" y="911" type="line" smooth="yes"/>
      <point x="433" y="937" type="line" smooth="yes"/>
      <point x="406" y="954" type="line" smooth="yes"/>
      <point x="372" y="960" type="line" smooth="yes"/>
      <point x="333" y="952" type="line" smooth="yes"/>
      <point x="302" y="931" type="line" smooth="yes"/>
      <point x="281" y="899" type="line" smooth="yes"/>
      <point x="274" y="860" type="line" smooth="yes"/>
      <point x="277" y="836" type="line" smooth="yes"/>
      <point x="287" y="815" type="line" smooth="yes"/>
      <point x="303" y="798" type="line" smooth="yes"/>
      <point x="323" y="786" type="line" smooth="yes"/>
      <point x="-15" y="0" type="line" smooth="yes"/>
      <point x="31" y="0" type="line" smooth="yes"/>
      <point x="120" y="211" type="line" smooth="yes"/>
      <point x="439" y="211" type="line" smooth="yes"/>
      <point x="475" y="0" type="line" smooth="yes"/>
      <point x="517" y="0" type="line" smooth="yes"/>
      <point x="386" y="784" type="line" smooth="yes"/>
      <point x="415" y="798" type="line" smooth="yes"/>
      <point x="437" y="819" type="line" smooth="yes"/>
      <point x="451" y="847" type="line" smooth="yes"/>
    </contour>
  </outline>
</glyph>
<glyph name="Ccedilla" format="1">
  <advance width="604"/>
  <unicode hex="00C7"/>
  <outline>
    <contour>
      <point x="166" y="-183" type="line" smooth="yes"/>
      <point x="183" y="-193" type="line" smooth="yes"/>
      <point x="204" y="-202" type="line" smooth="yes"/>
      <point x="228" y="-208" type="line" smooth="yes"/>
      <point x="253" y="-210" type="line" smooth="yes"/>
      <point x="292" y="-206" type="line" smooth="yes"/>
      <point x="324" y="-192" type="line" smooth="yes"/>
      <point x="346" y="-167" type="line" smooth="yes"/>
      <point x="354" y="-130" type="line" smooth="yes"/>
      <point x="346" y="-98" type="line" smooth="yes"/>
      <point x="326" y="-78" type="line" smooth="yes"/>
      <point x="299" y="-67" type="line" smooth="yes"/>
      <point x="269" y="-64" type="line" smooth="yes"/>
      <point x="264" y="-64" type="line" smooth="yes"/>
      <point x="292" y="-10" type="line" smooth="yes"/>
      <point x="389" y="12" type="line" smooth="yes"/>
      <point x="461" y="63" type="line" smooth="yes"/>
      <point x="510" y="141" type="line" smooth="yes"/>
      <point x="534" y="241" type="line" smooth="yes"/>
      <point x="535" y="250" type="line" smooth="yes"/>
      <point x="493" y="250" type="line" smooth="yes"/>
      <point x="470" y="154" type="line" smooth="yes"/>
      <point x="428" y="85" type="line" smooth="yes"/>
      <point x="365" y="42" type="line" smooth="yes"/>
      <point x="279" y="28" type="line" smooth="yes"/>
      <point x="273" y="28" type="line" smooth="yes"/>
      <point x="182" y="47" type="line" smooth="yes"/>
      <point x="124" y="108" type="line" smooth="yes"/>
      <point x="98" y="217" type="line" smooth="yes"/>
      <point x="105" y="378" type="line" smooth="yes"/>
      <point x="108" y="402" type="line" smooth="yes"/>
      <point x="141" y="561" type="line" smooth="yes"/>
      <point x="194" y="670" type="line" smooth="yes"/>
      <point x="268" y="732" type="line" smooth="yes"/>
      <point x="364" y="752" type="line" smooth="yes"/>
      <point x="370" y="752" type="line" smooth="yes"/>
      <point x="454" y="738" type="line" smooth="yes"/>
      <point x="507" y="694" type="line" smooth="yes"/>
      <point x="531" y="615" type="line" smooth="yes"/>
      <point x="526" y="500" type="line" smooth="yes"/>
      <point x="568" y="500" type="line" smooth="yes"/>
      <point x="571" y="519" type="line" smooth="yes"/>
      <point x="574" y="633" type="line" smooth="yes"/>
      <point x="541" y="718" type="line" smooth="yes"/>
      <point x="473" y="772" type="line" smooth="yes"/>
      <point x="367" y="790" type="line" smooth="yes"/>
      <point x="253" y="768" type="line" smooth="yes"/>
      <point x="166" y="698" type="line" smooth="yes"/>
      <point x="103" y="577" type="line" smooth="yes"/>
      <point x="66" y="402" type="line" smooth="yes"/>
      <point x="63" y="378" type="line" smooth="yes"/>
      <point x="57" y="206" type="line" smooth="yes"/>
      <point x="88" y="87" type="line" smooth="yes"/>
      <point x="154" y="17" type="line" smooth="yes"/>
      <point x="256" y="-9" type="line" smooth="yes"/>
      <point x="219" y="-83" type="line" smooth="yes"/>
      <point x="233" y="-99" type="line" smooth="yes"/>
      <point x="235" y="-99" type="line" smooth="yes"/>
      <point x="241" y="-98" type="line" smooth="yes"/>
      <point x="250" y="-97" type="line" smooth="yes"/>
      <point x="261" y="-97" type="line" smooth="yes"/>
      <point x="283" y="-99" type="line" smooth="yes"/>
      <point x="302" y="-104" type="line" smooth="yes"/>
      <point x="315" y="-116" type="line" smooth="yes"/>
      <point x="320" y="-134" type="line" smooth="yes"/>
      <point x="315" y="-153" type="line" smooth="yes"/>
      <point x="302" y="-167" type="line" smooth="yes"/>
      <point x="281" y="-175" type="line" smooth="yes"/>
      <point x="253" y="-177" type="line" smooth="yes"/>
      <point x="231" y="-175" type="line" smooth="yes"/>
      <point x="211" y="-170" type="line" smooth="yes"/>
      <point x="194" y="-163" type="line" smooth="yes"/>
      <point x="181" y="-155" type="line" smooth="yes"/>
    </contour>
  </outline>
</glyph>
<glyph name="Eacute" format="1">
  <advance width="540"/>
  <unicode hex="00C9"/>
  <outline>
    <contour>
      <point x="417" y="950" type="line" smooth="yes"/>
      <point x="340" y="840" type="line" smooth="yes"/>
      <point x="382" y="840" type="line" smooth="yes"/>
      <point x="459" y="950" type="line" smooth="yes"/>
    </contour>
    <contour>
      <point x="133" y="780" type="line" smooth="yes"/>
      <point x="31" y="0" type="line" smooth="yes"/>
      <point x="451" y="0" type="line" smooth="yes"/>
      <point x="456" y="38" type="line" smooth="yes"/>
      <point x="76" y="38" type="line" smooth="yes"/>
      <point x="120" y="379" type="line" smooth="yes"/>
      <point x="450" y="379" type="line" smooth="yes"/>
      <point x="455" y="417" type="line" smooth="yes"/>
      <point x="125" y="417" type="line" smooth="yes"/>
      <point x="168" y="742" type="line" smooth="yes"/>
      <point x="548" y="742" type="line" smooth="yes"/>
      <point x="553" y="780" type="line" smooth="yes"/>
    </contour>
  </outline>
</glyph>
<glyph name="Edieresis" format="1">
  <advance width="540"/>
  <unicode hex="00CB"/>
  <outline>
    <contour>
      <point x="327" y="925" type="line" smooth="yes"/>
      <point x="267" y="925" type="line" smooth="yes"/>
      <point x="259" y="865" type="line" smooth="yes"/>
      <point x="319" y="865" type="line" smooth="yes"/>
    </contour>
    <contour>
      <point x="477" y="925" type="line" smooth="yes"/>
      <point x="417" y="925" type="line" smooth="yes"/>
      <point x="409" y="865" type="line" smooth="yes"/>
      <point x="469" y="865" type="line" smooth="yes"/>
    </contour>
    <contour>
      <point x="133" y="780" type="line" smooth="yes"/>
      <point x="31" y="0" type="line" smooth="yes"/>
      <point x="451" y="0" type="line" smooth="yes"/>
      <point x="456" y="38" type="line" smooth="yes"/>
      <point x="76" y="38" type="line" smooth="yes"/>
      <point x="120" y="379" type="line" smooth="yes"/>
      <point x="450" y="379" type="line" smooth="yes"/>
      <point x="455" y="417" type="line" smooth="yes"/>
      <point x="125" y="417" type="line" smooth="yes"/>
      <point x="168" y="742" type="line" smooth="yes"/>
      <point x="548" y="742" type="line" smooth="yes"/>
      <point x="553" y="780" type="line" smooth="yes"/>
    </contour>
  </outline>
</glyph>
<glyph name="Otilde" format="1">
  <advance width="637"/>
  <unicode hex="00D5"/>
  <outline>
    <contour>
      <point x="535" y="378" type="line" smooth="yes"/>
      <point x="502" y="219" type="line" smooth="yes"/>
      <point x="449" y="110" type="line" smooth="yes"/>
      <point x="375" y="48" type="line" smooth="yes"/>
      <point x="279" y="28" type="line" smooth="yes"/>
      <point x="273" y="28" type="line" smooth="yes"/>
      <point x="182" y="47" type="line" smooth="yes"/>
      <point x="124" y="108" type="line" smooth="yes"/>
      <point x="98" y="217" type="line" smooth="yes"/>
      <point x="105" y="378" type="line" smooth="yes"/>
      <point x="108" y="402" type="line" smooth="yes"/>
      <point x="141" y="561" type="line" smooth="yes"/>
      <point x="194" y="670" type="line" smooth="yes"/>
      <point x="268" y="732" type="line" smooth="yes"/>
      <point x="364" y="752" type="line" smooth="yes"/>
      <point x="370" y="752" type="line" smooth="yes"/>
      <point x="461" y="733" type="line" smooth="yes"/>
      <point x="519" y="672" type="line" smooth="yes"/>
      <point x="545" y="563" type="line" smooth="yes"/>
      <point x="538" y="402" type="line" smooth="yes"/>
    </contour>
    <contour>
      <point x="580" y="402" type="line" smooth="yes"/>
      <point x="586" y="580" type="line" smooth="yes"/>
      <point x="551" y="701" type="line" smooth="yes"/>
      <point x="478" y="769" type="line" smooth="yes"/>
      <point x="367" y="790" type="line" smooth="yes"/>
      <point x="253" y="768" type="line" smooth="yes"/>
      <point x="166" y="698" type="line" smooth="yes"/>
      <point x="103" y="577" type="line" smooth="yes"/>
      <point x="66" y="402" type="line" smooth="yes"/>
      <point x="63" y="378" type="line" smooth="yes"/>
      <point x="57" y="200" type="line" smooth="yes"/>
      <point x="92" y="79" type="line" smooth="yes"/>
      <point x="165" y="11" type="line" smooth="yes"/>
      <point x="276" y="-10" type="line" smooth="yes"/>
      <point x="390" y="12" type="line" smooth="yes"/>
      <point x="478" y="82" type="line" smooth="yes"/>
      <point x="540" y="203" type="line" smooth="yes"/>
      <point x="577" y="378" type="line" smooth="yes"/>
    </contour>
    <contour>
      <point x="497" y="932" type="line" smooth="yes"/>
      <point x="492" y="909" type="line" smooth="yes"/>
      <point x="482" y="893" type="line" smooth="yes"/>
      <point x="468" y="884" type="line" smooth="yes"/>
      <point x="451" y="881" type="line" smooth="yes"/>
      <point x="423" y="891" type="line" smooth="yes"/>
      <point x="396" y="912" type="line" smooth="yes"/>
      <point x="365" y="932" type="line" smooth="yes"/>
      <point x="327" y="942" type="line" smooth="yes"/>
      <point x="297" y="937" type="line" smooth="yes"/>
      <point x="272" y="921" type="line" smooth="yes"/>
      <point x="253" y="895" type="line" smooth="yes"/>
      <point x="243" y="858" type="line" smooth="yes"/>
      <point x="279" y="858" type="line" smooth="yes"/>
      <point x="285" y="881" type="line" smooth="yes"/>
      <point x="295" y="897" type="line" smooth="yes"/>
      <point x="308" y="906" type="line" smooth="yes"/>
      <point x="325" y="909" type="line" smooth="yes"/>
      <point x="353" y="899" type="line" smooth="yes"/>
      <point x="381" y="879" type="line" smooth="yes"/>
      <point x="412" y="858" type="line" smooth="yes"/>
      <point x="450" y="848" type="line" smooth="yes"/>
      <point x="480" y="853" type="line" smooth="yes"/>
      <point x="505" y="869" type="line" smooth="yes"/>
      <point x="523" y="895" type="line" smooth="yes"/>
      <point x="533" y="932" type="line" smooth="yes"/>
    </contour>
  </outline>
</glyph>
<glyph name="Odieresis" format="1">
  <advance width="637"/>
  <unicode hex="00D6"/>
  <outline>
    <contour>
      <point x="535" y="378" type="line" smooth="yes"/>
      <point x="502" y="219" type="line" smooth="yes"/>
      <point x="449" y="110" type="line" smooth="yes"/>
      <point x="375" y="48" type="line" smooth="yes"/>
      <point x="279" y="28" type="line" smooth="yes"/>
      <point x="273" y="28" type="line" smooth="yes"/>
      <point x="182" y="47" type="line" smooth="yes"/>
      <point x="124" y="108" type="line" smooth="yes"/>
      <point x="98" y="217" type="line" smooth="yes"/>
      <point x="105" y="378" type="line" smooth="yes"/>
      <point x="108" y="402" type="line" smooth="yes"/>
      <point x="141" y="561" type="line" smooth="yes"/>
      <point x="194" y="670" type="line" smooth="yes"/>
      <point x="268" y="732" type="line" smooth="yes"/>
      <point x="364" y="752" type="line" smooth="yes"/>
      <point x="370" y="752" type="line" smooth="yes"/>
      <point x="461" y="733" type="line" smooth="yes"/>
      <point x="519" y="672" type="line" smooth="yes"/>
      <point x="545" y="563" type="line" smooth="yes"/>
      <point x="538" y="402" type="line" smooth="yes"/>
    </contour>
    <contour>
      <point x="580" y="402" type="line" smooth="yes"/>
      <point x="586" y="580" type="line" smooth="yes"/>
      <point x="551" y="701" type="line" smooth="yes"/>
      <point x="478" y="769" type="line" smooth="yes"/>
      <point x="367" y="790" type="line" smooth="yes"/>
      <point x="253" y="768" type="line" smooth="yes"/>
      <point x="166" y="698" type="line" smooth="yes"/>
      <point x="103" y="577" type="line" smooth="yes"/>
      <point x="66" y="402" type="line" smooth="yes"/>
      <point x="63" y="378" type="line" smooth="yes"/>
      <point x="57" y="200" type="line" smooth="yes"/>
      <point x="92" y="79" type="line" smooth="yes"/>
      <point x="165" y="11" type="line" smooth="yes"/>
      <point x="276" y="-10" type="line" smooth="yes"/>
      <point x="390" y="12" type="line" smooth="yes"/>
      <point x="478" y="82" type="line" smooth="yes"/>
      <point x="540" y="203" type="line" smooth="yes"/>
      <point x="577" y="378" type="line" smooth="yes"/>
    </contour>
    <contour>
      <point x="497" y="925" type="line" smooth="yes"/>
      <point x="437" y="925" type="line" smooth="yes"/>
      <point x="429" y="865" type="line" smooth="yes"/>
      <point x="489" y="865" type="line" smooth="yes"/>
    </contour>
    <contour>
      <point x="347" y="925" type="line" smooth="yes"/>
      <point x="287" y="925" type="line" smooth="yes"/>
      <point x="279" y="865" type="line" smooth="yes"/>
      <point x="339" y="865" type="line" smooth="yes"/>
    </contour>
  </outline>
</glyph>
<glyph name="multiply" format="1">
  <advance width="600"/>
  <unicode hex="00D7"/>
  <outline>
    <contour>
      <point x="33" y="128" type="line" smooth="yes"/>
      <point x="297" y="361" type="line" smooth="yes"/>
      <point x="499" y="128" type="line" smooth="yes"/>
      <point x="532" y="157" type="line" smooth="yes"/>
      <point x="330" y="390" type="line" smooth="yes"/>
      <point x="594" y="623" type="line" smooth="yes"/>
      <point x="568" y="652" type="line" smooth="yes"/>
      <point x="305" y="419" type="line" smooth="yes"/>
      <point x="102" y="652" type="line" smooth="yes"/>
      <point x="70" y="623" type="line" smooth="yes"/>
      <point x="272" y="390" type="line" smooth="yes"/>
      <point x="8" y="157" type="line" smooth="yes"/>
    </contour>
  </outline>
</glyph>
<glyph name="Oslash" format="1">
  <advance width="626"/>
  <unicode hex="00D8"/>
  <outline>
    <contour>
      <point x="535" y="378" type="line" smooth="yes"/>
      <point x="502" y="219" type="line" smooth="yes"/>
      <point x="449" y="110" type="line" smooth="yes"/>
      <point x="375" y="48" type="line" smooth="yes"/>
      <point x="279" y="28" type="line" smooth="yes"/>
      <point x="273" y="28" type="line" smooth="yes"/>
      <point x="227" y="32" type="line" smooth="yes"/>
      <point x="188" y="44" type="line" smooth="yes"/>
      <point x="155" y="66" type="line" smooth="yes"/>
      <point x="130" y="96" type="line" smooth="yes"/>
      <point x="530" y="645" type="line" smooth="yes"/>
      <point x="541" y="599" type="line" smooth="yes"/>
      <point x="546" y="543" type="line" smooth="yes"/>
      <point x="545" y="478" type="line" smooth="yes"/>
      <point x="538" y="402" type="line" smooth="yes"/>
    </contour>
    <contour>
      <point x="105" y="378" type="line" smooth="yes"/>
      <point x="108" y="402" type="line" smooth="yes"/>
      <point x="141" y="561" type="line" smooth="yes"/>
      <point x="194" y="670" type="line" smooth="yes"/>
      <point x="268" y="732" type="line" smooth="yes"/>
      <point x="364" y="752" type="line" smooth="yes"/>
      <point x="370" y="752" type="line" smooth="yes"/>
      <point x="416" y="748" type="line" smooth="yes"/>
      <point x="455" y="736" type="line" smooth="yes"/>
      <point x="487" y="714" type="line" smooth="yes"/>
      <point x="512" y="683" type="line" smooth="yes"/>
      <point x="113" y="134" type="line" smooth="yes"/>
      <point x="102" y="181" type="line" smooth="yes"/>
      <point x="97" y="237" type="line" smooth="yes"/>
      <point x="98" y="302" type="line" smooth="yes"/>
    </contour>
    <contour>
      <point x="580" y="402" type="line" smooth="yes"/>
      <point x="588" y="492" type="line" smooth="yes"/>
      <point x="586" y="568" type="line" smooth="yes"/>
      <point x="577" y="633" type="line" smooth="yes"/>
      <point x="559" y="685" type="line" smooth="yes"/>
      <point x="628" y="780" type="line" smooth="yes"/>
      <point x="583" y="780" type="line" smooth="yes"/>
      <point x="538" y="719" type="line" smooth="yes"/>
      <point x="507" y="751" type="line" smooth="yes"/>
      <point x="468" y="773" type="line" smooth="yes"/>
      <point x="421" y="786" type="line" smooth="yes"/>
      <point x="367" y="790" type="line" smooth="yes"/>
      <point x="253" y="768" type="line" smooth="yes"/>
      <point x="166" y="698" type="line" smooth="yes"/>
      <point x="103" y="577" type="line" smooth="yes"/>
      <point x="66" y="402" type="line" smooth="yes"/>
      <point x="63" y="378" type="line" smooth="yes"/>
      <point x="55" y="288" type="line" smooth="yes"/>
      <point x="56" y="211" type="line" smooth="yes"/>
      <point x="66" y="147" type="line" smooth="yes"/>
      <point x="84" y="94" type="line" smooth="yes"/>
      <point x="15" y="0" type="line" smooth="yes"/>
      <point x="60" y="0" type="line" smooth="yes"/>
      <point x="104" y="61" type="line" smooth="yes"/>
      <point x="136" y="29" type="line" smooth="yes"/>
      <point x="175" y="7" type="line" smooth="yes"/>
      <point x="222" y="-6" type="line" smooth="yes"/>
      <point x="276" y="-10" type="line" smooth="yes"/>
      <point x="390" y="12" type="line" smooth="yes"/>
      <point x="478" y="82" type="line" smooth="yes"/>
      <point x="540" y="203" type="line" smooth="yes"/>
      <point x="577" y="378" type="line" smooth="yes"/>
    </contour>
  </outline>
</glyph>
<glyph name="Ucircumflex" format="1">
  <advance width="630"/>
  <unicode hex="00DB"/>
  <outline>
    <contour>
      <point x="273" y="-10" type="line" smooth="yes"/>
      <point x="374" y="2" type="line" smooth="yes"/>
      <point x="452" y="44" type="line" smooth="yes"/>
      <point x="506" y="121" type="line" smooth="yes"/>
      <point x="537" y="240" type="line" smooth="yes"/>
      <point x="608" y="780" type="line" smooth="yes"/>
      <point x="568" y="780" type="line" smooth="yes"/>
      <point x="498" y="245" type="line" smooth="yes"/>
      <point x="472" y="141" type="line" smooth="yes"/>
      <point x="426" y="74" type="line" smooth="yes"/>
      <point x="360" y="38" type="line" smooth="yes"/>
      <point x="273" y="28" type="line" smooth="yes"/>
      <point x="188" y="38" type="line" smooth="yes"/>
      <point x="129" y="74" type="line" smooth="yes"/>
      <point x="98" y="140" type="line" smooth="yes"/>
      <point x="98" y="245" type="line" smooth="yes"/>
      <point x="168" y="780" type="line" smooth="yes"/>
      <point x="128" y="780" type="line" smooth="yes"/>
      <point x="57" y="240" type="line" smooth="yes"/>
      <point x="59" y="120" type="line" smooth="yes"/>
      <point x="99" y="43" type="line" smooth="yes"/>
      <point x="172" y="2" type="line" smooth="yes"/>
    </contour>
    <contour>
      <point x="308" y="840" type="line" smooth="yes"/>
      <point x="388" y="917" type="line" smooth="yes"/>
      <point x="448" y="840" type="line" smooth="yes"/>
      <point x="491" y="840" type="line" smooth="yes"/>
      <point x="406" y="950" type="line" smooth="yes"/>
      <point x="376" y="950" type="line" smooth="yes"/>
      <point x="261" y="840" type="line" smooth="yes"/>
    </contour>
  </outline>
</glyph>
<glyph name="germandbls" format="1">
  <advance width="548"/>
  <unicode hex="00DF"/>
  <outline>
    <contour>
      <point x="256" y="382" type="line" smooth="yes"/>
      <point x="321" y="336" type="line" smooth="yes"/>
      <point x="385" y="287" type="line" smooth="yes"/>
      <point x="426" y="243" type="line" smooth="yes"/>
      <point x="446" y="199" type="line" smooth="yes"/>
      <point x="448" y="150" type="line" smooth="yes"/>
      <point x="435" y="103" type="line" smooth="yes"/>
      <point x="409" y="64" type="line" smooth="yes"/>
      <point x="367" y="38" type="line" smooth="yes"/>
      <point x="307" y="28" type="line" smooth="yes"/>
      <point x="242" y="39" type="line" smooth="yes"/>
      <point x="206" y="68" type="line" smooth="yes"/>
      <point x="191" y="110" type="line" smooth="yes"/>
      <point x="192" y="160" type="line" smooth="yes"/>
      <point x="153" y="160" type="line" smooth="yes"/>
      <point x="152" y="152" type="line" smooth="yes"/>
      <point x="152" y="96" type="line" smooth="yes"/>
      <point x="171" y="44" type="line" smooth="yes"/>
      <point x="220" y="5" type="line" smooth="yes"/>
      <point x="307" y="-10" type="line" smooth="yes"/>
      <point x="387" y="4" type="line" smooth="yes"/>
      <point x="442" y="40" type="line" smooth="yes"/>
      <point x="475" y="90" type="line" smooth="yes"/>
      <point x="490" y="145" type="line" smooth="yes"/>
      <point x="491" y="153" type="line" smooth="yes"/>
      <point x="487" y="211" type="line" smooth="yes"/>
      <point x="463" y="262" type="line" smooth="yes"/>
      <point x="420" y="310" type="line" smooth="yes"/>
      <point x="363" y="356" type="line" smooth="yes"/>
      <point x="312" y="393" type="line" smooth="yes"/>
      <point x="384" y="442" type="line" smooth="yes"/>
      <point x="435" y="493" type="line" smooth="yes"/>
      <point x="467" y="547" type="line" smooth="yes"/>
      <point x="482" y="607" type="line" smooth="yes"/>
      <point x="483" y="615" type="line" smooth="yes"/>
      <point x="481" y="695" type="line" smooth="yes"/>
      <point x="452" y="757" type="line" smooth="yes"/>
      <point x="394" y="796" type="line" smooth="yes"/>
      <point x="309" y="810" type="line" smooth="yes"/>
      <point x="229" y="797" type="line" smooth="yes"/>
      <point x="167" y="760" type="line" smooth="yes"/>
      <point x="124" y="698" type="line" smooth="yes"/>
      <point x="101" y="614" type="line" smooth="yes"/>
      <point x="21" y="0" type="line" smooth="yes"/>
      <point x="61" y="0" type="line" smooth="yes"/>
      <point x="141" y="610" type="line" smooth="yes"/>
      <point x="159" y="680" type="line" smooth="yes"/>
      <point x="194" y="730" type="line" smooth="yes"/>
      <point x="243" y="760" type="line" smooth="yes"/>
      <point x="309" y="770" type="line" smooth="yes"/>
      <point x="376" y="759" type="line" smooth="yes"/>
      <point x="419" y="726" type="line" smooth="yes"/>
      <point x="440" y="676" type="line" smooth="yes"/>
      <point x="440" y="611" type="line" smooth="yes"/>
      <point x="424" y="552" type="line" smooth="yes"/>
      <point x="390" y="501" type="line" smooth="yes"/>
      <point x="337" y="455" type="line" smooth="yes"/>
      <point x="259" y="410" type="line" smooth="yes"/>
    </contour>
  </outline>
</glyph>
<glyph name="atilde" format="1">
  <advance width="500"/>
  <unicode hex="00E3"/>
  <outline>
    <contour>
      <point x="160" y="28" type="line" smooth="yes"/>
      <point x="113" y="37" type="line" smooth="yes"/>
      <point x="80" y="61" type="line" smooth="yes"/>
      <point x="62" y="95" type="line" smooth="yes"/>
      <point x="60" y="134" type="line" smooth="yes"/>
      <point x="62" y="150" type="line" smooth="yes"/>
      <point x="76" y="195" type="line" smooth="yes"/>
      <point x="105" y="227" type="line" smooth="yes"/>
      <point x="148" y="248" type="line" smooth="yes"/>
      <point x="203" y="261" type="line" smooth="yes"/>
      <point x="379" y="289" type="line" smooth="yes"/>
      <point x="358" y="129" type="line" smooth="yes"/>
      <point x="334" y="99" type="line" smooth="yes"/>
      <point x="295" y="66" type="line" smooth="yes"/>
      <point x="237" y="39" type="line" smooth="yes"/>
    </contour>
    <contour>
      <point x="356" y="0" type="line" smooth="yes"/>
      <point x="386" y="0" type="line" smooth="yes"/>
      <point x="400" y="150" type="line" smooth="yes"/>
      <point x="426" y="345" type="line" smooth="yes"/>
      <point x="428" y="425" type="line" smooth="yes"/>
      <point x="406" y="486" type="line" smooth="yes"/>
      <point x="353" y="526" type="line" smooth="yes"/>
      <point x="263" y="540" type="line" smooth="yes"/>
      <point x="175" y="524" type="line" smooth="yes"/>
      <point x="117" y="483" type="line" smooth="yes"/>
      <point x="84" y="428" type="line" smooth="yes"/>
      <point x="69" y="369" type="line" smooth="yes"/>
      <point x="67" y="355" type="line" smooth="yes"/>
      <point x="107" y="355" type="line" smooth="yes"/>
      <point x="119" y="411" type="line" smooth="yes"/>
      <point x="146" y="458" type="line" smooth="yes"/>
      <point x="192" y="490" type="line" smooth="yes"/>
      <point x="263" y="502" type="line" smooth="yes"/>
      <point x="331" y="493" type="line" smooth="yes"/>
      <point x="371" y="465" type="line" smooth="yes"/>
      <point x="389" y="418" type="line" smooth="yes"/>
      <point x="387" y="350" type="line" smooth="yes"/>
      <point x="384" y="326" type="line" smooth="yes"/>
      <point x="208" y="298" type="line" smooth="yes"/>
      <point x="145" y="285" type="line" smooth="yes"/>
      <point x="88" y="261" type="line" smooth="yes"/>
      <point x="43" y="217" type="line" smooth="yes"/>
      <point x="20" y="147" type="line" smooth="yes"/>
      <point x="18" y="131" type="line" smooth="yes"/>
      <point x="23" y="73" type="line" smooth="yes"/>
      <point x="52" y="29" type="line" smooth="yes"/>
      <point x="99" y="0" type="line" smooth="yes"/>
      <point x="160" y="-10" type="line" smooth="yes"/>
      <point x="225" y="-2" type="line" smooth="yes"/>
      <point x="279" y="18" type="line" smooth="yes"/>
      <point x="323" y="47" type="line" smooth="yes"/>
      <point x="357" y="80" type="line" smooth="yes"/>
    </contour>
    <contour>
      <point x="403" y="737" type="line" smooth="yes"/>
      <point x="397" y="714" type="line" smooth="yes"/>
      <point x="387" y="698" type="line" smooth="yes"/>
      <point x="374" y="690" type="line" smooth="yes"/>
      <point x="359" y="687" type="line" smooth="yes"/>
      <point x="329" y="696" type="line" smooth="yes"/>
      <point x="300" y="717" type="line" smooth="yes"/>
      <point x="268" y="738" type="line" smooth="yes"/>
      <point x="229" y="747" type="line" smooth="yes"/>
      <point x="199" y="742" type="line" smooth="yes"/>
      <point x="175" y="726" type="line" smooth="yes"/>
      <point x="158" y="700" type="line" smooth="yes"/>
      <point x="148" y="663" type="line" smooth="yes"/>
      <point x="183" y="663" type="line" smooth="yes"/>
      <point x="189" y="686" type="line" smooth="yes"/>
      <point x="199" y="702" type="line" smooth="yes"/>
      <point x="211" y="710" type="line" smooth="yes"/>
      <point x="226" y="713" type="line" smooth="yes"/>
      <point x="256" y="704" type="line" smooth="yes"/>
      <point x="285" y="683" type="line" smooth="yes"/>
      <point x="317" y="662" type="line" smooth="yes"/>
      <point x="356" y="653" type="line" smooth="yes"/>
      <point x="386" y="658" type="line" smooth="yes"/>
      <point x="410" y="674" type="line" smooth="yes"/>
      <point x="428" y="700" type="line" smooth="yes"/>
      <point x="438" y="737" type="line" smooth="yes"/>
    </contour>
  </outline>
</glyph>
<glyph name="aring" format="1">
  <advance width="498"/>
  <unicode hex="00E5"/>
  <outline>
    <contour>
      <point x="230" y="690" type="line" smooth="yes"/>
      <point x="236" y="720" type="line" smooth="yes"/>
      <point x="250" y="741" type="line" smooth="yes"/>
      <point x="271" y="754" type="line" smooth="yes"/>
      <point x="295" y="758" type="line" smooth="yes"/>
      <point x="316" y="754" type="line" smooth="yes"/>
      <point x="332" y="744" type="line" smooth="yes"/>
      <point x="342" y="728" type="line" smooth="yes"/>
      <point x="346" y="710" type="line" smooth="yes"/>
      <point x="340" y="680" type="line" smooth="yes"/>
      <point x="326" y="659" type="line" smooth="yes"/>
      <point x="305" y="646" type="line" smooth="yes"/>
      <point x="281" y="642" type="line" smooth="yes"/>
      <point x="260" y="646" type="line" smooth="yes"/>
      <point x="244" y="656" type="line" smooth="yes"/>
      <point x="234" y="672" type="line" smooth="yes"/>
    </contour>
    <contour>
      <point x="379" y="710" type="line" smooth="yes"/>
      <point x="373" y="741" type="line" smooth="yes"/>
      <point x="356" y="767" type="line" smooth="yes"/>
      <point x="329" y="784" type="line" smooth="yes"/>
      <point x="295" y="790" type="line" smooth="yes"/>
      <point x="256" y="782" type="line" smooth="yes"/>
      <point x="225" y="761" type="line" smooth="yes"/>
      <point x="204" y="729" type="line" smooth="yes"/>
      <point x="197" y="690" type="line" smooth="yes"/>
      <point x="203" y="659" type="line" smooth="yes"/>
      <point x="220" y="633" type="line" smooth="yes"/>
      <point x="247" y="616" type="line" smooth="yes"/>
      <point x="281" y="610" type="line" smooth="yes"/>
      <point x="320" y="618" type="line" smooth="yes"/>
      <point x="351" y="639" type="line" smooth="yes"/>
      <point x="372" y="671" type="line" smooth="yes"/>
    </contour>
    <contour>
      <point x="160" y="28" type="line" smooth="yes"/>
      <point x="113" y="37" type="line" smooth="yes"/>
      <point x="80" y="61" type="line" smooth="yes"/>
      <point x="62" y="95" type="line" smooth="yes"/>
      <point x="60" y="134" type="line" smooth="yes"/>
      <point x="62" y="150" type="line" smooth="yes"/>
      <point x="76" y="195" type="line" smooth="yes"/>
      <point x="105" y="227" type="line" smooth="yes"/>
      <point x="148" y="248" type="line" smooth="yes"/>
      <point x="203" y="261" type="line" smooth="yes"/>
      <point x="379" y="289" type="line" smooth="yes"/>
      <point x="358" y="129" type="line" smooth="yes"/>
      <point x="334" y="99" type="line" smooth="yes"/>
      <point x="295" y="66" type="line" smooth="yes"/>
      <point x="237" y="39" type="line" smooth="yes"/>
    </contour>
    <contour>
      <point x="356" y="0" type="line" smooth="yes"/>
      <point x="386" y="0" type="line" smooth="yes"/>
      <point x="400" y="150" type="line" smooth="yes"/>
      <point x="426" y="345" type="line" smooth="yes"/>
      <point x="428" y="425" type="line" smooth="yes"/>
      <point x="406" y="486" type="line" smooth="yes"/>
      <point x="353" y="526" type="line" smooth="yes"/>
      <point x="263" y="540" type="line" smooth="yes"/>
      <point x="175" y="524" type="line" smooth="yes"/>
      <point x="117" y="483" type="line" smooth="yes"/>
      <point x="84" y="428" type="line" smooth="yes"/>
      <point x="69" y="369" type="line" smooth="yes"/>
      <point x="67" y="355" type="line" smooth="yes"/>
      <point x="107" y="355" type="line" smooth="yes"/>
      <point x="119" y="411" type="line" smooth="yes"/>
      <point x="146" y="458" type="line" smooth="yes"/>
      <point x="192" y="490" type="line" smooth="yes"/>
      <point x="263" y="502" type="line" smooth="yes"/>
      <point x="331" y="493" type="line" smooth="yes"/>
      <point x="371" y="465" type="line" smooth="yes"/>
      <point x="389" y="418" type="line" smooth="yes"/>
      <point x="387" y="350" type="line" smooth="yes"/>
      <point x="384" y="326" type="line" smooth="yes"/>
      <point x="208" y="298" type="line" smooth="yes"/>
      <point x="145" y="285" type="line" smooth="yes"/>
      <point x="88" y="261" type="line" smooth="yes"/>
      <point x="43" y="217" type="line" smooth="yes"/>
      <point x="20" y="147" type="line" smooth="yes"/>
      <point x="18" y="131" type="line" smooth="yes"/>
      <point x="23" y="73" type="line" smooth="yes"/>
      <point x="52" y="29" type="line" smooth="yes"/>
      <point x="99" y="0" type="line" smooth="yes"/>
      <point x="160" y="-10" type="line" smooth="yes"/>
      <point x="225" y="-2" type="line" smooth="yes"/>
      <point x="279" y="18" type="line" smooth="yes"/>
      <point x="323" y="47" type="line" smooth="yes"/>
      <point x="357" y="80" type="line" smooth="yes"/>
    </contour>
  </outline>
</glyph>
<glyph name="ae" format="1">
  <advance width="872"/>
  <unicode hex="00E6"/>
  <outline>
    <contour>
      <point x="160" y="28" type="line" smooth="yes"/>
      <point x="113" y="37" type="line" smooth="yes"/>
      <point x="80" y="61" type="line" smooth="yes"/>
      <point x="62" y="95" type="line" smooth="yes"/>
      <point x="60" y="134" type="line" smooth="yes"/>
      <point x="62" y="150" type="line" smooth="yes"/>
      <point x="76" y="195" type="line" smooth="yes"/>
      <point x="105" y="227" type="line" smooth="yes"/>
      <point x="148" y="248" type="line" smooth="yes"/>
      <point x="203" y="261" type="line" smooth="yes"/>
      <point x="379" y="289" type="line" smooth="yes"/>
      <point x="375" y="259" type="line" smooth="yes"/>
      <point x="372" y="231" type="line" smooth="yes"/>
      <point x="371" y="205" type="line" smooth="yes"/>
      <point x="372" y="179" type="line" smooth="yes"/>
      <point x="375" y="154" type="line" smooth="yes"/>
      <point x="341" y="107" type="line" smooth="yes"/>
      <point x="295" y="67" type="line" smooth="yes"/>
      <point x="236" y="39" type="line" smooth="yes"/>
    </contour>
    <contour>
      <point x="624" y="502" type="line" smooth="yes"/>
      <point x="698" y="487" type="line" smooth="yes"/>
      <point x="747" y="444" type="line" smooth="yes"/>
      <point x="770" y="375" type="line" smooth="yes"/>
      <point x="768" y="284" type="line" smooth="yes"/>
      <point x="420" y="284" type="line" smooth="yes"/>
      <point x="442" y="371" type="line" smooth="yes"/>
      <point x="485" y="440" type="line" smooth="yes"/>
      <point x="547" y="486" type="line" smooth="yes"/>
    </contour>
    <contour>
      <point x="804" y="246" type="line" smooth="yes"/>
      <point x="808" y="278" type="line" smooth="yes"/>
      <point x="809" y="379" type="line" smooth="yes"/>
      <point x="782" y="462" type="line" smooth="yes"/>
      <point x="722" y="519" type="line" smooth="yes"/>
      <point x="624" y="540" type="line" smooth="yes"/>
      <point x="557" y="531" type="line" smooth="yes"/>
      <point x="501" y="505" type="line" smooth="yes"/>
      <point x="457" y="463" type="line" smooth="yes"/>
      <point x="423" y="409" type="line" smooth="yes"/>
      <point x="413" y="463" type="line" smooth="yes"/>
      <point x="386" y="505" type="line" smooth="yes"/>
      <point x="337" y="531" type="line" smooth="yes"/>
      <point x="263" y="540" type="line" smooth="yes"/>
      <point x="175" y="524" type="line" smooth="yes"/>
      <point x="117" y="483" type="line" smooth="yes"/>
      <point x="84" y="428" type="line" smooth="yes"/>
      <point x="69" y="369" type="line" smooth="yes"/>
      <point x="67" y="355" type="line" smooth="yes"/>
      <point x="107" y="355" type="line" smooth="yes"/>
      <point x="119" y="411" type="line" smooth="yes"/>
      <point x="146" y="458" type="line" smooth="yes"/>
      <point x="192" y="490" type="line" smooth="yes"/>
      <point x="263" y="502" type="line" smooth="yes"/>
      <point x="331" y="493" type="line" smooth="yes"/>
      <point x="371" y="465" type="line" smooth="yes"/>
      <point x="389" y="418" type="line" smooth="yes"/>
      <point x="387" y="350" type="line" smooth="yes"/>
      <point x="384" y="326" type="line" smooth="yes"/>
      <point x="208" y="298" type="line" smooth="yes"/>
      <point x="145" y="285" type="line" smooth="yes"/>
      <point x="88" y="261" type="line" smooth="yes"/>
      <point x="43" y="217" type="line" smooth="yes"/>
      <point x="20" y="147" type="line" smooth="yes"/>
      <point x="18" y="131" type="line" smooth="yes"/>
      <point x="23" y="73" type="line" smooth="yes"/>
      <point x="52" y="29" type="line" smooth="yes"/>
      <point x="99" y="0" type="line" smooth="yes"/>
      <point x="160" y="-10" type="line" smooth="yes"/>
      <point x="225" y="-2" type="line" smooth="yes"/>
      <point x="285" y="21" type="line" smooth="yes"/>
      <point x="339" y="58" type="line" smooth="yes"/>
      <point x="385" y="110" type="line" smooth="yes"/>
      <point x="411" y="61" type="line" smooth="yes"/>
      <point x="451" y="23" type="line" smooth="yes"/>
      <point x="507" y="-1" type="line" smooth="yes"/>
      <point x="580" y="-10" type="line" smooth="yes"/>
      <point x="669" y="5" type="line" smooth="yes"/>
      <point x="733" y="45" type="line" smooth="yes"/>
      <point x="774" y="101" type="line" smooth="yes"/>
      <point x="793" y="163" type="line" smooth="yes"/>
      <point x="794" y="170" type="line" smooth="yes"/>
      <point x="754" y="170" type="line" smooth="yes"/>
      <point x="740" y="120" type="line" smooth="yes"/>
      <point x="709" y="75" type="line" smooth="yes"/>
      <point x="657" y="41" type="line" smooth="yes"/>
      <point x="580" y="28" type="line" smooth="yes"/>
      <point x="495" y="44" type="line" smooth="yes"/>
      <point x="442" y="88" type="line" smooth="yes"/>
      <point x="416" y="157" type="line" smooth="yes"/>
      <point x="416" y="246" type="line" smooth="yes"/>
    </contour>
  </outline>
</glyph>
<glyph name="ccedilla" format="1">
  <advance width="518"/>
  <unicode hex="00E7"/>
  <outline>
    <contour>
      <point x="119" y="-183" type="line" smooth="yes"/>
      <point x="136" y="-193" type="line" smooth="yes"/>
      <point x="157" y="-202" type="line" smooth="yes"/>
      <point x="181" y="-208" type="line" smooth="yes"/>
      <point x="206" y="-210" type="line" smooth="yes"/>
      <point x="245" y="-206" type="line" smooth="yes"/>
      <point x="277" y="-192" type="line" smooth="yes"/>
      <point x="299" y="-167" type="line" smooth="yes"/>
      <point x="307" y="-130" type="line" smooth="yes"/>
      <point x="299" y="-98" type="line" smooth="yes"/>
      <point x="279" y="-78" type="line" smooth="yes"/>
      <point x="252" y="-67" type="line" smooth="yes"/>
      <point x="222" y="-64" type="line" smooth="yes"/>
      <point x="217" y="-64" type="line" smooth="yes"/>
      <point x="245" y="-10" type="line" smooth="yes"/>
      <point x="331" y="9" type="line" smooth="yes"/>
      <point x="388" y="53" type="line" smooth="yes"/>
      <point x="421" y="108" type="line" smooth="yes"/>
      <point x="437" y="166" type="line" smooth="yes"/>
      <point x="439" y="180" type="line" smooth="yes"/>
      <point x="399" y="180" type="line" smooth="yes"/>
      <point x="385" y="123" type="line" smooth="yes"/>
      <point x="355" y="75" type="line" smooth="yes"/>
      <point x="306" y="41" type="line" smooth="yes"/>
      <point x="234" y="28" type="line" smooth="yes"/>
      <point x="157" y="45" type="line" smooth="yes"/>
      <point x="106" y="92" type="line" smooth="yes"/>
      <point x="81" y="166" type="line" smooth="yes"/>
      <point x="81" y="262" type="line" smooth="yes"/>
      <point x="83" y="278" type="line" smooth="yes"/>
      <point x="105" y="371" type="line" smooth="yes"/>
      <point x="145" y="442" type="line" smooth="yes"/>
      <point x="202" y="486" type="line" smooth="yes"/>
      <point x="278" y="502" type="line" smooth="yes"/>
      <point x="349" y="489" type="line" smooth="yes"/>
      <point x="396" y="455" type="line" smooth="yes"/>
      <point x="419" y="403" type="line" smooth="yes"/>
      <point x="421" y="340" type="line" smooth="yes"/>
      <point x="460" y="340" type="line" smooth="yes"/>
      <point x="462" y="355" type="line" smooth="yes"/>
      <point x="460" y="414" type="line" smooth="yes"/>
      <point x="434" y="475" type="line" smooth="yes"/>
      <point x="376" y="521" type="line" smooth="yes"/>
      <point x="278" y="540" type="line" smooth="yes"/>
      <point x="182" y="520" type="line" smooth="yes"/>
      <point x="112" y="466" type="line" smooth="yes"/>
      <point x="66" y="382" type="line" smooth="yes"/>
      <point x="41" y="275" type="line" smooth="yes"/>
      <point x="39" y="259" type="line" smooth="yes"/>
      <point x="39" y="159" type="line" smooth="yes"/>
      <point x="66" y="77" type="line" smooth="yes"/>
      <point x="123" y="18" type="line" smooth="yes"/>
      <point x="209" y="-9" type="line" smooth="yes"/>
      <point x="172" y="-83" type="line" smooth="yes"/>
      <point x="186" y="-99" type="line" smooth="yes"/>
      <point x="188" y="-99" type="line" smooth="yes"/>
      <point x="194" y="-98" type="line" smooth="yes"/>
      <point x="203" y="-97" type="line" smooth="yes"/>
      <point x="214" y="-97" type="line" smooth="yes"/>
      <point x="236" y="-99" type="line" smooth="yes"/>
      <point x="255" y="-104" type="line" smooth="yes"/>
      <point x="268" y="-116" type="line" smooth="yes"/>
      <point x="273" y="-134" type="line" smooth="yes"/>
      <point x="268" y="-153" type="line" smooth="yes"/>
      <point x="255" y="-167" type="line" smooth="yes"/>
      <point x="234" y="-175" type="line" smooth="yes"/>
      <point x="206" y="-177" type="line" smooth="yes"/>
      <point x="184" y="-175" type="line" smooth="yes"/>
      <point x="164" y="-170" type="line" smooth="yes"/>
      <point x="147" y="-163" type="line" smooth="yes"/>
      <point x="134" y="-155" type="line" smooth="yes"/>
    </contour>
  </outline>
</glyph>
<glyph name="ecircumflex" format="1">
  <advance width="537"/>
  <unicode hex="00EA"/>
  <outline>
    <contour>
      <point x="288" y="502" type="line" smooth="yes"/>
      <point x="362" y="487" type="line" smooth="yes"/>
      <point x="411" y="444" type="line" smooth="yes"/>
      <point x="434" y="375" type="line" smooth="yes"/>
      <point x="432" y="284" type="line" smooth="yes"/>
      <point x="84" y="284" type="line" smooth="yes"/>
      <point x="106" y="371" type="line" smooth="yes"/>
      <point x="149" y="440" type="line" smooth="yes"/>
      <point x="211" y="486" type="line" smooth="yes"/>
    </contour>
    <contour>
      <point x="468" y="246" type="line" smooth="yes"/>
      <point x="472" y="278" type="line" smooth="yes"/>
      <point x="473" y="379" type="line" smooth="yes"/>
      <point x="446" y="462" type="line" smooth="yes"/>
      <point x="386" y="519" type="line" smooth="yes"/>
      <point x="288" y="540" type="line" smooth="yes"/>
      <point x="191" y="520" type="line" smooth="yes"/>
      <point x="117" y="466" type="line" smooth="yes"/>
      <point x="67" y="382" type="line" smooth="yes"/>
      <point x="41" y="275" type="line" smooth="yes"/>
      <point x="39" y="259" type="line" smooth="yes"/>
      <point x="39" y="155" type="line" smooth="yes"/>
      <point x="69" y="70" type="line" smooth="yes"/>
      <point x="136" y="12" type="line" smooth="yes"/>
      <point x="244" y="-10" type="line" smooth="yes"/>
      <point x="333" y="5" type="line" smooth="yes"/>
      <point x="397" y="45" type="line" smooth="yes"/>
      <point x="438" y="101" type="line" smooth="yes"/>
      <point x="457" y="163" type="line" smooth="yes"/>
      <point x="458" y="170" type="line" smooth="yes"/>
      <point x="418" y="170" type="line" smooth="yes"/>
      <point x="404" y="120" type="line" smooth="yes"/>
      <point x="373" y="75" type="line" smooth="yes"/>
      <point x="321" y="41" type="line" smooth="yes"/>
      <point x="244" y="28" type="line" smooth="yes"/>
      <point x="159" y="44" type="line" smooth="yes"/>
      <point x="106" y="88" type="line" smooth="yes"/>
      <point x="80" y="157" type="line" smooth="yes"/>
      <point x="80" y="246" type="line" smooth="yes"/>
    </contour>
    <contour>
      <point x="204" y="620" type="line" smooth="yes"/>
      <point x="320" y="744" type="line" smooth="yes"/>
      <point x="404" y="620" type="line" smooth="yes"/>
      <point x="447" y="620" type="line" smooth="yes"/>
      <point x="338" y="780" type="line" smooth="yes"/>
      <point x="308" y="780" type="line" smooth="yes"/>
      <point x="157" y="620" type="line" smooth="yes"/>
    </contour>
  </outline>
</glyph>
<glyph name="igrave" format="1">
  <advance width="200"/>
  <unicode hex="00EC"/>
  <outline>
    <contour>
      <point x="42" y="780" type="line" smooth="yes"/>
      <point x="111" y="620" type="line" smooth="yes"/>
      <point x="153" y="620" type="line" smooth="yes"/>
      <point x="84" y="780" type="line" smooth="yes"/>
    </contour>
    <contour>
      <point x="31" y="0" type="line" smooth="yes"/>
      <point x="71" y="0" type="line" smooth="yes"/>
      <point x="140" y="530" type="line" smooth="yes"/>
      <point x="100" y="530" type="line" smooth="yes"/>
    </contour>
  </outline>
</glyph>
<glyph name="iacute" format="1">
  <advance width="200"/>
  <unicode hex="00ED"/>
  <outline>
    <contour>
      <point x="222" y="780" type="line" smooth="yes"/>
      <point x="111" y="620" type="line" smooth="yes"/>
      <point x="153" y="620" type="line" smooth="yes"/>
      <point x="264" y="780" type="line" smooth="yes"/>
    </contour>
    <contour>
      <point x="31" y="0" type="line" smooth="yes"/>
      <point x="71" y="0" type="line" smooth="yes"/>
      <point x="140" y="530" type="line" smooth="yes"/>
      <point x="100" y="530" type="line" smooth="yes"/>
    </contour>
  </outline>
</glyph>
<glyph name="icircumflex" format="1">
  <advance width="200"/>
  <unicode hex="00EE"/>
  <outline>
    <contour>
      <point x="34" y="620" type="line" smooth="yes"/>
      <point x="150" y="744" type="line" smooth="yes"/>
      <point x="234" y="620" type="line" smooth="yes"/>
      <point x="277" y="620" type="line" smooth="yes"/>
      <point x="168" y="780" type="line" smooth="yes"/>
      <point x="138" y="780" type="line" smooth="yes"/>
      <point x="-13" y="620" type="line" smooth="yes"/>
    </contour>
    <contour>
      <point x="31" y="0" type="line" smooth="yes"/>
      <point x="71" y="0" type="line" smooth="yes"/>
      <point x="140" y="530" type="line" smooth="yes"/>
      <point x="100" y="530" type="line" smooth="yes"/>
    </contour>
  </outline>
</glyph>
<glyph name="eth" format="1">
  <advance width="539"/>
  <unicode hex="00F0"/>
  <outline>
    <contour>
      <point x="229" y="28" type="line" smooth="yes"/>
      <point x="153" y="45" type="line" smooth="yes"/>
      <point x="104" y="92" type="line" smooth="yes"/>
      <point x="80" y="166" type="line" smooth="yes"/>
      <point x="81" y="262" type="line" smooth="yes"/>
      <point x="83" y="278" type="line" smooth="yes"/>
      <point x="106" y="371" type="line" smooth="yes"/>
      <point x="147" y="442" type="line" smooth="yes"/>
      <point x="206" y="486" type="line" smooth="yes"/>
      <point x="283" y="502" type="line" smooth="yes"/>
      <point x="359" y="485" type="line" smooth="yes"/>
      <point x="408" y="438" type="line" smooth="yes"/>
      <point x="432" y="364" type="line" smooth="yes"/>
      <point x="431" y="268" type="line" smooth="yes"/>
      <point x="429" y="252" type="line" smooth="yes"/>
      <point x="406" y="159" type="line" smooth="yes"/>
      <point x="365" y="88" type="line" smooth="yes"/>
      <point x="306" y="44" type="line" smooth="yes"/>
    </contour>
    <contour>
      <point x="107" y="772" type="line" smooth="yes"/>
      <point x="152" y="765" type="line" smooth="yes"/>
      <point x="194" y="754" type="line" smooth="yes"/>
      <point x="235" y="739" type="line" smooth="yes"/>
      <point x="275" y="718" type="line" smooth="yes"/>
      <point x="132" y="640" type="line" smooth="yes"/>
      <point x="126" y="597" type="line" smooth="yes"/>
      <point x="308" y="696" type="line" smooth="yes"/>
      <point x="324" y="684" type="line" smooth="yes"/>
      <point x="339" y="670" type="line" smooth="yes"/>
      <point x="354" y="655" type="line" smooth="yes"/>
      <point x="368" y="638" type="line" smooth="yes"/>
      <point x="393" y="600" type="line" smooth="yes"/>
      <point x="412" y="558" type="line" smooth="yes"/>
      <point x="426" y="512" type="line" smooth="yes"/>
      <point x="436" y="465" type="line" smooth="yes"/>
      <point x="412" y="497" type="line" smooth="yes"/>
      <point x="378" y="520" type="line" smooth="yes"/>
      <point x="335" y="535" type="line" smooth="yes"/>
      <point x="283" y="540" type="line" smooth="yes"/>
      <point x="187" y="520" type="line" smooth="yes"/>
      <point x="115" y="466" type="line" smooth="yes"/>
      <point x="66" y="382" type="line" smooth="yes"/>
      <point x="41" y="275" type="line" smooth="yes"/>
      <point x="39" y="259" type="line" smooth="yes"/>
      <point x="39" y="154" type="line" smooth="yes"/>
      <point x="69" y="69" type="line" smooth="yes"/>
      <point x="131" y="11" type="line" smooth="yes"/>
      <point x="229" y="-10" type="line" smooth="yes"/>
      <point x="325" y="10" type="line" smooth="yes"/>
      <point x="397" y="64" type="line" smooth="yes"/>
      <point x="446" y="148" type="line" smooth="yes"/>
      <point x="471" y="255" type="line" smooth="yes"/>
      <point x="473" y="271" type="line" smooth="yes"/>
      <point x="481" y="379" type="line" smooth="yes"/>
      <point x="475" y="484" type="line" smooth="yes"/>
      <point x="451" y="580" type="line" smooth="yes"/>
      <point x="404" y="664" type="line" smooth="yes"/>
      <point x="391" y="680" type="line" smooth="yes"/>
      <point x="378" y="694" type="line" smooth="yes"/>
      <point x="364" y="707" type="line" smooth="yes"/>
      <point x="350" y="719" type="line" smooth="yes"/>
      <point x="438" y="767" type="line" smooth="yes"/>
      <point x="444" y="810" type="line" smooth="yes"/>
      <point x="319" y="742" type="line" smooth="yes"/>
      <point x="271" y="769" type="line" smooth="yes"/>
      <point x="220" y="789" type="line" smooth="yes"/>
      <point x="167" y="802" type="line" smooth="yes"/>
      <point x="112" y="810" type="line" smooth="yes"/>
    </contour>
  </outline>
</glyph>
<glyph name="ntilde" format="1">
  <advance width="509"/>
  <unicode hex="00F1"/>
  <outline>
    <contour>
      <point x="396" y="0" type="line" smooth="yes"/>
      <point x="445" y="375" type="line" smooth="yes"/>
      <point x="442" y="444" type="line" smooth="yes"/>
      <point x="415" y="496" type="line" smooth="yes"/>
      <point x="364" y="529" type="line" smooth="yes"/>
      <point x="290" y="540" type="line" smooth="yes"/>
      <point x="236" y="533" type="line" smooth="yes"/>
      <point x="187" y="515" type="line" smooth="yes"/>
      <point x="146" y="487" type="line" smooth="yes"/>
      <point x="114" y="452" type="line" smooth="yes"/>
      <point x="115" y="530" type="line" smooth="yes"/>
      <point x="85" y="530" type="line" smooth="yes"/>
      <point x="71" y="380" type="line" smooth="yes"/>
      <point x="21" y="0" type="line" smooth="yes"/>
      <point x="61" y="0" type="line" smooth="yes"/>
      <point x="114" y="410" type="line" smooth="yes"/>
      <point x="140" y="441" type="line" smooth="yes"/>
      <point x="177" y="471" type="line" smooth="yes"/>
      <point x="225" y="493" type="line" smooth="yes"/>
      <point x="285" y="502" type="line" smooth="yes"/>
      <point x="340" y="495" type="line" smooth="yes"/>
      <point x="380" y="472" type="line" smooth="yes"/>
      <point x="402" y="431" type="line" smooth="yes"/>
      <point x="404" y="370" type="line" smooth="yes"/>
      <point x="356" y="0" type="line" smooth="yes"/>
    </contour>
    <contour>
      <point x="411" y="737" type="line" smooth="yes"/>
      <point x="405" y="714" type="line" smooth="yes"/>
      <point x="395" y="698" type="line" smooth="yes"/>
      <point x="382" y="690" type="line" smooth="yes"/>
      <point x="367" y="687" type="line" smooth="yes"/>
      <point x="337" y="696" type="line" smooth="yes"/>
      <point x="308" y="717" type="line" smooth="yes"/>
      <point x="276" y="738" type="line" smooth="yes"/>
      <point x="237" y="747" type="line" smooth="yes"/>
      <point x="207" y="742" type="line" smooth="yes"/>
      <point x="183" y="726" type="line" smooth="yes"/>
      <point x="166" y="700" type="line" smooth="yes"/>
      <point x="156" y="663" type="line" smooth="yes"/>
      <point x="191" y="663" type="line" smooth="yes"/>
      <point x="197" y="686" type="line" smooth="yes"/>
      <point x="207" y="702" type="line" smooth="yes"/>
      <point x="219" y="710" type="line" smooth="yes"/>
      <point x="234" y="713" type="line" smooth="yes"/>
      <point x="264" y="704" type="line" smooth="yes"/>
      <point x="293" y="683" type="line" smooth="yes"/>
      <point x="325" y="662" type="line" smooth="yes"/>
      <point x="364" y="653" type="line" smooth="yes"/>
      <point x="394" y="658" type="line" smooth="yes"/>
      <point x="418" y="674" type="line" smooth="yes"/>
      <point x="436" y="700" type="line" smooth="yes"/>
      <point x="446" y="737" type="line" smooth="yes"/>
    </contour>
  </outline>
</glyph>
<glyph name="otilde" format="1">
  <advance width="536"/>
  <unicode hex="00F5"/>
  <outline>
    <contour>
      <point x="229" y="-10" type="line" smooth="yes"/>
      <point x="325" y="10" type="line" smooth="yes"/>
      <point x="397" y="64" type="line" smooth="yes"/>
      <point x="446" y="148" type="line" smooth="yes"/>
      <point x="471" y="255" type="line" smooth="yes"/>
      <point x="473" y="271" type="line" smooth="yes"/>
      <point x="473" y="376" type="line" smooth="yes"/>
      <point x="443" y="461" type="line" smooth="yes"/>
      <point x="381" y="519" type="line" smooth="yes"/>
      <point x="283" y="540" type="line" smooth="yes"/>
      <point x="187" y="520" type="line" smooth="yes"/>
      <point x="115" y="466" type="line" smooth="yes"/>
      <point x="66" y="382" type="line" smooth="yes"/>
      <point x="41" y="275" type="line" smooth="yes"/>
      <point x="39" y="259" type="line" smooth="yes"/>
      <point x="39" y="154" type="line" smooth="yes"/>
      <point x="69" y="69" type="line" smooth="yes"/>
      <point x="131" y="11" type="line" smooth="yes"/>
    </contour>
    <contour>
      <point x="229" y="28" type="line" smooth="yes"/>
      <point x="153" y="45" type="line" smooth="yes"/>
      <point x="104" y="92" type="line" smooth="yes"/>
      <point x="80" y="166" type="line" smooth="yes"/>
      <point x="81" y="262" type="line" smooth="yes"/>
      <point x="83" y="278" type="line" smooth="yes"/>
      <point x="106" y="371" type="line" smooth="yes"/>
      <point x="147" y="442" type="line" smooth="yes"/>
      <point x="206" y="486" type="line" smooth="yes"/>
      <point x="283" y="502" type="line" smooth="yes"/>
      <point x="359" y="485" type="line" smooth="yes"/>
      <point x="408" y="438" type="line" smooth="yes"/>
      <point x="432" y="364" type="line" smooth="yes"/>
      <point x="431" y="268" type="line" smooth="yes"/>
      <point x="429" y="252" type="line" smooth="yes"/>
      <point x="406" y="159" type="line" smooth="yes"/>
      <point x="365" y="88" type="line" smooth="yes"/>
      <point x="306" y="44" type="line" smooth="yes"/>
    </contour>
    <contour>
      <point x="423" y="737" type="line" smooth="yes"/>
      <point x="417" y="714" type="line" smooth="yes"/>
      <point x="407" y="698" type="line" smooth="yes"/>
      <point x="394" y="690" type="line" smooth="yes"/>
      <point x="379" y="687" type="line" smooth="yes"/>
      <point x="349" y="696" type="line" smooth="yes"/>
      <point x="320" y="717" type="line" smooth="yes"/>
      <point x="288" y="738" type="line" smooth="yes"/>
      <point x="249" y="747" type="line" smooth="yes"/>
      <point x="219" y="742" type="line" smooth="yes"/>
      <point x="195" y="726" type="line" smooth="yes"/>
      <point x="178" y="700" type="line" smooth="yes"/>
      <point x="168" y="663" type="line" smooth="yes"/>
      <point x="203" y="663" type="line" smooth="yes"/>
      <point x="209" y="686" type="line" smooth="yes"/>
      <point x="219" y="702" type="line" smooth="yes"/>
      <point x="231" y="710" type="line" smooth="yes"/>
      <point x="246" y="713" type="line" smooth="yes"/>
      <point x="276" y="704" type="line" smooth="yes"/>
      <point x="305" y="683" type="line" smooth="yes"/>
      <point x="337" y="662" type="line" smooth="yes"/>
      <point x="376" y="653" type="line" smooth="yes"/>
      <point x="406" y="658" type="line" smooth="yes"/>
      <point x="430" y="674" type="line" smooth="yes"/>
      <point x="448" y="700" type="line" smooth="yes"/>
      <point x="458" y="737" type="line" smooth="yes"/>
    </contour>
  </outline>
</glyph>
<glyph name="oslash" format="1">
  <advance width="540"/>
  <unicode hex="00F8"/>
  <outline>
    <contour>
      <point x="229" y="28" type="line" smooth="yes"/>
      <point x="193" y="31" type="line" smooth="yes"/>
      <point x="162" y="40" type="line" smooth="yes"/>
      <point x="136" y="55" type="line" smooth="yes"/>
      <point x="115" y="75" type="line" smooth="yes"/>
      <point x="416" y="423" type="line" smooth="yes"/>
      <point x="427" y="391" type="line" smooth="yes"/>
      <point x="433" y="354" type="line" smooth="yes"/>
      <point x="435" y="313" type="line" smooth="yes"/>
      <point x="431" y="268" type="line" smooth="yes"/>
      <point x="429" y="252" type="line" smooth="yes"/>
      <point x="406" y="159" type="line" smooth="yes"/>
      <point x="365" y="88" type="line" smooth="yes"/>
      <point x="306" y="44" type="line" smooth="yes"/>
    </contour>
    <contour>
      <point x="81" y="262" type="line" smooth="yes"/>
      <point x="83" y="278" type="line" smooth="yes"/>
      <point x="106" y="371" type="line" smooth="yes"/>
      <point x="147" y="442" type="line" smooth="yes"/>
      <point x="206" y="486" type="line" smooth="yes"/>
      <point x="283" y="502" type="line" smooth="yes"/>
      <point x="319" y="499" type="line" smooth="yes"/>
      <point x="349" y="490" type="line" smooth="yes"/>
      <point x="375" y="475" type="line" smooth="yes"/>
      <point x="396" y="454" type="line" smooth="yes"/>
      <point x="96" y="107" type="line" smooth="yes"/>
      <point x="85" y="139" type="line" smooth="yes"/>
      <point x="79" y="176" type="line" smooth="yes"/>
      <point x="77" y="217" type="line" smooth="yes"/>
    </contour>
    <contour>
      <point x="229" y="-10" type="line" smooth="yes"/>
      <point x="325" y="10" type="line" smooth="yes"/>
      <point x="397" y="64" type="line" smooth="yes"/>
      <point x="446" y="148" type="line" smooth="yes"/>
      <point x="471" y="255" type="line" smooth="yes"/>
      <point x="473" y="271" type="line" smooth="yes"/>
      <point x="477" y="324" type="line" smooth="yes"/>
      <point x="473" y="373" type="line" smooth="yes"/>
      <point x="463" y="418" type="line" smooth="yes"/>
      <point x="445" y="457" type="line" smooth="yes"/>
      <point x="508" y="530" type="line" smooth="yes"/>
      <point x="462" y="530" type="line" smooth="yes"/>
      <point x="424" y="486" type="line" smooth="yes"/>
      <point x="397" y="509" type="line" smooth="yes"/>
      <point x="365" y="526" type="line" smooth="yes"/>
      <point x="327" y="536" type="line" smooth="yes"/>
      <point x="283" y="540" type="line" smooth="yes"/>
      <point x="187" y="520" type="line" smooth="yes"/>
      <point x="115" y="466" type="line" smooth="yes"/>
      <point x="66" y="382" type="line" smooth="yes"/>
      <point x="41" y="275" type="line" smooth="yes"/>
      <point x="39" y="259" type="line" smooth="yes"/>
      <point x="35" y="206" type="line" smooth="yes"/>
      <point x="39" y="157" type="line" smooth="yes"/>
      <point x="49" y="112" type="line" smooth="yes"/>
      <point x="66" y="72" type="line" smooth="yes"/>
      <point x="4" y="0" type="line" smooth="yes"/>
      <point x="50" y="0" type="line" smooth="yes"/>
      <point x="88" y="44" type="line" smooth="yes"/>
      <point x="114" y="21" type="line" smooth="yes"/>
      <point x="147" y="4" type="line" smooth="yes"/>
      <point x="185" y="-6" type="line" smooth="yes"/>
    </contour>
  </outline>
</glyph>
<glyph name="ydieresis" format="1">
  <advance width="462"/>
  <unicode hex="00FF"/>
  <outline>
    <contour>
      <point x="198" y="65" type="line" smooth="yes"/>
      <point x="90" y="530" type="line" smooth="yes"/>
      <point x="49" y="530" type="line" smooth="yes"/>
      <point x="173" y="20" type="line" smooth="yes"/>
      <point x="62" y="-200" type="line" smooth="yes"/>
      <point x="106" y="-200" type="line" smooth="yes"/>
      <point x="213" y="18" type="line" smooth="yes"/>
      <point x="471" y="530" type="line" smooth="yes"/>
      <point x="428" y="530" type="line" smooth="yes"/>
    </contour>
    <contour>
      <point x="242" y="735" type="line" smooth="yes"/>
      <point x="182" y="735" type="line" smooth="yes"/>
      <point x="174" y="675" type="line" smooth="yes"/>
      <point x="234" y="675" type="line" smooth="yes"/>
    </contour>
    <contour>
      <point x="392" y="735" type="line" smooth="yes"/>
      <point x="332" y="735" type="line" smooth="yes"/>
      <point x="324" y="675" type="line" smooth="yes"/>
      <point x="384" y="675" type="line" smooth="yes"/>
    </contour>
  </outline>
</glyph>
<glyph name="amacron" format="1">
  <advance width="498"/>
  <unicode hex="0101"/>
  <outline>
    <contour>
      <point x="160" y="28" type="line" smooth="yes"/>
      <point x="113" y="37" type="line" smooth="yes"/>
      <point x="80" y="61" type="line" smooth="yes"/>
      <point x="62" y="95" type="line" smooth="yes"/>
      <point x="60" y="134" type="line" smooth="yes"/>
      <point x="62" y="150" type="line" smooth="yes"/>
      <point x="76" y="195" type="line" smooth="yes"/>
      <point x="105" y="227" type="line" smooth="yes"/>
      <point x="148" y="248" type="line" smooth="yes"/>
      <point x="203" y="261" type="line" smooth="yes"/>
      <point x="379" y="289" type="line" smooth="yes"/>
      <point x="358" y="129" type="line" smooth="yes"/>
      <point x="334" y="99" type="line" smooth="yes"/>
      <point x="295" y="66" type="line" smooth="yes"/>
      <point x="237" y="39" type="line" smooth="yes"/>
    </contour>
    <contour>
      <point x="356" y="0" type="line" smooth="yes"/>
      <point x="386" y="0" type="line" smooth="yes"/>
      <point x="400" y="150" type="line" smooth="yes"/>
      <point x="426" y="345" type="line" smooth="yes"/>
      <point x="428" y="425" type="line" smooth="yes"/>
      <point x="406" y="486" type="line" smooth="yes"/>
      <point x="353" y="526" type="line" smooth="yes"/>
      <point x="263" y="540" type="line" smooth="yes"/>
      <point x="175" y="524" type="line" smooth="yes"/>
      <point x="117" y="483" type="line" smooth="yes"/>
      <point x="84" y="428" type="line" smooth="yes"/>
      <point x="69" y="369" type="line" smooth="yes"/>
      <point x="67" y="355" type="line" smooth="yes"/>
      <point x="107" y="355" type="line" smooth="yes"/>
      <point x="119" y="411" type="line" smooth="yes"/>
      <point x="146" y="458" type="line" smooth="yes"/>
      <point x="192" y="490" type="line" smooth="yes"/>
      <point x="263" y="502" type="line" smooth="yes"/>
      <point x="331" y="493" type="line" smooth="yes"/>
      <point x="371" y="465" type="line" smooth="yes"/>
      <point x="389" y="418" type="line" smooth="yes"/>
      <point x="387" y="350" type="line" smooth="yes"/>
      <point x="384" y="326" type="line" smooth="yes"/>
      <point x="208" y="298" type="line" smooth="yes"/>
      <point x="145" y="285" type="line" smooth="yes"/>
      <point x="88" y="261" type="line" smooth="yes"/>
      <point x="43" y="217" type="line" smooth="yes"/>
      <point x="20" y="147" type="line" smooth="yes"/>
      <point x="18" y="131" type="line" smooth="yes"/>
      <point x="23" y="73" type="line" smooth="yes"/>
      <point x="52" y="29" type="line" smooth="yes"/>
      <point x="99" y="0" type="line" smooth="yes"/>
      <point x="160" y="-10" type="line" smooth="yes"/>
      <point x="225" y="-2" type="line" smooth="yes"/>
      <point x="279" y="18" type="line" smooth="yes"/>
      <point x="323" y="47" type="line" smooth="yes"/>
      <point x="357" y="80" type="line" smooth="yes"/>
    </contour>
    <contour>
      <point x="185" y="680" type="line" smooth="yes"/>
      <point x="395" y="680" type="line" smooth="yes"/>
      <point x="400" y="720" type="line" smooth="yes"/>
      <point x="190" y="720" type="line" smooth="yes"/>
    </contour>
  </outline>
</glyph>
<glyph name="Aogonek" format="1">
  <advance width="600"/>
  <unicode hex="0104"/>
  <outline>
    <contour>
      <point x="351" y="750" type="line" smooth="yes"/>
      <point x="433" y="249" type="line" smooth="yes"/>
      <point x="136" y="249" type="line" smooth="yes"/>
    </contour>
    <contour>
      <point x="325" y="790" type="line" smooth="yes"/>
      <point x="-15" y="0" type="line" smooth="yes"/>
      <point x="31" y="0" type="line" smooth="yes"/>
      <point x="120" y="211" type="line" smooth="yes"/>
      <point x="439" y="211" type="line" smooth="yes"/>
      <point x="473" y="11" type="line" smooth="yes"/>
      <point x="435" y="-13" type="line" smooth="yes"/>
      <point x="403" y="-45" type="line" smooth="yes"/>
      <point x="381" y="-84" type="line" smooth="yes"/>
      <point x="373" y="-131" type="line" smooth="yes"/>
      <point x="380" y="-165" type="line" smooth="yes"/>
      <point x="398" y="-190" type="line" smooth="yes"/>
      <point x="427" y="-205" type="line" smooth="yes"/>
      <point x="466" y="-210" type="line" smooth="yes"/>
      <point x="485" y="-209" type="line" smooth="yes"/>
      <point x="506" y="-205" type="line" smooth="yes"/>
      <point x="526" y="-199" type="line" smooth="yes"/>
      <point x="544" y="-191" type="line" smooth="yes"/>
      <point x="536" y="-163" type="line" smooth="yes"/>
      <point x="522" y="-169" type="line" smooth="yes"/>
      <point x="506" y="-173" type="line" smooth="yes"/>
      <point x="489" y="-176" type="line" smooth="yes"/>
      <point x="473" y="-177" type="line" smooth="yes"/>
      <point x="445" y="-174" type="line" smooth="yes"/>
      <point x="425" y="-164" type="line" smooth="yes"/>
      <point x="412" y="-149" type="line" smooth="yes"/>
      <point x="407" y="-127" type="line" smooth="yes"/>
      <point x="417" y="-83" type="line" smooth="yes"/>
      <point x="444" y="-47" type="line" smooth="yes"/>
      <point x="479" y="-20" type="line" smooth="yes"/>
      <point x="517" y="0" type="line" smooth="yes"/>
      <point x="385" y="790" type="line" smooth="yes"/>
    </contour>
  </outline>
</glyph>
<glyph name="cdotaccent" format="1">
  <advance width="518"/>
  <unicode hex="010B"/>
  <outline>
    <contour>
      <point x="83" y="278" type="line" smooth="yes"/>
      <point x="105" y="371" type="line" smooth="yes"/>
      <point x="145" y="442" type="line" smooth="yes"/>
      <point x="202" y="486" type="line" smooth="yes"/>
      <point x="278" y="502" type="line" smooth="yes"/>
      <point x="349" y="489" type="line" smooth="yes"/>
      <point x="396" y="455" type="line" smooth="yes"/>
      <point x="419" y="403" type="line" smooth="yes"/>
      <point x="421" y="340" type="line" smooth="yes"/>
      <point x="460" y="340" type="line" smooth="yes"/>
      <point x="462" y="355" type="line" smooth="yes"/>
      <point x="460" y="414" type="line" smooth="yes"/>
      <point x="434" y="475" type="line" smooth="yes"/>
      <point x="376" y="521" type="line" smooth="yes"/>
      <point x="278" y="540" type="line" smooth="yes"/>
      <point x="182" y="520" type="line" smooth="yes"/>
      <point x="112" y="466" type="line" smooth="yes"/>
      <point x="66" y="382" type="line" smooth="yes"/>
      <point x="41" y="275" type="line" smooth="yes"/>
      <point x="39" y="259" type="line" smooth="yes"/>
      <point x="40" y="154" type="line" smooth="yes"/>
      <point x="71" y="69" type="line" smooth="yes"/>
      <point x="135" y="11" type="line" smooth="yes"/>
      <point x="234" y="-10" type="line" smooth="yes"/>
      <point x="325" y="7" type="line" smooth="yes"/>
      <point x="386" y="50" type="line" smooth="yes"/>
      <point x="421" y="107" type="line" smooth="yes"/>
      <point x="437" y="166" type="line" smooth="yes"/>
      <point x="439" y="180" type="line" smooth="yes"/>
      <point x="399" y="180" type="line" smooth="yes"/>
      <point x="385" y="123" type="line" smooth="yes"/>
      <point x="355" y="75" type="line" smooth="yes"/>
      <point x="306" y="41" type="line" smooth="yes"/>
      <point x="234" y="28" type="line" smooth="yes"/>
      <point x="157" y="45" type="line" smooth="yes"/>
      <point x="106" y="92" type="line" smooth="yes"/>
      <point x="81" y="166" type="line" smooth="yes"/>
      <point x="81" y="262" type="line" smooth="yes"/>
    </contour>
    <contour>
      <point x="347" y="735" type="line" smooth="yes"/>
      <point x="287" y="735" type="line" smooth="yes"/>
      <point x="279" y="675" type="line" smooth="yes"/>
      <point x="339" y="675" type="line" smooth="yes"/>
    </contour>
  </outline>
</glyph>
<glyph name="Ccaron" format="1">
  <advance width="604"/>
  <unicode hex="010C"/>
  <outline>
    <contour>
      <point x="108" y="402" type="line" smooth="yes"/>
      <point x="141" y="561" type="line" smooth="yes"/>
      <point x="194" y="670" type="line" smooth="yes"/>
      <point x="268" y="732" type="line" smooth="yes"/>
      <point x="364" y="752" type="line" smooth="yes"/>
      <point x="370" y="752" type="line" smooth="yes"/>
      <point x="454" y="738" type="line" smooth="yes"/>
      <point x="507" y="694" type="line" smooth="yes"/>
      <point x="531" y="615" type="line" smooth="yes"/>
      <point x="526" y="500" type="line" smooth="yes"/>
      <point x="568" y="500" type="line" smooth="yes"/>
      <point x="571" y="519" type="line" smooth="yes"/>
      <point x="574" y="633" type="line" smooth="yes"/>
      <point x="541" y="718" type="line" smooth="yes"/>
      <point x="473" y="772" type="line" smooth="yes"/>
      <point x="367" y="790" type="line" smooth="yes"/>
      <point x="253" y="768" type="line" smooth="yes"/>
      <point x="166" y="698" type="line" smooth="yes"/>
      <point x="103" y="577" type="line" smooth="yes"/>
      <point x="66" y="402" type="line" smooth="yes"/>
      <point x="63" y="378" type="line" smooth="yes"/>
      <point x="57" y="200" type="line" smooth="yes"/>
      <point x="92" y="79" type="line" smooth="yes"/>
      <point x="165" y="11" type="line" smooth="yes"/>
      <point x="276" y="-10" type="line" smooth="yes"/>
      <point x="380" y="8" type="line" smooth="yes"/>
      <point x="457" y="59" type="line" smooth="yes"/>
      <point x="508" y="138" type="line" smooth="yes"/>
      <point x="534" y="241" type="line" smooth="yes"/>
      <point x="535" y="250" type="line" smooth="yes"/>
      <point x="493" y="250" type="line" smooth="yes"/>
      <point x="470" y="154" type="line" smooth="yes"/>
      <point x="428" y="85" type="line" smooth="yes"/>
      <point x="365" y="42" type="line" smooth="yes"/>
      <point x="279" y="28" type="line" smooth="yes"/>
      <point x="273" y="28" type="line" smooth="yes"/>
      <point x="182" y="47" type="line" smooth="yes"/>
      <point x="124" y="108" type="line" smooth="yes"/>
      <point x="98" y="217" type="line" smooth="yes"/>
      <point x="105" y="378" type="line" smooth="yes"/>
    </contour>
    <contour>
      <point x="279" y="950" type="line" smooth="yes"/>
      <point x="364" y="840" type="line" smooth="yes"/>
      <point x="394" y="840" type="line" smooth="yes"/>
      <point x="509" y="950" type="line" smooth="yes"/>
      <point x="462" y="950" type="line" smooth="yes"/>
      <point x="381" y="873" type="line" smooth="yes"/>
      <point x="322" y="950" type="line" smooth="yes"/>
    </contour>
  </outline>
</glyph>
<glyph name="Dcroat" format="1">
  <advance width="683"/>
  <unicode hex="0110"/>
  <outline>
    <contour>
      <point x="136" y="38" type="line" smooth="yes"/>
      <point x="180" y="379" type="line" smooth="yes"/>
      <point x="410" y="379" type="line" smooth="yes"/>
      <point x="415" y="417" type="line" smooth="yes"/>
      <point x="185" y="417" type="line" smooth="yes"/>
      <point x="228" y="742" type="line" smooth="yes"/>
      <point x="377" y="742" type="line" smooth="yes"/>
      <point x="480" y="723" type="line" smooth="yes"/>
      <point x="552" y="664" type="line" smooth="yes"/>
      <point x="590" y="558" type="line" smooth="yes"/>
      <point x="588" y="402" type="line" smooth="yes"/>
      <point x="585" y="378" type="line" smooth="yes"/>
      <point x="546" y="222" type="line" smooth="yes"/>
      <point x="480" y="116" type="line" smooth="yes"/>
      <point x="390" y="57" type="line" smooth="yes"/>
      <point x="281" y="38" type="line" smooth="yes"/>
    </contour>
    <contour>
      <point x="630" y="402" type="line" smooth="yes"/>
      <point x="630" y="575" type="line" smooth="yes"/>
      <point x="583" y="692" type="line" smooth="yes"/>
      <point x="498" y="759" type="line" smooth="yes"/>
      <point x="380" y="780" type="line" smooth="yes"/>
      <point x="193" y="780" type="line" smooth="yes"/>
      <point x="145" y="417" type="line" smooth="yes"/>
      <point x="25" y="417" type="line" smooth="yes"/>
      <point x="20" y="379" type="line" smooth="yes"/>
      <point x="140" y="379" type="line" smooth="yes"/>
      <point x="91" y="0" type="line" smooth="yes"/>
      <point x="281" y="0" type="line" smooth="yes"/>
      <point x="404" y="21" type="line" smooth="yes"/>
      <point x="507" y="88" type="line" smooth="yes"/>
      <point x="583" y="205" type="line" smooth="yes"/>
      <point x="627" y="378" type="line" smooth="yes"/>
    </contour>
  </outline>
</glyph>
<glyph name="Emacron" format="1">
  <advance width="540"/>
  <unicode hex="0112"/>
  <outline>
    <contour>
      <point x="266" y="875" type="line" smooth="yes"/>
      <point x="466" y="875" type="line" smooth="yes"/>
      <point x="471" y="915" type="line" smooth="yes"/>
      <point x="271" y="915" type="line" smooth="yes"/>
    </contour>
    <contour>
      <point x="133" y="780" type="line" smooth="yes"/>
      <point x="31" y="0" type="line" smooth="yes"/>
      <point x="451" y="0" type="line" smooth="yes"/>
      <point x="456" y="38" type="line" smooth="yes"/>
      <point x="76" y="38" type="line" smooth="yes"/>
      <point x="120" y="379" type="line" smooth="yes"/>
      <point x="450" y="379" type="line" smooth="yes"/>
      <point x="455" y="417" type="line" smooth="yes"/>
      <point x="125" y="417" type="line" smooth="yes"/>
      <point x="168" y="742" type="line" smooth="yes"/>
      <point x="548" y="742" type="line" smooth="yes"/>
      <point x="553" y="780" type="line" smooth="yes"/>
    </contour>
  </outline>
</glyph>
<glyph name="Ebreve" format="1">
  <advance width="540"/>
  <unicode hex="0114"/>
  <outline>
    <contour>
      <point x="362" y="830" type="line" smooth="yes"/>
      <point x="419" y="839" type="line" smooth="yes"/>
      <point x="463" y="864" type="line" smooth="yes"/>
      <point x="493" y="902" type="line" smooth="yes"/>
      <point x="508" y="950" type="line" smooth="yes"/>
      <point x="472" y="950" type="line" smooth="yes"/>
      <point x="461" y="915" type="line" smooth="yes"/>
      <point x="440" y="888" type="line" smooth="yes"/>
      <point x="407" y="870" type="line" smooth="yes"/>
      <point x="364" y="863" type="line" smooth="yes"/>
      <point x="322" y="870" type="line" smooth="yes"/>
      <point x="295" y="888" type="line" smooth="yes"/>
      <point x="281" y="915" type="line" smooth="yes"/>
      <point x="280" y="950" type="line" smooth="yes"/>
      <point x="244" y="950" type="line" smooth="yes"/>
      <point x="246" y="902" type="line" smooth="yes"/>
      <point x="268" y="864" type="line" smooth="yes"/>
      <point x="307" y="839" type="line" smooth="yes"/>
    </contour>
    <contour>
      <point x="133" y="780" type="line" smooth="yes"/>
      <point x="31" y="0" type="line" smooth="yes"/>
      <point x="451" y="0" type="line" smooth="yes"/>
      <point x="456" y="38" type="line" smooth="yes"/>
      <point x="76" y="38" type="line" smooth="yes"/>
      <point x="120" y="379" type="line" smooth="yes"/>
      <point x="450" y="379" type="line" smooth="yes"/>
      <point x="455" y="417" type="line" smooth="yes"/>
      <point x="125" y="417" type="line" smooth="yes"/>
      <point x="168" y="742" type="line" smooth="yes"/>
      <point x="548" y="742" type="line" smooth="yes"/>
      <point x="553" y="780" type="line" smooth="yes"/>
    </contour>
  </outline>
</glyph>
